<?xml version="1.0" encoding="UTF-8"?>
<svg width="25px" height="30px" viewBox="0 0 25 30" version="1.1" xmlns="http://www.w3.org/2000/svg" xmlns:xlink="http://www.w3.org/1999/xlink">
    <!-- Generator: Sketch 44 (41411) - http://www.bohemiancoding.com/sketch -->
    <title>Shape</title>
    <desc>Created with Sketch.</desc>
    <defs></defs>
    <g id="Symbols" stroke="none" stroke-width="1" fill="none" fill-rule="evenodd">
        <g id="olive" transform="translate(-35.000000, -3.000000)" fill-rule="nonzero" fill="#4DABAB">
            <path d="M41.1738171,5.1652668 C41.2870938,4.95331905 41.4447717,4.7683103 41.6360857,4.62287164 L41.6360857,4.62287164 L41.925774,4.40714629 L42.2339531,4.21607527 C43.0432419,3.70795593 43.9365097,3.34793561 44.8719659,3.1528575 C45.7857396,2.96723024 46.7257831,2.95051836 47.6455774,3.10354885 C49.7257189,3.05131085 51.7605284,3.71616037 53.408526,4.98652294 L53.5009797,5.05740412 C53.819831,5.29745197 53.891963,5.74657602 53.6643146,6.07439504 L53.6396603,6.10829474 C52.9801571,7.05440447 52.2466909,7.95736913 51.5193883,8.84800663 C51.1033466,9.35958388 50.5948511,9.56606385 50.2650995,9.37807462 C49.9353479,9.19008539 50.0154745,8.61070875 50.3390625,8.05598643 C50.7674314,7.31943846 51.2235364,6.59829945 51.6950504,5.89873297 C51.1187303,5.51625139 50.4977533,5.20576287 49.845976,4.97419577 C49.6918864,4.92488712 49.5377969,4.8663331 49.389871,4.81702445 L48.9214388,4.69375282 C48.2745078,4.61297496 47.6216434,4.59028456 46.9706653,4.62595343 L46.7272038,4.62595343 L46.4868242,4.65368955 C46.326571,4.67218029 46.1786451,4.68450745 46.002983,4.70916178 C45.694804,4.77079759 45.3619706,4.81086087 45.0507097,4.90331459 C44.7377161,4.98256471 44.4291102,5.07823253 44.1261725,5.18992112 C43.9751648,5.24539335 43.8179935,5.31627454 43.6793129,5.38099214 L43.4543422,5.47652765 L43.2416986,5.5936357 C43.0999362,5.67376225 42.9520103,5.74464344 42.8133297,5.83093358 L42.77943,5.85250611 L42.8842109,6.01584102 C43.5278581,6.96734596 43.9675108,8.04181958 44.1754812,9.17159465 C44.221708,9.47977371 44.1754812,9.76946204 43.9012018,9.78795278 C43.7122333,9.78024332 43.5339363,9.69829316 43.4050335,9.55990027 C42.9335195,8.83876126 42.4373512,8.12686762 41.9350194,7.42113756 L41.1738171,6.3517562 L41.0782816,6.2192392 L41.0782816,6.20383025 L41.0782816,6.20383025 L41.0782816,6.20383025 C40.936034,6.00310888 40.9080384,5.74298344 41.0043186,5.51659093 L41.1738171,5.1652668 Z M58.7400238,28.6084483 C58.5643783,28.31252 58.3267805,28.0581011 58.0435391,27.862655 C57.883286,27.7609559 57.750769,27.6869929 57.618252,27.6130299 L57.4579989,27.5205762 L57.5319619,26.2046516 C57.5535344,25.6776654 57.5874341,25.1660882 57.5843523,24.6052023 C57.589916,23.4816105 57.475237,22.3606488 57.2422736,21.2614594 C56.4445958,17.5488299 54.4620708,14.1959509 51.5933513,11.7079084 C51.4527594,11.5864823 51.273697,11.518788 51.0879376,11.5168373 L51.0694469,11.5168373 L43.7686848,11.4428744 C43.5652725,11.4405635 43.3676291,11.5104485 43.2108807,11.640109 L43.2108807,11.640109 C40.0791159,14.2497292 37.9756581,17.8865486 37.2753519,21.9024718 C37.1481666,22.5347642 37.0565959,23.1737011 37.0010725,23.8162638 C36.9425185,24.4572763 36.9301913,25.1167795 36.920946,25.7177287 L36.9024552,27.1569249 C36.8038379,27.2031518 36.7083024,27.2462968 36.5511311,27.332587 C36.1757673,27.5407945 35.849043,27.8265469 35.5926942,28.170834 C35.0692411,28.8780008 34.8801839,29.7782731 35.0749534,30.6362666 L35.3184148,31.0831262 L35.0749534,30.6362666 C35.3191802,31.704193 36.1182717,32.5585971 37.1674892,32.8736466 C37.4245452,32.951483 37.6909947,32.9939904 37.9595094,33 L39.6329217,33 L44.0645367,33 C47.0168922,32.9794547 49.9661658,32.9342551 52.9123577,32.8644012 C55.1127562,32.808929 56.9433399,32.5932036 56.780005,32.1648347 C56.61667,31.7364658 55.0696111,31.4868408 52.8075768,31.4406139 C48.7488585,31.3574056 44.6531587,31.2680337 40.5821133,31.2803608 L37.9379369,31.2803608 C37.3459162,31.2469626 36.8453961,30.8302797 36.7052206,30.2541245 L36.5018224,29.8873914 L36.7052206,30.2541245 C36.5682531,29.6725892 36.8271263,29.0698023 37.3431513,28.7687014 C37.4078689,28.7286382 37.568122,28.6515934 37.6975572,28.5899576 L38.09819,28.392723 L38.09819,28.392723 C38.3428331,28.2731525 38.4973519,28.0240059 38.495741,27.7517105 L38.4772502,25.0767162 C38.4775496,24.2217828 38.5393449,23.3679782 38.6621577,22.5219118 C38.7952585,21.6751889 38.9920237,20.8397091 39.2507797,20.0225795 C39.5211137,19.2027352 39.8549588,18.4052164 40.2492799,17.6372736 C41.2553688,15.9283442 42.5468339,14.4044363 44.0676185,13.1316956 C46.2741806,13.1810043 48.4869063,13.2107949 50.7057956,13.2210676 C52.659829,14.9560117 54.1627354,17.1400381 55.0850201,19.5849653 C55.5646765,20.8547469 55.8755128,22.1820179 56.0095573,23.5327391 C56.0372934,23.8717361 56.0773567,24.2076513 56.0773567,24.5466482 L56.0927656,25.0551437 L56.0927656,25.5913753 L56.0927656,27.7486287 C56.0932037,28.1035602 56.2967935,28.4269087 56.61667,28.5807122 L56.61667,28.5807122 L57.0203846,28.774865 C57.146738,28.8365008 57.3285637,28.9166274 57.3624634,28.9443635 C57.8063548,29.1993825 58.0295732,29.7160452 57.9110221,30.2140612 L58.163729,29.7548744 L57.9110221,30.2140612 C57.8658671,30.3969357 57.7770387,30.5661326 57.6521517,30.7071478 C57.5416735,30.8414181 57.4222382,30.9680607 57.294664,31.086208 C57.1529016,31.2094796 56.9864849,31.3050151 56.9063584,31.3728145 C56.7399417,31.4930044 56.7399417,31.600867 56.9402581,31.6809936 C57.2919472,31.7896746 57.6730799,31.7460846 57.9911487,31.5608038 C58.4358905,31.3223479 58.7730961,30.9234314 58.9341766,30.4451955 L58.9095223,30.4883406 L58.9341766,30.4451955 C59.1398751,29.8338701 59.0689882,29.1632574 58.7400238,28.6084483 Z M46.7364492,28.509831 C46.9310978,28.5262439 47.1270778,28.5158746 47.3189076,28.4790131 C47.8058306,28.377314 48.0184741,28.2571242 48.0739464,28.1338526 C48.2027048,27.9256484 48.2856956,27.6924337 48.3174078,27.449695 C48.9499618,27.3092017 49.5166992,26.9596051 49.9261025,26.4573584 C50.1547513,26.174115 50.3226016,25.846807 50.419189,25.4958398 C50.5150581,25.1490696 50.5463963,24.7876359 50.5116428,24.4295402 C50.4671596,24.0410152 50.3297391,23.6689227 50.11101,23.3447499 C49.9072974,23.0382834 49.6468254,22.7736271 49.3436441,22.5650568 C48.821547,22.2166256 48.2363086,21.9737359 47.6209231,21.8500814 L47.6209231,21.8500814 C47.2289945,21.7736125 46.8487597,21.6461769 46.489906,21.4710212 C46.3411667,21.3624802 46.2206782,21.2197965 46.1385818,21.0549794 C46.0886459,20.9467143 46.0623798,20.8290423 46.0615371,20.7098189 C46.0569424,20.5685628 46.0778208,20.4276337 46.1231729,20.2937771 C46.2071864,20.0352376 46.3824677,19.816136 46.6162594,19.677419 C46.8923222,19.519722 47.2043823,19.4358692 47.5223058,19.4339575 C47.8405037,19.4338017 48.1515728,19.5281951 48.4160251,19.7051551 C48.5657313,19.8114099 48.7270173,19.900324 48.8967845,19.9701891 C49.0686756,20.0504492 49.2672885,20.0504492 49.4391796,19.9701891 C49.6260889,19.8680204 49.7384933,19.6683231 49.7288679,19.4555301 C49.7148557,19.1416194 49.5775278,18.8459213 49.3467259,18.632692 C49.0552189,18.3433966 48.7053557,18.1196102 48.3204896,17.9762706 C48.3237588,17.8784538 48.3036872,17.7812648 48.2619356,17.6927458 C48.2804263,17.6496007 48.3019989,17.6095375 48.314326,17.5663924 C48.4207008,17.2997848 48.3859629,16.9975646 48.2218723,16.762045 C48.1664001,16.6850003 47.9506747,16.6233645 47.5223058,16.629528 C47.0939369,16.6356916 46.8443119,16.6880821 46.798085,16.7651268 C46.7051385,16.8875013 46.6494933,17.0341049 46.6378319,17.1873321 C46.6714941,17.4080856 46.7272462,17.6248994 46.8042486,17.8345082 C46.3443081,17.8971739 45.9064707,18.0706167 45.5283873,18.3399218 C45.2932385,18.5133616 45.0854689,18.7211312 44.9120291,18.95628 C44.7417353,19.1993324 44.6107012,19.4676403 44.5237235,19.751382 C44.4444953,20.0288939 44.4060838,20.3164606 44.4096973,20.605038 C44.410933,20.9014111 44.4630535,21.1953712 44.5637868,21.4741029 C44.6753673,21.7538664 44.8372666,22.0108163 45.0414643,22.2322234 C45.2338008,22.4316851 45.4525935,22.6038159 45.6917222,22.7438007 C46.1209059,22.985233 46.5843908,23.1598193 47.0662008,23.2615415 L47.0662008,23.2615415 L47.2634354,23.3447499 L47.4298521,23.4187129 L47.7380312,23.5604752 C48.1065102,23.7189318 48.4257708,23.9732761 48.6625684,24.2970232 C48.753037,24.4550104 48.794848,24.6361912 48.7827582,24.8178458 C48.7735335,25.0230496 48.7120044,25.2224888 48.6040143,25.3972225 C48.3416539,25.7702076 47.9103907,25.9875735 47.4545064,25.9765991 C46.9921337,25.9943005 46.5570673,25.7578514 46.3204075,25.360241 C46.2803442,25.2955234 46.076946,25.2616237 45.9505926,25.2585419 C45.7040493,25.2585419 45.5561234,25.4496129 45.5592052,25.7454648 C45.5897279,26.2994028 45.8828478,26.8054925 46.3481436,27.1076163 C46.4911568,27.2056272 46.6452971,27.2863181 46.8073304,27.3479959 L46.8073304,27.3479959 C46.268017,27.7024019 46.5761961,28.0660532 46.4652516,28.4266227 C46.5531184,28.4700699 46.6481375,28.4972182 46.7456946,28.5067492 L46.7364492,28.509831 Z" id="Shape"></path>
        </g>
    </g>
</svg>
