<?xml version="1.0" encoding="UTF-8"?>
<svg width="30px" height="27px" viewBox="0 0 30 27" version="1.1" xmlns="http://www.w3.org/2000/svg" xmlns:xlink="http://www.w3.org/1999/xlink">
    <!-- Generator: Sketch 44 (41411) - http://www.bohemiancoding.com/sketch -->
    <title>heart - simple-line-icons</title>
    <desc>Created with Sketch.</desc>
    <defs></defs>
    <g id="Symbols" stroke="none" stroke-width="1" fill="none" fill-rule="evenodd">
        <g id="red" transform="translate(-33.000000, -4.000000)" fill="#F03B3B">
            <path d="M41.4210526,5.87134503 C41.8888912,5.87134503 42.5467794,6.05652836 43.3947368,6.42690058 C44.2426943,6.79727281 45.3391746,7.64521754 46.6842105,8.97076023 L48.0292398,10.2865497 L49.3450292,8.94152047 C50.2807064,7.98635 51.2114963,7.23587018 52.1374269,6.69005848 C53.0633575,6.14424678 53.8576965,5.87134503 54.5204678,5.87134503 C55.4171585,5.87134503 56.2358637,6.03216213 56.9766082,6.35380117 C57.7173526,6.6754402 58.4288465,7.1773845 59.1111111,7.85964912 C59.7543892,8.50292719 60.2514602,9.24366053 60.6023392,10.0818713 C60.9532181,10.9200822 61.128655,11.7972664 61.128655,12.7134503 C61.128655,13.6296342 60.9532181,14.5068184 60.6023392,15.3450292 C60.2514602,16.1832401 59.7543892,16.9337199 59.1111111,17.5964912 C59.0721246,17.6159845 58.7261241,17.9766047 58.0730994,18.6783626 C57.4200747,19.3801205 56.591623,20.2767977 55.5877193,21.3684211 C54.5838156,22.4600444 53.4629692,23.6686094 52.2251462,24.994152 C50.9873232,26.3196947 49.7836316,27.6257246 48.6140351,28.9122807 C48.4970754,29.0097471 48.3801175,29.0730993 48.2631579,29.1023392 C48.1461982,29.1315791 48.0584798,29.1461988 48,29.1461988 C47.9220269,29.1461988 47.8294352,29.1315791 47.7222222,29.1023392 C47.6150092,29.0730993 47.5029246,29.0097471 47.3859649,28.9122807 C47.0935658,28.6003883 46.4308044,27.8645282 45.3976608,26.7046784 C44.3645173,25.5448285 43.2582905,24.3167706 42.0789474,23.0204678 C40.8996042,21.7241651 39.7982507,20.5156001 38.7748538,19.3947368 C37.7514569,18.2738735 37.1228082,17.5964924 36.8888889,17.3625731 C36.2456108,16.719295 35.7485398,15.9785617 35.3976608,15.1403509 C35.0467819,14.3021401 34.871345,13.4249558 34.871345,12.5087719 C34.871345,11.592588 35.0467819,10.7154038 35.3976608,9.87719298 C35.7485398,9.03898216 36.2456108,8.28850234 36.8888889,7.62573099 C37.532167,7.0019462 38.2241678,6.5536076 38.9649123,6.28070175 C39.7056567,6.00779591 40.524362,5.87134503 41.4210526,5.87134503 Z M41.4210526,4 C40.309936,4 39.2621882,4.18031009 38.2777778,4.54093567 C37.2933674,4.90156126 36.391817,5.49122398 35.5730994,6.30994152 C34.7153953,7.16764561 34.0721269,8.13254825 33.6432749,9.20467836 C33.2144228,10.2768085 33,11.3732887 33,12.494152 C33,13.6150154 33.2144228,14.7114956 33.6432749,15.7836257 C34.0721269,16.8557558 34.7153953,17.8206585 35.5730994,18.6783626 C35.8070187,18.9317751 36.4843999,19.6725085 37.6052632,20.9005848 C38.7261265,22.1286611 39.9103251,23.4346909 41.1578947,24.8187135 C42.4054643,26.202736 43.5311841,27.4454136 44.5350877,28.5467836 L46.0409357,30.1988304 C46.3138415,30.4717363 46.6159827,30.6764126 46.9473684,30.8128655 C47.2787541,30.9493184 47.6296278,31.0175439 48,31.0175439 C48.3508789,31.0175439 48.6968794,30.9493184 49.0380117,30.8128655 C49.379144,30.6764126 49.6861585,30.4717363 49.9590643,30.1988304 L51.5818713,28.4590643 C52.6637481,27.2992145 53.85282,26.0126776 55.1491228,24.5994152 C56.4454256,23.1861528 57.644244,21.8898694 58.745614,20.7105263 C59.8469841,19.5311832 60.4074073,18.931774 60.4269006,18.9122807 C61.2846047,18.0545766 61.9278731,17.0848007 62.3567251,16.002924 C62.7855772,14.9210472 63,13.824567 63,12.7134503 C63,11.6023336 62.7855772,10.5058534 62.3567251,9.42397661 C61.9278731,8.34209985 61.2846047,7.38207047 60.4269006,6.54385965 C59.5886898,5.68615556 58.6822661,5.04776038 57.7076023,4.62865497 C56.7329386,4.20954956 55.6705711,4 54.5204678,4 C53.4093512,4 52.2738849,4.37036667 51.1140351,5.11111111 C49.9541852,5.85185556 48.9161839,6.6900538 48,7.62573099 C47.0448295,6.6900538 45.9970817,5.85185556 44.8567251,5.11111111 C43.7163686,4.37036667 42.5711558,4 41.4210526,4 Z" id="heart---simple-line-icons"></path>
        </g>
    </g>
</svg>