<?xml version="1.0" encoding="UTF-8"?>
<svg width="212px" height="105px" viewBox="0 0 212 105" version="1.1" xmlns="http://www.w3.org/2000/svg" xmlns:xlink="http://www.w3.org/1999/xlink">
    <title>logo</title>
    <defs>
        <linearGradient x1="23.1914371%" y1="35.501147%" x2="61.88316%" y2="108.188055%" id="linearGradient-1">
            <stop stop-color="#F8592C" offset="0%"></stop>
            <stop stop-color="#FF3D95" offset="100%"></stop>
        </linearGradient>
    </defs>
    <g id="Logo" stroke="none" stroke-width="1" fill="none" fill-rule="evenodd">
        <g id="Ideas" transform="translate(-1892.000000, -344.000000)">
            <g id="logo" transform="translate(1876.000000, 334.000000)">
                <g id="hand/straight-variation-5">
                    <g id="shape" transform="translate(14.000000, -16.000000)">
                        <path d="M104.621973,54.7885082 C116.016579,61.3433317 116.016428,71.970887 104.621973,78.5256239 L43.3225812,113.788508 C31.9279747,120.343332 22.690821,116.703167 22.690821,105.656671 L22.690821,27.6574607 C22.690821,16.6115477 31.9281254,12.970887 43.3225812,19.5256239 L104.621973,54.7885082 Z" id="Triangle" fill="url(#linearGradient-1)" transform="translate(67.929346, 66.657151) rotate(304.000000) translate(-67.929346, -66.657151) "></path>
                        <path d="M60.467589,109.003491 C53.0076611,109.329382 39.0770967,107.203109 36.5380374,106.502285 C35.6943664,106.269322 4.48037092,88.2640201 4.48037092,85.4971347 C4.48037092,82.2531981 3.25160459,81.5912832 5.88972627,78 C15.8317726,90.0452411 44.7802172,77.2528501 47.304726,73.4304943 C50.8532251,68.0527365 50.7187653,68.5915237 54.4691524,63.8377146 C58.0176514,59.3431391 59.9837855,54.4123359 60.3366347,52.8497826 L60.467589,52.2222583 C60.6858463,51.1299012 60.9113788,50 62.7629278,50 C66.3914545,50 68.3503133,54.1173458 68.3503133,57.9933361 C68.3503133,60.3854372 67.4336329,63.6035103 65.5493453,67.8317009 C64.8163647,69.4782817 64.9309498,70.6260611 65.2528792,71.1087721 C65.4129345,71.3501276 65.638467,71.4627601 65.9622153,71.4627601 L80.3981134,71.4627601 C82.1550842,71.661208 85.2725253,73.0074352 85.2725253,76.7153706 C85.2725253,79.1718331 84.3667577,80.541302 83.5119168,81.2868223 C84.3558448,82.0394939 85.2725253,83.3517526 85.2725253,85.4971347 C85.2725253,87.9929292 83.5901256,89.5662094 82.3442405,90.3886059 C82.9880994,91.1126723 83.6137702,92.3319645 83.6137702,94.3378968 C83.6137702,97.1930428 81.1365504,98.6429635 79.5596418,99.2776391 C80.1853126,100.389662 80.3071729,101.701921 79.9943375,103.504042 C79.4559696,106.59518 78.5469365,108.213686 60.467589,109.003491 Z" id="Shape" fill="#FFFFFF"></path>
                    </g>
                </g>
                <path d="M122,23.89 L135.23,23.89 L135.23,73.66 C135.23,75.0400069 135.484997,75.9999973 135.995,76.54 C136.505003,77.0800027 137.029997,77.35 137.57,77.35 L138.335,77.35 C138.545001,77.35 138.829998,77.2900006 139.19,77.17 L140.81,86.98 C140.089996,87.2800015 139.175006,87.534999 138.065,87.745 C136.954994,87.9550011 135.650008,88.06 134.15,88.06 C131.869989,88.06 129.950008,87.7000036 128.39,86.98 C126.829992,86.2599964 125.585005,85.2550065 124.655,83.965 C123.724995,82.6749936 123.050002,81.1150092 122.63,79.285 C122.209998,77.4549909 122,75.4000114 122,73.12 L122,23.89 Z M154.31,35.77 C152.089989,35.77 150.260007,35.1250065 148.82,33.835 C147.379993,32.5449936 146.66,30.8800102 146.66,28.84 C146.66,26.7999898 147.379993,25.1500063 148.82,23.89 C150.260007,22.6299937 152.089989,22 154.31,22 C156.590011,22 158.434993,22.6299937 159.845,23.89 C161.255007,25.1500063 161.96,26.7999898 161.96,28.84 C161.96,30.8800102 161.255007,32.5449936 159.845,33.835 C158.434993,35.1250065 156.590011,35.77 154.31,35.77 Z M147.74,42.34 L160.97,42.34 L160.97,86.98 L147.74,86.98 L147.74,42.34 Z M227.12,86.44 C225.919994,86.8000018 224.510008,87.1599982 222.89,87.52 C221.269992,87.8800018 219.380011,88.06 217.22,88.06 C214.459986,88.06 212.10501,87.6400042 210.155,86.8 C208.20499,85.9599958 206.615006,84.7900075 205.385,83.29 C204.154994,81.7899925 203.255003,79.9750107 202.685,77.845 C202.114997,75.7149894 201.83,73.3600129 201.83,70.78 L201.83,52.69 L188.06,52.69 L188.06,86.98 L174.83,86.98 L174.83,52.69 L168.89,52.69 L168.89,42.88 L174.83,42.43 L174.83,40 C174.83,37.6599883 175.114997,35.4400105 175.685,33.34 C176.255003,31.2399895 177.199993,29.4100078 178.52,27.85 C179.840007,26.2899922 181.54999,25.0600045 183.65,24.16 C185.75001,23.2599955 188.299985,22.81 191.3,22.81 C193.160009,22.81 194.854992,22.9899982 196.385,23.35 C197.915008,23.7100018 199.189995,24.0699982 200.21,24.43 L197.78,34.15 C196.099992,33.549997 194.570007,33.25 193.19,33.25 C191.569992,33.25 190.310005,33.7449951 189.41,34.735 C188.509996,35.725005 188.06,37.3599886 188.06,39.64 L188.06,42.34 L202.55,42.34 L204.08,30.46 L215.06,30.46 L215.06,42.34 L225.77,42.34 L225.77,52.69 L215.06,52.69 L215.06,70.6 C215.06,73.1200126 215.584995,74.9349945 216.635,76.045 C217.685005,77.1550056 219.079991,77.71 220.82,77.71 C221.540004,77.71 222.274996,77.6200009 223.025,77.44 C223.775004,77.2599991 224.449997,77.0500012 225.05,76.81 L227.12,86.44 Z" id="lift" fill="#19202C"></path>
            </g>
        </g>
    </g>
</svg>