<?xml version="1.0" encoding="utf-8"?>
<!-- Generator: Adobe Illustrator 19.0.0, SVG Export Plug-In . SVG Version: 6.00 Build 0)  -->
<svg version="1.1" id="Laag_1" xmlns="http://www.w3.org/2000/svg" xmlns:xlink="http://www.w3.org/1999/xlink" x="0px" y="0px"
	 viewBox="-412 290.3 16 16" style="enable-background:new -412 290.3 16 16;" xml:space="preserve">
<style type="text/css">
	.st0{fill:#5E6068;}
</style>
<title>add_circle_outline - material</title>
<desc>Created with Sketch.</desc>
<g id="Symbols">
	<g id="main-menu-bottom" transform="translate(-152.000000, -12.000000)">
		<g id="add_circle_outline---material">
			<path class="st0" d="M-252,316c1.1,0,2.1-0.3,3-0.8c0.9-0.5,1.6-1.2,2.2-2.2c0.6-0.9,0.8-1.9,0.8-3c0-1.1-0.3-2.1-0.8-3
				c-0.5-0.9-1.2-1.6-2.2-2.2c-0.9-0.6-1.9-0.8-3-0.8s-2.1,0.3-3,0.8c-0.9,0.5-1.6,1.2-2.2,2.2c-0.6,0.9-0.8,1.9-0.8,3
				c0,1.1,0.3,2.1,0.8,3c0.5,0.9,1.2,1.6,2.2,2.2C-254.1,315.7-253.1,316-252,316z M-252,302.5c1.4,0,2.6,0.3,3.8,1
				c1.1,0.6,2,1.5,2.7,2.7c0.7,1.2,1,2.4,1,3.8c0,1.4-0.3,2.6-1,3.8c-0.6,1.1-1.5,2-2.7,2.7c-1.2,0.7-2.4,1-3.8,1s-2.6-0.3-3.8-1
				c-1.1-0.7-2-1.6-2.7-2.7c-0.7-1.2-1-2.4-1-3.8c0-1.4,0.3-2.6,1-3.8c0.7-1.1,1.6-2,2.7-2.7C-254.6,302.8-253.4,302.5-252,302.5z
				 M-251.3,306.2v3h3v1.5h-3v3h-1.5v-3h-3v-1.5h3v-3H-251.3z"/>
		</g>
	</g>
</g>
</svg>
