<?xml version="1.0" encoding="utf-8"?>
<!-- Generator: Adobe Illustrator 19.0.0, SVG Export Plug-In . SVG Version: 6.00 Build 0)  -->
<svg version="1.1" xmlns="http://www.w3.org/2000/svg" xmlns:xlink="http://www.w3.org/1999/xlink" x="0px" y="0px"
	 viewBox="-21 23 16 16" style="enable-background:new -21 23 16 16;" xml:space="preserve">
<style type="text/css">
	.st0{display:none;}
	.st1{display:inline;}
	.st2{fill:#5E6068;}
</style>
<g id="Laag_1" class="st0">
	<title>star - simple-line-icons</title>
	<desc>Created with Sketch.</desc>
	<g id="Symbols" class="st1">
		<g id="main-menu-bottom" transform="translate(-88.000000, -11.000000)">
			<g id="star---simple-line-icons">
				<path class="st2" d="M74.8,35.6L73,39.3L72.7,40L68,40.7l3.4,3.4l-0.1,0.7l-0.7,4.1l4.2-2.2l4.2,2.2l-0.7-4.1l-0.1-0.7l3.4-3.4
					L76.8,40L74.8,35.6z M74.8,34.7c0.1,0,0.1,0,0.2,0s0.1,0,0.2,0s0.1,0,0.1,0.1s0.1,0,0.1,0.1s0.1,0.1,0.1,0.1s0.1,0.1,0.1,0.1
					s0.1,0.1,0.1,0.1s0.1,0.1,0.1,0.1l1.8,3.6l4,0.6c0.2,0,0.4,0.1,0.5,0.2s0.3,0.3,0.3,0.5c0.1,0.4,0.1,0.8-0.3,1.1l-3,3l0.7,4.1
					c0,0.2,0,0.4-0.1,0.6s-0.2,0.3-0.4,0.5c-0.2,0.1-0.4,0.2-0.7,0.2c-0.1,0-0.2,0-0.3,0s-0.2-0.1-0.3-0.1l-3.5-1.9l-3.5,1.9
					c-0.2,0.1-0.3,0.1-0.5,0.1h-0.1c0,0-0.1,0-0.1,0l-0.1,0c0,0-0.1,0-0.1,0s-0.1,0-0.1-0.1s-0.1,0-0.1-0.1
					c-0.2-0.1-0.3-0.3-0.4-0.5s-0.1-0.4-0.1-0.6l0.7-4.1l-3-3c-0.3-0.3-0.4-0.7-0.3-1.1c0.1-0.2,0.2-0.4,0.3-0.5s0.3-0.2,0.5-0.2
					l4-0.6l1.8-3.6c0.1-0.2,0.2-0.3,0.4-0.5S74.5,34.7,74.8,34.7z"/>
			</g>
		</g>
	</g>
</g>
<g id="Laag_2">
	<g id="Feed-page">
		<g id="iPhone-5_x2F_SE---Keuze-vraag-stellen" transform="translate(-268.000000, -11.000000)">
			<g id="Group-2" transform="translate(197.000000, 11.000000)">
				<path id="_xE01C_" class="st2" d="M57.9,39c-0.9,0-1.8-0.2-2.6-0.5c-0.8-0.3-1.5-0.7-2-1.3c-0.6-0.6-1-1.2-1.3-2
					c-0.3-0.8-0.5-1.6-0.5-2.5c0-0.5,0.1-1,0.2-1.4c0.1-0.5,0.3-0.9,0.4-1.3s0.3-0.7,0.4-0.9c0.1-0.2,0.2-0.4,0.2-0.4
					c0-0.1,0.1-0.2,0.2-0.2s0.2-0.1,0.3,0c0.1,0,0.2,0,0.3,0.1c0.1,0.1,0.1,0.1,0.1,0.2c0,0,0.1,0.2,0.2,0.7
					c0.1,0.4,0.3,0.8,0.5,1.1c0.1,0.2,0.3,0.4,0.4,0.6c0.1,0.2,0.3,0.3,0.4,0.4c-0.1-0.5-0.2-1-0.2-1.7s0-1.3,0.1-2.1
					c0.2-1,0.5-1.8,0.9-2.4s0.8-1.1,1.3-1.5c0.4-0.4,0.8-0.6,1.2-0.8C58.8,23.1,59,23,59,23c0.1,0,0.2,0,0.3,0
					c0.1,0,0.2,0.1,0.2,0.1c0.1,0.1,0.1,0.1,0.1,0.2c0,0.1,0,0.2,0,0.3l-0.1,0.5c0,0.3-0.1,0.7-0.1,1.2c0,0.5,0.1,1,0.1,1.6
					s0.3,1.2,0.5,1.8c0.1,0.1,0.1,0.2,0.2,0.3c0.1,0.1,0.1,0.2,0.2,0.4c0-0.2,0-0.3,0.1-0.5s0.1-0.4,0.1-0.5
					c0.2-0.7,0.5-1.2,0.9-1.4c0.4-0.3,0.6-0.4,0.6-0.4c0.1,0,0.2-0.1,0.3,0c0.1,0,0.2,0,0.2,0.1c0.1,0.1,0.1,0.1,0.2,0.2
					c0,0.1,0,0.2,0,0.3c0,0,0,0.2,0,0.7s0.2,1,0.6,1.6c0.4,0.6,0.6,1.1,0.7,1.6s0.2,1.1,0.2,1.9c0,0.9-0.2,1.7-0.5,2.5
					c-0.3,0.8-0.8,1.4-1.4,2c-0.6,0.6-1.3,1-2.1,1.3C59.8,38.8,58.9,39,57.9,39z M53.1,30.3c-0.1,0.3-0.3,0.7-0.4,1.2
					c-0.1,0.4-0.2,0.9-0.2,1.3c0,0.8,0.1,1.5,0.4,2.1c0.3,0.6,0.6,1.2,1.1,1.7c0.5,0.5,1.1,0.8,1.7,1.1c0.7,0.3,1.4,0.4,2.2,0.4
					c0.8,0,1.6-0.1,2.2-0.4c0.7-0.3,1.3-0.6,1.8-1.1c0.5-0.5,0.9-1,1.2-1.7c0.3-0.6,0.4-1.3,0.4-2.1c0-0.6-0.1-1.2-0.2-1.6
					c-0.1-0.4-0.3-0.9-0.6-1.4c-0.2-0.4-0.4-0.7-0.5-1C62.1,28.5,62,28.3,62,28c-0.1,0.1-0.1,0.2-0.1,0.3c0,0.1-0.1,0.2-0.1,0.3
					c-0.1,0.5-0.2,1.1-0.2,1.6v0.8c0,0.1,0,0.2-0.1,0.3c-0.1,0.1-0.1,0.2-0.3,0.2c-0.1,0-0.2,0-0.3,0c-0.1,0-0.2-0.1-0.3-0.2
					c0,0-0.2-0.3-0.5-0.8s-0.6-1-0.8-1.4c-0.2-0.4-0.4-0.9-0.5-1.3c-0.1-0.4-0.2-0.9-0.2-1.3s-0.1-0.8-0.1-1.2c0-0.4,0-0.7,0-1
					c-0.4,0.2-0.9,0.6-1.4,1.2c-0.5,0.6-0.9,1.4-1.1,2.5c-0.1,0.5-0.1,1.1-0.1,1.6s0.1,1,0.1,1.4c0.1,0.4,0.1,0.7,0.2,1l0.1,0.4
					c0,0.1,0,0.2,0,0.3c0,0.1-0.1,0.2-0.1,0.3c-0.1,0.1-0.1,0.1-0.2,0.1c-0.1,0-0.2,0-0.3,0c0,0-0.3-0.1-0.9-0.4
					c-0.6-0.2-1.1-0.7-1.5-1.4c-0.1-0.1-0.1-0.3-0.2-0.4C53.2,30.6,53.1,30.5,53.1,30.3z"/>
			</g>
		</g>
	</g>
</g>
</svg>
