<?xml version="1.0" encoding="UTF-8"?>
<svg width="14px" height="14px" viewBox="0 0 14 14" version="1.1" xmlns="http://www.w3.org/2000/svg" xmlns:xlink="http://www.w3.org/1999/xlink">
    <!-- Generator: Sketch 43.1 (39012) - http://www.bohemiancoding.com/sketch -->
    <title>ion-ios-search-strong - Ionicons</title>
    <desc>Created with Sketch.</desc>
    <defs></defs>
    <g id="Symbols" stroke="none" stroke-width="1" fill="none" fill-rule="evenodd">
        <g id="main-menu-bottom" transform="translate(-217.000000, -13.000000)" fill="#5E6068">
            <g id="ion-ios-search-strong---Ionicons">
                <path d="M227.117188,21.5800781 L226.972656,21.8330078 L230.875,25.7714844 L229.646484,27 L225.744141,23.0615234 L225.491211,23.2421875 C224.527664,23.8444041 223.528,24.1455078 222.492188,24.1455078 C220.974602,24.1455078 219.679856,23.603521 218.60791,22.5195312 C217.535965,21.4355415 217,20.1347732 217,18.6171875 C217,17.0996018 217.535965,15.8048556 218.60791,14.7329102 C219.679856,13.6609647 220.974602,13.125 222.492188,13.125 C224.009773,13.125 225.304519,13.6609647 226.376465,14.7329102 C227.44841,15.8048556 227.984375,17.0996018 227.984375,18.6171875 C227.984375,19.6770886 227.695315,20.664709 227.117188,21.5800781 Z M225.563477,15.5458984 C224.720373,14.7027953 223.696621,14.28125 222.492188,14.28125 C221.287754,14.28125 220.264002,14.7027953 219.420898,15.5458984 C218.577795,16.3890016 218.15625,17.4127544 218.15625,18.6171875 C218.15625,19.8216206 218.577795,20.8453734 219.420898,21.6884766 C220.264002,22.5315797 221.287754,22.953125 222.492188,22.953125 C223.696621,22.953125 224.720373,22.5315797 225.563477,21.6884766 C226.430668,20.8212847 226.864258,19.7975319 226.864258,18.6171875 C226.864258,17.4368431 226.430668,16.4130903 225.563477,15.5458984 Z"></path>
            </g>
        </g>
    </g>
</svg>