<?xml version="1.0" encoding="utf-8"?>
<!-- Generator: Adobe Illustrator 19.0.0, SVG Export Plug-In . SVG Version: 6.00 Build 0)  -->
<svg version="1.1" id="Laag_1" xmlns="http://www.w3.org/2000/svg" xmlns:xlink="http://www.w3.org/1999/xlink" x="0px" y="0px"
	 viewBox="-41.9 46.2 16 15.4" style="enable-background:new -41.9 46.2 16 15.4;" xml:space="preserve">
<style type="text/css">
	.st0{fill:#5E6068;}
</style>
<title>home - simple-line-icons</title>
<desc>Created with Sketch.</desc>
<g id="Feed-page">
	<g id="iPhone-5_x2F_SE---Keuze-vraag-stellen" transform="translate(-104.000000, -13.000000)">
		<g id="Group" transform="translate(34.000000, 11.000000)">
			<path id="star---simple-line-icons" class="st0" d="M36,49.2L34.2,53l-0.3,0.7L29,54.4l3.5,3.5l-0.1,0.7l-0.7,4.2l4.3-2.3
				l4.3,2.3l-0.7-4.2l-0.1-0.7l3.5-3.5l-4.9-0.7L36,49.2z M36,48.2c0.2,0,0.4,0.1,0.6,0.2s0.3,0.3,0.4,0.5l1.8,3.8l4.2,0.6
				c0.2,0,0.4,0.1,0.6,0.2c0.2,0.1,0.3,0.3,0.4,0.5c0.1,0.2,0.1,0.4,0,0.6s-0.1,0.4-0.3,0.5l-3,3l0.7,4.2c0,0.2,0,0.4-0.1,0.6
				c-0.1,0.2-0.2,0.4-0.4,0.5c-0.1,0.1-0.2,0.1-0.3,0.2c-0.1,0-0.2,0-0.3,0s-0.2,0-0.3,0s-0.2-0.1-0.3-0.1l-3.6-2l-3.6,2
				c-0.1,0.1-0.2,0.1-0.3,0.1s-0.2,0-0.3,0s-0.2,0-0.4,0s-0.2-0.1-0.3-0.2c-0.2-0.1-0.3-0.3-0.4-0.5c-0.1-0.2-0.1-0.4-0.1-0.6
				l0.7-4.2l-3-3c-0.2-0.2-0.3-0.3-0.3-0.5s0-0.4,0-0.6c0.1-0.2,0.2-0.4,0.4-0.5c0.2-0.1,0.4-0.2,0.6-0.3l4.2-0.6l1.8-3.8
				c0.1-0.2,0.2-0.4,0.4-0.5S35.8,48.2,36,48.2z"/>
		</g>
	</g>
</g>
</svg>
