<?xml version="1.0" encoding="UTF-8"?>
<svg width="32px" height="30px" viewBox="0 0 32 30" version="1.1" xmlns="http://www.w3.org/2000/svg" xmlns:xlink="http://www.w3.org/1999/xlink">
    <!-- Generator: Sketch 44 (41411) - http://www.bohemiancoding.com/sketch -->
    <title>Group 2</title>
    <desc>Created with Sketch.</desc>
    <defs></defs>
    <g id="Symbols" stroke="none" stroke-width="1" fill="none" fill-rule="evenodd">
        <g id="gold" transform="translate(-32.000000, -2.000000)" fill-rule="nonzero" fill="#E9C366">
            <g id="Group-2" transform="translate(32.000000, 2.000000)">
                <path d="M21.769361,28.4362855 C21.754051,28.4311622 20.180582,27.8991391 19.1513503,26.8703572 C18.1311715,25.8506242 17.6136934,24.8394078 17.6136934,23.865119 L17.6136934,13.6451667 C17.6136934,13.528795 17.6375238,12.5095943 18.4657284,12.5095943 C19.0751997,12.5095943 19.3160327,13.6900121 19.3194941,13.6894132 L19.8874952,21.0699355 C19.9113256,21.3816573 20.1800494,21.6178606 20.4975656,21.5923107 C20.8099563,21.5684908 21.0445987,21.2953599 21.0201693,20.982507 L20.445911,13.5514838 C20.3113161,12.7430031 19.7427159,11.3740884 18.465795,11.3740884 C16.8929251,11.3740884 16.4776911,12.8599736 16.4776911,13.6451667 L16.4776911,23.865119 C16.4776911,25.1517285 17.1070654,26.4326159 18.3481742,27.6731824 C19.5648536,28.8899289 21.3354222,29.4889539 21.4103747,29.5139049 C21.4700171,29.5337992 21.5307912,29.5428481 21.5898345,29.5428481 C21.8278718,29.5428481 22.0494009,29.3924099 22.1288798,29.1544766 C22.2283283,28.8570601 22.0670407,28.5356905 21.769361,28.4362855 Z" id="Shape"></path>
                <path d="M13.353585,11.3740884 C12.0766641,11.3740884 11.5080639,12.7430031 11.3672119,13.6014524 L10.7992107,20.982507 C10.7747813,21.2953599 11.0093572,21.5684243 11.3218144,21.5923107 C11.628547,21.6155984 11.9079878,21.3822561 11.9318847,21.0699355 L12.4936288,13.7388496 C12.495892,13.7263408 12.7373241,12.5095943 13.353585,12.5095943 C14.1527672,12.5095943 14.2038893,13.4578009 14.20562,13.6451667 L14.20562,23.865119 C14.20562,24.8394078 13.6881419,25.8506242 12.6679631,26.8703572 C11.6443895,27.8934836 10.0647299,28.4311622 10.0493534,28.4368178 C9.75227273,28.5367551 9.59151769,28.8581246 9.69089958,29.1550755 C9.77044504,29.3924099 9.99197413,29.5428481 10.2294123,29.5428481 C10.2890548,29.5428481 10.3492963,29.5332004 10.4089388,29.5139049 C10.4838912,29.4889539 12.2544599,28.8899289 13.4711392,27.6731824 C14.712248,26.4326159 15.3416223,25.151662 15.3416223,23.865119 L15.3416223,13.6451667 C15.3416223,12.8599736 14.9263884,11.3740884 13.353585,11.3740884 Z" id="Shape"></path>
                <path d="M31.5871339,28.5209194 L24.7645968,23.4064188 C24.4050114,23.1441333 24.0159376,22.215821 23.8557817,21.5100721 L22.1465862,10.127334 C22.0227748,9.50735019 21.9057531,8.90772642 21.7927254,8.33092455 C20.7794028,3.14769209 20.1676017,0.0186966576 18.1818277,0.0186966576 C16.987248,0.0186966576 16.4777577,0.527964334 16.4777577,1.72202205 C16.4777577,2.86611111 17.0241917,9.97975684 17.0474895,10.2823632 C17.0713199,10.5940851 17.3451027,10.8285585 17.6575599,10.8047385 C17.9699506,10.7809186 18.204593,10.5077877 18.1801636,10.1949347 C18.1745055,10.1211462 17.6138266,2.82292915 17.6138266,1.72202205 C17.6138266,1.1542691 17.6246101,1.1542691 18.1818277,1.1542691 C19.232094,1.1542691 19.9341575,4.74602344 20.6782902,8.54896351 C20.7907855,9.12696303 20.9083397,9.7282502 21.0282237,10.3226841 L22.7396824,21.7190621 C22.7845474,21.9166745 23.201512,23.672763 24.0892925,24.3194944 L30.9055725,29.4294705 C31.0078167,29.5061202 31.1276341,29.5430478 31.2457874,29.5430478 C31.4184576,29.5430478 31.5894637,29.4646682 31.7007607,29.3159599 C31.888741,29.0648525 31.8381514,28.7088175 31.5871339,28.5209194 Z" id="Shape"></path>
                <path d="M13.6375523,0.0185635853 C11.6517117,0.0185635853 11.0399772,3.14755902 10.0266546,8.33079148 C9.91362685,8.90765989 9.79660517,9.50721711 9.66766831,10.1544808 L7.96186763,21.5230466 C7.87213769,22.2299267 7.43134272,23.1690178 7.04845949,23.4108767 L0.232179536,28.5208529 C-0.0189045264,28.7088175 -0.069427539,29.0647859 0.118552682,29.3157603 C0.229916318,29.4645351 0.400855839,29.5428481 0.573526056,29.5428481 C0.691679346,29.5428481 0.811496767,29.5059206 0.913740966,29.4292709 L7.69028148,24.3465746 C8.47475276,23.8566024 8.98876949,22.4570145 9.08701978,21.6780093 L10.7859642,10.3497644 C10.9109072,9.72805059 11.028528,9.12676342 11.1409566,8.5487639 C11.8850894,4.74582383 12.5871529,1.15406949 13.6374192,1.15406949 C14.1946367,1.15406949 14.2054203,1.15406949 14.2054203,1.72182244 C14.2054203,2.82272954 13.6448079,10.1209465 13.6390833,10.1947351 C13.6146539,10.5075881 13.8492297,10.7806525 14.161687,10.8045389 C14.4706828,10.8278266 14.7473279,10.5944843 14.7717573,10.2821636 C14.7950552,9.97955723 15.3414892,2.8659115 15.3414892,1.72182244 C15.3416223,0.527897798 14.832132,0.0185635853 13.6375523,0.0185635853 Z" id="Shape"></path>
            </g>
        </g>
    </g>
</svg>