<?xml version="1.0" encoding="UTF-8"?>
<svg width="30px" height="30px" viewBox="0 0 30 30" version="1.1" xmlns="http://www.w3.org/2000/svg" xmlns:xlink="http://www.w3.org/1999/xlink">
    <!-- Generator: Sketch 44 (41411) - http://www.bohemiancoding.com/sketch -->
    <title>Group</title>
    <desc>Created with Sketch.</desc>
    <defs></defs>
    <g id="Symbols" stroke="none" stroke-width="1" fill="none" fill-rule="evenodd">
        <g id="lightblue" transform="translate(-33.000000, -3.000000)" fill-rule="nonzero" fill="#0dbed3">
            <g id="Group" transform="translate(33.000000, 3.000000)">
                <path d="M14.7628258,29.5433518 C6.62002305,29.5433518 0,22.9193601 0,14.7716759 C0,6.62399167 6.62002305,0 14.7628258,0 C22.9056285,0 29.5256515,6.62399167 29.5256515,14.7716759 C29.5256515,22.9193601 22.9056285,29.5433518 14.7628258,29.5433518 Z M14.7628258,0.95376175 C7.14892743,0.95376175 0.953190324,7.15321313 0.953190324,14.7716759 C0.953190324,22.3901386 7.14892743,28.58959 14.7628258,28.58959 C22.3767241,28.58959 28.5724612,22.3901386 28.5724612,14.7716759 C28.5724612,7.15321313 22.3767241,0.95376175 14.7628258,0.95376175 Z" id="Shape"></path>
                <path d="M14.7628258,29.5433518 C9.77601296,29.5433518 5.71332981,22.9193601 5.71332981,14.7716759 C5.71332981,6.62399167 9.77601296,0 14.7628258,0 C19.7496385,0 23.8123217,6.62399167 23.8123217,14.7716759 C23.8123217,22.9193601 19.7496385,29.5433518 14.7628258,29.5433518 Z M14.7628258,0.95376175 C10.2991052,0.95376175 6.66652013,7.15321313 6.66652013,14.7716759 C6.66652013,22.3901386 10.2991052,28.58959 14.7628258,28.58959 C19.2265463,28.58959 22.8591314,22.3901386 22.8591314,14.7716759 C22.8591314,7.15321313 19.2265463,0.95376175 14.7628258,0.95376175 Z" id="Shape"></path>
                <path d="M14.7628258,29.5433518 C14.5012796,29.5433518 14.2862306,29.3281738 14.2862306,29.0664709 L14.2862306,0.476880875 C14.2862306,0.215177956 14.5012796,0 14.7628258,0 C15.0243719,0 15.2394209,0.215177956 15.2394209,0.476880875 L15.2394209,29.0664709 C15.2394209,29.3281738 15.0243719,29.5433518 14.7628258,29.5433518 Z" id="Shape"></path>
                <path d="M29.0490563,15.2485568 L0.476595162,15.2485568 C0.215049037,15.2485568 0,15.0333788 0,14.7716759 C0,14.509973 0.215049037,14.294795 0.476595162,14.294795 L29.0490563,14.294795 C29.3106025,14.294795 29.5256515,14.509973 29.5256515,14.7716759 C29.5256515,15.0333788 29.3106025,15.2485568 29.0490563,15.2485568 Z" id="Shape"></path>
                <path d="M26.8462568,22.8728351 L2.67939475,22.8728351 C2.41784863,22.8728351 2.20279959,22.6576572 2.20279959,22.3959543 C2.20279959,22.1342513 2.41784863,21.9190734 2.67939475,21.9190734 L26.8462568,21.9190734 C27.1078029,21.9190734 27.3228519,22.1342513 27.3228519,22.3959543 C27.3228519,22.6576572 27.1078029,22.8728351 26.8462568,22.8728351 Z" id="Shape"></path>
                <path d="M26.8462568,7.62427838 L2.67939475,7.62427838 C2.41784863,7.62427838 2.20279959,7.40910043 2.20279959,7.14739751 C2.20279959,6.88569459 2.41784863,6.67051663 2.67939475,6.67051663 L26.8462568,6.67051663 C27.1078029,6.67051663 27.3228519,6.88569459 27.3228519,7.14739751 C27.3228519,7.40910043 27.1078029,7.62427838 26.8462568,7.62427838 Z" id="Shape"></path>
            </g>
        </g>
    </g>
</svg>