<?xml version="1.0" encoding="UTF-8"?>
<svg width="34px" height="30px" viewBox="0 0 34 30" version="1.1" xmlns="http://www.w3.org/2000/svg" xmlns:xlink="http://www.w3.org/1999/xlink">
    <!-- Generator: Sketch 44 (41411) - http://www.bohemiancoding.com/sketch -->
    <title>Shape</title>
    <desc>Created with Sketch.</desc>
    <defs></defs>
    <g id="Symbols" stroke="none" stroke-width="1" fill="none" fill-rule="evenodd">
        <g id="blue" transform="translate(-31.000000, -2.000000)" fill-rule="nonzero" fill="#4A90E2">
            <path d="M62.2787186,7.32322553 L56.4947729,7.32322553 L56.4947729,4.65207556 C56.4947729,3.18958244 55.3051904,2 53.8426973,2 L42.08773,2 C40.6256037,2 39.4360213,3.18958244 39.4360213,4.65207556 L39.4360213,7.32322553 L33.6517087,7.32322553 C32.1895824,7.32322553 31,8.51280797 31,9.97493428 L31,29.3479244 C31,30.8104176 32.1895824,32 33.6517087,32 L62.2783518,32 C63.7404781,32 64.9300605,30.8104176 64.9300605,29.3479244 L64.9300605,9.97530109 C64.9304273,8.51280797 63.7408449,7.32322553 62.2787186,7.32322553 Z M41.2697316,4.65207556 C41.2697316,4.2012594 41.636547,3.83407715 42.0873632,3.83407715 L53.8423305,3.83407715 C54.2931467,3.83407715 54.6603289,4.2012594 54.6603289,4.65207556 L54.6603289,7.32322553 L41.2697316,7.32322553 L41.2697316,4.65207556 Z M33.6517087,9.15730268 L62.2783518,9.15730268 C62.7291679,9.15730268 63.0959834,9.52411811 63.0959834,9.97493428 L63.0959834,16.4448248 L56.4947729,16.4448248 L56.4947729,14.7229932 C56.4947729,14.2164211 56.0843064,13.8059546 55.5777343,13.8059546 C55.0711622,13.8059546 54.6606957,14.2164211 54.6606957,14.7229932 L54.6606957,16.4448248 L41.2697316,16.4448248 L41.2697316,14.7229932 C41.2697316,14.2164211 40.8592651,13.8059546 40.352693,13.8059546 C39.8461209,13.8059546 39.4356545,14.2164211 39.4356545,14.7229932 L39.4356545,16.4448248 L32.8340772,16.4448248 L32.8340772,9.97530109 C32.8340772,9.52411811 33.2008926,9.15730268 33.6517087,9.15730268 Z M62.2787186,30.1666565 L33.6517087,30.1666565 C33.2008926,30.1666565 32.8340772,29.7994742 32.8340772,29.3486581 L32.8340772,18.278902 L39.4356545,18.278902 L39.4356545,20.18084 C39.4356545,20.6874121 39.8461209,21.0978786 40.352693,21.0978786 C40.8592651,21.0978786 41.2697316,20.6874121 41.2697316,20.18084 L41.2697316,18.278902 L54.6606957,18.278902 L54.6606957,20.18084 C54.6606957,20.6874121 55.0711622,21.0978786 55.5777343,21.0978786 C56.0843064,21.0978786 56.4947729,20.6874121 56.4947729,20.18084 L56.4947729,18.278902 L63.0963502,18.278902 L63.0963502,29.3482913 C63.0963502,29.7994742 62.7295348,30.1666565 62.2787186,30.1666565 Z" id="Shape"></path>
        </g>
    </g>
</svg>