<?xml version="1.0" encoding="UTF-8"?>
<svg width="228px" height="102px" viewBox="0 0 228 102" version="1.1" xmlns="http://www.w3.org/2000/svg" xmlns:xlink="http://www.w3.org/1999/xlink">
    <!-- Generator: Sketch 41.2 (35397) - http://www.bohemiancoding.com/sketch -->
    <title>logo/default</title>
    <desc>Created with Sketch.</desc>
    <defs>
        <linearGradient x1="22.0697485%" y1="62.1990506%" x2="101.935586%" y2="76.2432257%" id="linearGradient-1">
            <stop stop-color="#F8592C" offset="0%"></stop>
            <stop stop-color="#FF3D95" offset="100%"></stop>
        </linearGradient>
    </defs>
    <g id="Symbols" stroke="none" stroke-width="1" fill="none" fill-rule="evenodd">
        <g id="logo/default">
            <g id="logo">
                <g id="hand/straight-variation-5" fill="url(#linearGradient-1)">
                    <g id="shape">
                        <path d="M43.7018698,80.2622268 L66.8097703,98.3160974 C75.5145275,105.116999 84.0699763,100.079132 85.9199251,87.0645072 L95.8720668,17.0499282 C97.7219911,4.03547558 89.347456,-2.50761959 77.1669643,2.43590056 L11.6397586,29.0304807 C0.492908364,33.5544918 -2.81310997,41.9117984 3.37745814,48.509657 C14.1582821,58.708714 40.8665898,49.1220734 43.304726,45.4304943 C46.8532251,40.0527365 46.7187653,40.5915237 50.4691524,35.8377146 C54.0176514,31.3431391 55.9837855,26.4123359 56.3366347,24.8497826 L56.467589,24.2222583 C56.6858463,23.1299012 56.9113788,22 58.7629278,22 C62.3914545,22 64.3503133,26.1173458 64.3503133,29.9933361 C64.3503133,32.3854372 63.4336329,35.6035103 61.5493453,39.8317009 C60.8163647,41.4782817 60.9309498,42.6260611 61.2528792,43.1087721 C61.4129345,43.3501276 61.638467,43.4627601 61.9622153,43.4627601 L76.3981134,43.4627601 C78.1550842,43.661208 81.2725253,45.0074352 81.2725253,48.7153706 C81.2725253,51.1718331 80.3667577,52.541302 79.5119168,53.2868223 C80.3558448,54.0394939 81.2725253,55.3517526 81.2725253,57.4971347 C81.2725253,59.9929292 79.5901256,61.5662094 78.3442405,62.3886059 C78.9880994,63.1126723 79.6137702,64.3319645 79.6137702,66.3378968 C79.6137702,69.1930428 77.1365504,70.6429635 75.5596418,71.2776391 C76.1853126,72.3896621 76.3071729,73.7019208 75.9943375,75.5040418 C75.4559696,78.5951799 74.5469365,80.213686 56.467589,81.0034912 C53.0096531,81.1545528 48.1614072,80.7787317 43.7018698,80.2622268 Z" id="Combined-Shape"></path>
                    </g>
                </g>
                <path d="M122,20.89 L135.23,20.89 L135.23,70.66 C135.23,72.0400069 135.484997,72.9999973 135.995,73.54 C136.505003,74.0800027 137.029997,74.35 137.57,74.35 L138.335,74.35 C138.545001,74.35 138.829998,74.2900006 139.19,74.17 L140.81,83.98 C140.089996,84.2800015 139.175006,84.534999 138.065,84.745 C136.954994,84.9550011 135.650008,85.06 134.15,85.06 C131.869989,85.06 129.950008,84.7000036 128.39,83.98 C126.829992,83.2599964 125.585005,82.2550065 124.655,80.965 C123.724995,79.6749936 123.050002,78.1150092 122.63,76.285 C122.209998,74.4549909 122,72.4000114 122,70.12 L122,20.89 Z M154.31,32.77 C152.089989,32.77 150.260007,32.1250065 148.82,30.835 C147.379993,29.5449936 146.66,27.8800102 146.66,25.84 C146.66,23.7999898 147.379993,22.1500063 148.82,20.89 C150.260007,19.6299937 152.089989,19 154.31,19 C156.590011,19 158.434993,19.6299937 159.845,20.89 C161.255007,22.1500063 161.96,23.7999898 161.96,25.84 C161.96,27.8800102 161.255007,29.5449936 159.845,30.835 C158.434993,32.1250065 156.590011,32.77 154.31,32.77 Z M147.74,39.34 L160.97,39.34 L160.97,83.98 L147.74,83.98 L147.74,39.34 Z M227.12,83.44 C225.919994,83.8000018 224.510008,84.1599982 222.89,84.52 C221.269992,84.8800018 219.380011,85.06 217.22,85.06 C214.459986,85.06 212.10501,84.6400042 210.155,83.8 C208.20499,82.9599958 206.615006,81.7900075 205.385,80.29 C204.154994,78.7899925 203.255003,76.9750107 202.685,74.845 C202.114997,72.7149894 201.83,70.3600129 201.83,67.78 L201.83,49.69 L188.06,49.69 L188.06,83.98 L174.83,83.98 L174.83,49.69 L168.89,49.69 L168.89,39.88 L174.83,39.43 L174.83,37 C174.83,34.6599883 175.114997,32.4400105 175.685,30.34 C176.255003,28.2399895 177.199993,26.4100078 178.52,24.85 C179.840007,23.2899922 181.54999,22.0600045 183.65,21.16 C185.750011,20.2599955 188.299985,19.81 191.3,19.81 C193.160009,19.81 194.854992,19.9899982 196.385,20.35 C197.915008,20.7100018 199.189995,21.0699982 200.21,21.43 L197.78,31.15 C196.099992,30.549997 194.570007,30.25 193.19,30.25 C191.569992,30.25 190.310005,30.7449951 189.41,31.735 C188.509996,32.725005 188.06,34.3599886 188.06,36.64 L188.06,39.34 L202.55,39.34 L204.08,27.46 L215.06,27.46 L215.06,39.34 L225.77,39.34 L225.77,49.69 L215.06,49.69 L215.06,67.6 C215.06,70.1200126 215.584995,71.9349945 216.635,73.045 C217.685005,74.1550056 219.079991,74.71 220.82,74.71 C221.540004,74.71 222.274996,74.6200009 223.025,74.44 C223.775004,74.2599991 224.449997,74.0500012 225.05,73.81 L227.12,83.44 Z" id="lift" fill="#19202C"></path>
            </g>
        </g>
    </g>
</svg>