<?xml version="1.0" encoding="UTF-8"?>
<svg width="28px" height="29px" viewBox="0 0 28 29" version="1.1" xmlns="http://www.w3.org/2000/svg" xmlns:xlink="http://www.w3.org/1999/xlink">
    <!-- Generator: Sketch 44 (41411) - http://www.bohemiancoding.com/sketch -->
    <title>clock - simple-line-icons</title>
    <desc>Created with Sketch.</desc>
    <defs></defs>
    <g id="Symbols" stroke="none" stroke-width="1" fill="none" fill-rule="evenodd">
        <g id="grey" transform="translate(-33.000000, -2.000000)" fill="#5E6068">
            <path d="M54.0273438,4.74804688 C56.1783962,5.99675104 57.878249,7.69660383 59.1269531,9.84765625 C60.3756573,11.9987087 61,14.3411332 61,16.875 C61,19.4088668 60.3756573,21.7512913 59.1269531,23.9023438 C57.878249,26.0533962 56.1783962,27.753249 54.0273438,29.0019531 C51.8762913,30.2506573 49.5338668,30.875 47,30.875 C44.4661332,30.875 42.1237087,30.2506573 39.9726562,29.0019531 C37.8216038,27.753249 36.121751,26.0533962 34.8730469,23.9023438 C33.6243427,21.7512913 33,19.4088668 33,16.875 C33,14.3411332 33.6243427,11.9987087 34.8730469,9.84765625 C36.121751,7.69660383 37.8216038,5.99675104 39.9726562,4.74804688 C42.1237087,3.49934271 44.4661332,2.875 47,2.875 C49.5338668,2.875 51.8762913,3.49934271 54.0273438,4.74804688 Z M47,29.1523438 C48.6588625,29.1523438 50.2447841,28.8287793 51.7578125,28.1816406 C53.2708409,27.534502 54.5742133,26.6595107 55.6679688,25.5566406 C56.7617242,24.4537705 57.6321582,23.1458409 58.2792969,21.6328125 C58.9264355,20.1197841 59.25,18.5338625 59.25,16.875 C59.25,15.2161375 58.9264355,13.6302159 58.2792969,12.1171875 C57.6321582,10.6041591 56.7617242,9.30078672 55.6679688,8.20703125 C54.5742133,7.11327578 53.2708409,6.24284178 51.7578125,5.59570312 C50.2447841,4.94856447 48.6588625,4.625 47,4.625 C45.3411375,4.625 43.7552159,4.94856447 42.2421875,5.59570312 C40.7291591,6.24284178 39.4257867,7.11327578 38.3320312,8.20703125 C37.2382758,9.30078672 36.3678418,10.6041591 35.7207031,12.1171875 C35.0735645,13.6302159 34.75,15.2161375 34.75,16.875 C34.75,18.2057358 34.9550761,19.4954365 35.3652344,20.7441406 C35.7753927,21.9928448 36.3587202,23.1184846 37.1152344,24.1210938 C37.8717486,25.1237029 38.7512971,26.0078087 39.7539062,26.7734375 C40.7565154,27.5390663 41.8821552,28.1269511 43.1308594,28.5371094 C44.3795635,28.9472677 45.6692642,29.1523438 47,29.1523438 Z M47.875,16.5195312 L52.0039062,20.6484375 C52.1679696,20.8125008 52.25,21.0175769 52.25,21.2636719 C52.25,21.5097669 52.1679696,21.7194002 52.0039062,21.8925781 C51.8398429,22.0657561 51.6347669,22.1523438 51.3886719,22.1523438 C51.1425769,22.1523438 50.9375008,22.0611988 50.7734375,21.8789062 L46.4257812,17.5585938 L46.3984375,17.5039062 C46.2161449,17.3398429 46.125,17.1302096 46.125,16.875 L46.125,8.125 C46.125,7.88801965 46.2115877,7.68294357 46.3847656,7.50976562 C46.5579436,7.33658768 46.7630196,7.25 47,7.25 C47.2369804,7.25 47.4420564,7.33658768 47.6152344,7.50976562 C47.7884123,7.68294357 47.875,7.88801965 47.875,8.125 L47.875,16.5195312 Z" id="clock---simple-line-icons"></path>
        </g>
    </g>
</svg>