<?xml version="1.0" encoding="utf-8"?>
<!-- Generator: Adobe Illustrator 19.0.0, SVG Export Plug-In . SVG Version: 6.00 Build 0)  -->
<svg version="1.1" id="Laag_1" xmlns="http://www.w3.org/2000/svg" xmlns:xlink="http://www.w3.org/1999/xlink" x="0px" y="0px"
	 viewBox="-491 192 17 18" style="enable-background:new -491 192 17 18;" xml:space="preserve">
<style type="text/css">
	.st0{fill:#4A90E2;}
</style>
<title>ion-checkmark-circled - Ionicons</title>
<desc>Created with Sketch.</desc>
<g id="Vraag-toevoegen---tekst">
	<g id="iPhone-5_x2F_SE---Vraag-stellen-Copy" transform="translate(-273.000000, -510.000000)">
		<g id="plaatsen-copy" transform="translate(170.000000, 498.000000)">
			<path id="ion-checkmark-circled---Ionicons" class="st0" d="M-379.7,204.6c2.3,0,4.3,0.8,5.9,2.4s2.4,3.6,2.4,5.9
				s-0.8,4.3-2.4,5.9s-3.6,2.4-5.9,2.4s-4.3-0.8-5.9-2.4s-2.4-3.6-2.4-5.9s0.8-4.3,2.4-5.9S-382,204.6-379.7,204.6z M-375.4,210.1
				c0,0,0-0.1,0-0.1c0-0.1,0-0.1,0-0.1l-1.2-0.9c0,0-0.1,0-0.1,0c0,0-0.1,0-0.1,0l-4.1,5.3c-1.1-1-1.6-1.6-1.7-1.6
				c-0.1-0.1-0.1-0.1-0.2-0.1c0,0-0.1,0-0.1,0.1l-1,1c0,0,0,0.1,0,0.1c0,0,0,0.1,0,0.1l0.1,0c1.9,1.9,2.9,2.8,2.9,2.8
				c0.1,0.1,0.1,0.1,0.2,0.1s0.1,0,0.2-0.1L-375.4,210.1z"/>
		</g>
	</g>
</g>
</svg>
