<?xml version="1.0" encoding="UTF-8"?>
<svg width="18px" height="23px" viewBox="0 0 18 23" version="1.1" xmlns="http://www.w3.org/2000/svg" xmlns:xlink="http://www.w3.org/1999/xlink">
    <!-- Generator: Sketch 43.1 (39012) - http://www.bohemiancoding.com/sketch -->
    <title></title>
    <desc>Created with Sketch.</desc>
    <defs></defs>
    <g id="Feed-page" stroke="none" stroke-width="1" fill="none" fill-rule="evenodd">
        <g id="iPhone-5/SE---Keuze-vraag-stellen" transform="translate(-268.000000, -11.000000)" fill="#FF5537">
            <g id="Group-2" transform="translate(197.000000, 11.000000)">
                <path d="M79.9140625,22.3535156 C78.6249936,22.3535156 77.4362034,22.1422547 76.3476562,21.7197266 C75.2591091,21.2971984 74.3245482,20.706384 73.5439453,19.9472656 C72.7633425,19.1881472 72.1546246,18.2858125 71.7177734,17.2402344 C71.2809223,16.1946562 71.0625,15.0559957 71.0625,13.8242188 C71.0625,13.1653613 71.1448559,12.5100944 71.3095703,11.8583984 C71.4742847,11.2067025 71.6569,10.6158881 71.8574219,10.0859375 C72.0579437,9.55598693 72.2441398,9.12272304 72.4160156,8.78613281 C72.5878915,8.44954259 72.6881509,8.26692723 72.7167969,8.23828125 C72.7740888,8.10937436 72.8671869,8.01627633 72.9960938,7.95898438 C73.1250006,7.90169242 73.2539056,7.88020826 73.3828125,7.89453125 C73.5260424,7.90885424 73.6513667,7.96256464 73.7587891,8.05566406 C73.8662115,8.14876349 73.9342446,8.25976498 73.9628906,8.38867188 C73.9772136,8.40299486 74.077473,8.71093449 74.2636719,9.3125 C74.4498707,9.91406551 74.6790351,10.4368467 74.9511719,10.8808594 C75.1516937,11.1816421 75.3486318,11.4394521 75.5419922,11.6542969 C75.7353525,11.8691417 75.9394521,12.0481764 76.1542969,12.1914062 C76.011067,11.5611948 75.9036462,10.7949264 75.8320312,9.89257812 C75.7604163,8.99022986 75.8177074,8.0520882 76.0039062,7.078125 C76.2473971,5.74608709 76.6555961,4.65397562 77.2285156,3.80175781 C77.8014352,2.94954001 78.3886689,2.27278896 78.9902344,1.77148437 C79.5917999,1.27017979 80.1289039,0.922852529 80.6015625,0.729492188 C81.0742211,0.536131846 81.332031,0.432291738 81.375,0.41796875 C81.4895839,0.389322773 81.6041661,0.389322773 81.71875,0.41796875 C81.8333339,0.446614727 81.9407547,0.496744434 82.0410156,0.568359375 C82.1269536,0.654297305 82.1878253,0.754556719 82.2236328,0.869140625 C82.2594403,0.983724531 82.263021,1.09830672 82.234375,1.21289062 L82.1484375,1.85742187 C82.0911455,2.28711152 82.0660807,2.8385383 82.0732422,3.51171875 C82.0804037,4.1848992 82.1484369,4.92968342 82.2773438,5.74609375 C82.4062506,6.56250408 82.6497378,7.37174078 83.0078125,8.17382812 C83.0794274,8.31705801 83.1617834,8.47102782 83.2548828,8.63574219 C83.3479822,8.80045655 83.444661,8.96874914 83.5449219,9.140625 C83.5735679,8.91145719 83.6093748,8.67513143 83.6523438,8.43164062 C83.6953127,8.18814982 83.7526038,7.94466268 83.8242188,7.70117188 C84.0820325,6.75585465 84.4723281,6.09700707 84.9951172,5.72460938 C85.5179063,5.35221168 85.7936196,5.15885424 85.8222656,5.14453125 C85.9368495,5.0872393 86.0550124,5.06575514 86.1767578,5.08007812 C86.2985032,5.09440111 86.4095047,5.14453082 86.5097656,5.23046875 C86.6100265,5.30208369 86.6852211,5.39876241 86.7353516,5.52050781 C86.785482,5.64225321 86.7962241,5.76757748 86.7675781,5.89648438 C86.7675781,5.92513035 86.7783202,6.22948929 86.7998047,6.80957031 C86.8212892,7.38965134 87.1113253,8.13801625 87.6699219,9.0546875 C88.1569035,9.87109783 88.489908,10.6123014 88.6689453,11.2783203 C88.8479827,11.9443393 88.9375,12.7929636 88.9375,13.8242188 C88.9375,15.0559957 88.7119163,16.1946562 88.2607422,17.2402344 C87.8095681,18.2858125 87.1829467,19.1881472 86.3808594,19.9472656 C85.578772,20.706384 84.6298883,21.2971984 83.5341797,21.7197266 C82.4384711,22.1422547 81.2317774,22.3535156 79.9140625,22.3535156 Z M73.2109375,10.4296875 C73.0247387,10.9023461 72.8492847,11.4394501 72.6845703,12.0410156 C72.5198559,12.6425811 72.4375,13.2298148 72.4375,13.8027344 C72.4375,14.8483125 72.6201154,15.8079383 72.9853516,16.6816406 C73.3505878,17.5553429 73.8662076,18.3108692 74.5322266,18.9482422 C75.1982455,19.5856152 75.9895787,20.0833315 76.90625,20.4414063 C77.8229213,20.799481 78.8255154,20.9785156 79.9140625,20.9785156 C81.0312556,20.9785156 82.0553339,20.799481 82.9863281,20.4414063 C83.9173224,20.0833315 84.7229784,19.5856152 85.4033203,18.9482422 C86.0836623,18.3108692 86.6136049,17.5553429 86.9931641,16.6816406 C87.3727233,15.8079383 87.5625,14.8483125 87.5625,13.8027344 C87.5625,12.9147091 87.4908861,12.1985704 87.3476562,11.6542969 C87.2044264,11.1100233 86.9179709,10.4798213 86.4882812,9.76367188 C86.2018215,9.27669027 85.9798185,8.82552291 85.8222656,8.41015625 C85.6647128,7.99478959 85.557292,7.61523609 85.5,7.27148438 C85.4283851,7.37174529 85.3603519,7.48990817 85.2958984,7.62597656 C85.231445,7.76204495 85.1777346,7.91601477 85.1347656,8.08789062 C84.9342438,8.81836303 84.8339844,9.53092101 84.8339844,10.2255859 L84.8339844,11.2675781 C84.8339844,11.425131 84.7945967,11.5683587 84.7158203,11.6972656 C84.6370439,11.8261725 84.518881,11.9192705 84.3613281,11.9765625 C84.2180982,12.0195315 84.0748705,12.0195315 83.9316406,11.9765625 C83.7884107,11.9335935 83.6738286,11.8476569 83.5878906,11.71875 C83.5592446,11.675781 83.3157575,11.314131 82.8574219,10.6337891 C82.3990862,9.95344712 82.0338555,9.32682578 81.7617188,8.75390625 C81.489582,8.13801775 81.2783211,7.52571919 81.1279297,6.91699219 C80.9775383,6.30826519 80.8701175,5.71745078 80.8056641,5.14453125 C80.7412106,4.57161172 80.7125651,4.03450771 80.7197266,3.53320312 C80.7268881,3.03189854 80.7447915,2.58789256 80.7734375,2.20117188 C80.214841,2.53060061 79.5738968,3.09276946 78.8505859,3.88769531 C78.127275,4.68262116 77.6295587,5.83202373 77.3574219,7.3359375 C77.214192,8.0664099 77.1604816,8.78254857 77.1962891,9.484375 C77.2320965,10.1862014 77.3001297,10.8092421 77.4003906,11.3535156 C77.5006515,11.8977892 77.6044917,12.3417952 77.7119141,12.6855469 L77.8730469,13.2011719 C77.9160158,13.3157558 77.9267579,13.4374994 77.9052734,13.5664063 C77.883789,13.6953131 77.8300786,13.8098953 77.7441406,13.9101563 C77.6582027,13.9960942 77.5543626,14.0605467 77.4326172,14.1035156 C77.3108718,14.1464846 77.1927089,14.153646 77.078125,14.125 C77.035156,14.110677 76.6341184,13.935223 75.875,13.5986328 C75.1158816,13.2620426 74.4212271,12.5996143 73.7910156,11.6113281 C73.6907547,11.4394523 73.5904953,11.2496755 73.4902344,11.0419922 C73.3899735,10.8343089 73.2968754,10.6302093 73.2109375,10.4296875 Z" id=""></path>
            </g>
        </g>
    </g>
</svg>