<?xml version="1.0" encoding="UTF-8"?>
<svg width="30px" height="30px" viewBox="0 0 30 30" version="1.1" xmlns="http://www.w3.org/2000/svg" xmlns:xlink="http://www.w3.org/1999/xlink">
    <!-- Generator: Sketch 44 (41411) - http://www.bohemiancoding.com/sketch -->
    <title>hospital</title>
    <desc>Created with Sketch.</desc>
    <defs></defs>
    <g id="Symbols" stroke="none" stroke-width="1" fill="none" fill-rule="evenodd">
        <g id="pink" transform="translate(-33.000000, -3.000000)" fill-rule="nonzero" fill="#FF4162">
            <g id="hospital" transform="translate(33.000000, 3.000000)">
                <path d="M29.4024023,9.38337891 L20.6166211,9.38337891 L20.6166211,0.597597656 C20.6166211,0.267539062 20.349082,0 20.0190234,0 L9.98097656,0 C9.65091797,0 9.38337891,0.267539062 9.38337891,0.597597656 L9.38337891,9.38337891 L0.597597656,9.38337891 C0.267539062,9.38337891 0,9.65091797 0,9.98097656 L0,20.0190234 C0,20.349082 0.267539062,20.6166211 0.597597656,20.6166211 L9.38337891,20.6166211 L9.38337891,29.4024023 C9.38337891,29.7324609 9.65091797,30 9.98097656,30 L20.0190234,30 C20.349082,30 20.6166211,29.7324609 20.6166211,29.4024023 L20.6166211,20.6166211 L29.4024023,20.6166211 C29.7324609,20.6166211 30,20.349082 30,20.0190234 L30,9.98097656 C30,9.65091797 29.7324609,9.38337891 29.4024023,9.38337891 Z M28.8048047,19.4214258 L20.0190234,19.4214258 C19.6889648,19.4214258 19.4214258,19.6889648 19.4214258,20.0190234 L19.4214258,28.8048047 L10.5785742,28.8048047 L10.5785742,20.0190234 C10.5785742,19.6889648 10.3110352,19.4214258 9.98097656,19.4214258 L1.19519531,19.4214258 L1.19519531,10.5785742 L9.98097656,10.5785742 C10.3110352,10.5785742 10.5785742,10.3110352 10.5785742,9.98097656 L10.5785742,1.19519531 L19.4214258,1.19519531 L19.4214258,9.98097656 C19.4214258,10.3110352 19.6889648,10.5785742 20.0190234,10.5785742 L28.8048047,10.5785742 L28.8048047,19.4214258 Z" id="Shape"></path>
                <path d="M9.26296875,11.175293 L4.78089844,11.175293 C4.45083984,11.175293 4.18330078,11.442832 4.18330078,11.7728906 C4.18330078,12.1029492 4.45083984,12.3704883 4.78089844,12.3704883 L9.26296875,12.3704883 C9.59302734,12.3704883 9.86056641,12.1029492 9.86056641,11.7728906 C9.86056641,11.442832 9.59302734,11.175293 9.26296875,11.175293 Z" id="Shape"></path>
                <path d="M2.80875,11.175293 L2.45015625,11.175293 C2.12009766,11.175293 1.85255859,11.442832 1.85255859,11.7728906 C1.85255859,12.1029492 2.12009766,12.3704883 2.45015625,12.3704883 L2.80875,12.3704883 C3.13880859,12.3704883 3.40634766,12.1029492 3.40634766,11.7728906 C3.40634766,11.442832 3.13880859,11.175293 2.80875,11.175293 Z" id="Shape"></path>
            </g>
        </g>
    </g>
</svg>