<?xml version="1.0" encoding="UTF-8"?>
<svg width="30px" height="24px" viewBox="0 0 30 24" version="1.1" xmlns="http://www.w3.org/2000/svg" xmlns:xlink="http://www.w3.org/1999/xlink">
    <!-- Generator: Sketch 44 (41411) - http://www.bohemiancoding.com/sketch -->
    <title>noun_646403_cc</title>
    <desc>Created with Sketch.</desc>
    <defs></defs>
    <g id="Symbols" stroke="none" stroke-width="1" fill="none" fill-rule="evenodd">
        <g id="brown" transform="translate(-32.000000, -6.000000)" fill-rule="nonzero" fill="#746C55">
            <g id="noun_646403_cc" transform="translate(32.000000, 6.000000)">
                <path d="M4.79991942,0.180769231 C1.30906893,2.17307692 -1.14830608,6.11153846 1.25165363,10.4230769 C2.46503039,12.6076923 2.54541181,15.2384615 2.64110399,18.2846154 C2.67938085,19.5269231 2.72148541,20.8076923 2.83631602,22.1576923 C2.88339095,22.6522482 3.29499603,23.0309579 3.78941007,23.0346154 L5.01809757,23.0346154 C5.27832192,23.0337418 5.52706307,22.926837 5.70742784,22.7383526 C5.88779261,22.5498683 5.98435156,22.2959285 5.97501931,22.0346154 C5.68028741,14.0884615 6.357788,12.6346154 6.797972,12.4730769 C7.5290602,12.2 9.76060169,15.05 11.7280328,17.5615385 C12.9567203,19.1269231 14.3499983,20.9038462 15.9078669,22.7 C16.0912827,22.9112168 16.3561576,23.0330867 16.6351274,23.0346154 L18.8130813,23.0346154 C22.8780848,23.0346154 25.8062653,22.9307692 28.8798979,22.3115385 C29.0376958,22.2831042 29.1764762,22.1896728 29.2626666,22.0538462 C29.9631333,20.9423077 30.1353792,19.9153846 29.783232,19 C29.2282174,17.5615385 27.448343,16.4961538 24.0149078,15.5384615 C23.8710063,15.4980584 23.7170723,15.5160119 23.5862069,15.5884615 C19.9613874,17.5884615 16.5738844,13.5923077 11.3376087,6.90769231 C9.66108183,4.76538462 7.92713964,2.55 5.97884699,0.369230769 C5.67640117,0.0402635124 5.18903082,-0.037646758 4.79991942,0.180769231 L4.79991942,0.180769231 Z M21.6417419,17.2961538 C22.4312089,17.288873 23.2077342,17.0938051 23.9077326,16.7269231 C26.7363932,17.5307692 28.3019172,18.4115385 28.6923413,19.4192308 C28.891381,19.9307692 28.7918611,20.5269231 28.3937817,21.2307692 C25.0139341,21.8846154 21.8867139,21.9038462 16.7116812,21.8769231 C15.1806064,20.1230769 13.8256052,18.3807692 12.6198838,16.8423077 C9.68022026,13.0923077 7.90800121,10.8269231 6.39223718,11.3846154 C5.20182655,11.8269231 4.52049827,13.7423077 4.80757479,21.8769231 L3.96548367,21.8769231 C3.86213612,20.6230769 3.82385925,19.4153846 3.78941007,18.2423077 C3.68989021,15.0461538 3.60568109,12.2846154 2.25833529,9.85384615 C0.910989491,7.42307692 0.926300238,3.78846154 5.23627573,1.25769231 C7.11184233,3.38076923 8.80367995,5.54230769 10.44193,7.63461538 C14.5681765,12.9230769 17.9901286,17.3076923 21.653225,17.3076923 L21.6417419,17.2961538 Z" id="Shape"></path>
            </g>
        </g>
    </g>
</svg>