<?xml version="1.0" encoding="UTF-8"?>
<svg width="454px" height="413px" viewBox="0 0 454 413" version="1.1" xmlns="http://www.w3.org/2000/svg" xmlns:xlink="http://www.w3.org/1999/xlink">
    <!-- Generator: Sketch 43.1 (39012) - http://www.bohemiancoding.com/sketch -->
    <title>Group 8</title>
    <desc>Created with Sketch.</desc>
    <defs></defs>
    <g id="Design" stroke="none" stroke-width="1" fill="none" fill-rule="evenodd">
        <g id="intro" transform="translate(-28.000000, -39.000000)" fill="#FFFFFF">
            <g id="bg">
                <g id="Group-8" transform="translate(254.000000, 245.500000) rotate(-270.000000) translate(-254.000000, -245.500000) translate(47.000000, 17.000000)">
                    <circle id="Oval-7" opacity="0.81" transform="translate(381.361394, 444.434678) scale(-1, -1) rotate(-284.000000) translate(-381.361394, -444.434678) " cx="381.361394" cy="444.434678" r="10"></circle>
                    <circle id="Oval-7" opacity="0.8" transform="translate(407.279011, 252.143546) scale(1, -1) rotate(-183.000000) translate(-407.279011, -252.143546) " cx="407.279011" cy="252.143546" r="6"></circle>
                    <circle id="Oval-7" opacity="0.72" transform="translate(326.322427, 7.457048) scale(-1, 1) rotate(-96.000000) translate(-326.322427, -7.457048) " cx="326.322427" cy="7.45704823" r="6"></circle>
                    <circle id="Oval-7" transform="translate(86.695287, 417.517399) scale(-1, 1) rotate(-347.000000) translate(-86.695287, -417.517399) " cx="86.6952871" cy="417.517399" r="6"></circle>
                    <circle id="Oval-7" opacity="0.7" transform="translate(7.149849, 311.049499) rotate(-275.000000) translate(-7.149849, -311.049499) " cx="7.14984892" cy="311.049499" r="6"></circle>
                    <circle id="Oval-7" opacity="0.74" transform="translate(104.726793, 104.026032) rotate(-114.000000) translate(-104.726793, -104.026032) " cx="104.726793" cy="104.026032" r="6"></circle>
                    <rect id="Rectangle-3" opacity="0.78" transform="translate(379.328833, 76.976670) scale(-1, -1) rotate(-25.000000) translate(-379.328833, -76.976670) " x="370.828833" y="68.4766696" width="17" height="17"></rect>
                    <rect id="Rectangle-3" opacity="0.88" transform="translate(115.657558, 390.073272) scale(1, -1) rotate(-358.000000) translate(-115.657558, -390.073272) " x="110.657558" y="385.073272" width="10" height="10"></rect>
                    <path d="M56.0708733,32.9841327 C56.0708733,34.6540616 56.2496333,36.0311931 55.9962083,37.3231073 C55.8681333,37.976439 54.9372733,38.9455113 54.4091683,38.9209294 C53.8047633,38.8925237 52.8766283,37.9944658 52.7425583,37.3405878 C52.4782333,36.0486735 52.6646233,34.6649869 52.6646233,32.9819476 C51.2181933,32.9819476 49.9238183,33.2086471 48.7684183,32.9043781 C47.9487383,32.6891501 47.3165383,31.7566775 46.6004083,31.1443156 C47.2871083,30.611162 47.9084083,29.781387 48.6752233,29.613684 C49.8605983,29.3531161 51.1446183,29.5448547 52.6608083,29.5448547 C52.6608083,27.8902212 52.4466233,26.4999794 52.7441933,25.2310082 C52.9125983,24.5137636 53.9224833,23.9942666 54.5535933,23.3857285 C55.0615333,24.0084694 55.8730383,24.5716676 56.0103783,25.2681541 C56.2512683,26.4857765 56.0774133,27.7847922 56.0774133,29.5410309 C57.4617133,29.5410309 58.7277483,29.3394595 59.8847833,29.6082213 C60.7382533,29.8065152 61.4494783,30.6193559 62.2244683,31.1585185 C61.4091483,31.7670565 60.6728533,32.6312461 59.7577983,32.9147571 C58.7702583,33.2212112 57.6148583,32.9841327 56.0708733,32.9841327" id="Fill-6"></path>
                    <path d="M56.0708733,232.984133 C56.0708733,234.654062 56.2496333,236.031193 55.9962083,237.323107 C55.8681333,237.976439 54.9372733,238.945511 54.4091683,238.920929 C53.8047633,238.892524 52.8766283,237.994466 52.7425583,237.340588 C52.4782333,236.048674 52.6646233,234.664987 52.6646233,232.981948 C51.2181933,232.981948 49.9238183,233.208647 48.7684183,232.904378 C47.9487383,232.68915 47.3165383,231.756678 46.6004083,231.144316 C47.2871083,230.611162 47.9084083,229.781387 48.6752233,229.613684 C49.8605983,229.353116 51.1446183,229.544855 52.6608083,229.544855 C52.6608083,227.890221 52.4466233,226.499979 52.7441933,225.231008 C52.9125983,224.513764 53.9224833,223.994267 54.5535933,223.385728 C55.0615333,224.008469 55.8730383,224.571668 56.0103783,225.268154 C56.2512683,226.485777 56.0774133,227.784792 56.0774133,229.541031 C57.4617133,229.541031 58.7277483,229.339459 59.8847833,229.608221 C60.7382533,229.806515 61.4494783,230.619356 62.2244683,231.158518 C61.4091483,231.767057 60.6728533,232.631246 59.7577983,232.914757 C58.7702583,233.221211 57.6148583,232.984133 56.0708733,232.984133" id="Fill-6" transform="translate(54.412438, 231.153558) rotate(37.000000) translate(-54.412438, -231.153558) "></path>
                </g>
            </g>
        </g>
    </g>
</svg>