<?xml version="1.0" encoding="UTF-8"?>
<svg width="132px" height="171px" viewBox="0 0 132 171" version="1.1" xmlns="http://www.w3.org/2000/svg" xmlns:xlink="http://www.w3.org/1999/xlink">
    <!-- Generator: Sketch 43.1 (39012) - http://www.bohemiancoding.com/sketch -->
    <title>Group 4</title>
    <desc>Created with Sketch.</desc>
    <defs></defs>
    <g id="Design" stroke="none" stroke-width="1" fill="none" fill-rule="evenodd">
        <g id="intro-2-copy" transform="translate(-211.000000, -192.000000)">
            <g id="Group-4" transform="translate(215.000000, 197.000000)">
                <rect id="Rectangle" fill="#FFC146" x="0" y="66" width="123" height="96" rx="5"></rect>
                <g id="Group-3" opacity="0.699999988" transform="translate(14.000000, 65.000000)" fill-rule="nonzero" fill="#FFFFFF">
                    <rect id="Rectangle-path" x="14" y="0" width="6.8751634" height="96.4181911"></rect>
                    <rect id="Rectangle-path" x="0" y="0" width="6.8751634" height="96.4181911"></rect>
                </g>
                <polygon id="Stroke-966" stroke="#373940" stroke-width="9" stroke-linecap="round" stroke-linejoin="round" stroke-dasharray="171,20,20,22" points="1 65 123.297744 65 123.297744 161.418191 1 161.418191"></polygon>
                <path d="M25,64.2787941 L25,36.1568217 C25,16.2705697 41.5101954,0 61.6893231,0 C81.8684507,0 98.3786461,16.2705697 98.3786461,36.1568217 L98.3786461,64.2787941 L25,64.2787941 L25,64.2787941 Z" id="Path" stroke="#373940" stroke-width="9" stroke-linecap="round" stroke-linejoin="round"></path>
                <g id="Group-7" transform="translate(47.000000, 93.000000)" stroke-linecap="round">
                    <g id="Group-8" transform="translate(6.000000, 4.000000)" stroke="#FFECC7">
                        <path d="M15,30 C6.715,30 0,23.285 0,15 C0,6.715 6.715,0 15,0 C23.285,0 30,6.715 30,15 C30,23.285 23.285,30 15,30 Z" id="Stroke-2119" stroke-width="7"></path>
                        <path d="M15,31 L15,41" id="Stroke-2121" stroke-width="8"></path>
                    </g>
                    <path d="M15,30 C6.715,30 0,23.285 0,15 C0,6.715 6.715,0 15,0 C23.285,0 30,6.715 30,15 C30,23.285 23.285,30 15,30 Z" id="Stroke-2119" stroke="#373940" stroke-width="7"></path>
                    <path d="M15,31 L15,41" id="Stroke-2121" stroke="#373940" stroke-width="8"></path>
                </g>
            </g>
        </g>
    </g>
</svg>