<?xml version="1.0" encoding="UTF-8"?>
<svg width="323px" height="203px" viewBox="0 0 323 203" version="1.1" xmlns="http://www.w3.org/2000/svg" xmlns:xlink="http://www.w3.org/1999/xlink">
    <!-- Generator: Sketch 43.1 (39012) - http://www.bohemiancoding.com/sketch -->
    <title>Combined Shape</title>
    <desc>Created with Sketch.</desc>
    <defs></defs>
    <g id="Design" stroke="none" stroke-width="1" fill="none" fill-rule="evenodd" opacity="0.300000012">
        <g id="intro-2-copy" transform="translate(-19.000000, -25.000000)" fill="#FFFFFF">
            <path d="M316.348881,177.430605 C330.518173,177.430605 342,165.948541 342,151.784698 C342,137.61774 330.515603,126.13879 316.348881,126.13879 L271.831642,126.13879 C283.071786,123.412583 291.418345,113.288147 291.418345,101.215302 C291.418345,87.0483447 279.930373,75.569395 265.759241,75.569395 L248.06264,75.569395 L248.06264,50.6459075 C248.06264,36.4789496 236.577671,25 222.410245,25 L63.4398669,25 C49.270202,25 37.787472,36.4820639 37.787472,50.6459075 C37.787472,62.7211504 46.1313579,72.8435422 57.368278,75.569395 L44.6591033,75.569395 C30.4881594,75.569395 19,87.0514589 19,101.215302 C19,115.38226 30.4879718,126.86121 44.6591033,126.86121 L81.1431767,126.86121 L81.1431767,151.784698 C81.1431767,163.85994 89.4866477,173.982332 100.723009,176.708185 L77.1620136,176.708185 C63.0069077,176.708185 51.5167785,188.190249 51.5167785,202.354093 C51.5167785,216.52105 62.9985414,228 77.1620136,228 L265.773109,228 C279.928215,228 291.418345,216.517936 291.418345,202.354093 L291.418345,177.430605 L316.348881,177.430605 Z" id="Combined-Shape"></path>
        </g>
    </g>
</svg>