<?xml version="1.0" encoding="UTF-8"?>
<svg width="462px" height="386px" viewBox="0 0 462 386" version="1.1" xmlns="http://www.w3.org/2000/svg" xmlns:xlink="http://www.w3.org/1999/xlink">
    <!-- Generator: Sketch 43.1 (39012) - http://www.bohemiancoding.com/sketch -->
    <title>stars</title>
    <desc>Created with Sketch.</desc>
    <defs></defs>
    <g id="Design" stroke="none" stroke-width="1" fill="none" fill-rule="evenodd">
        <g id="intro-2" transform="translate(-41.000000, -42.000000)" fill="#FFFFFF">
            <g id="graphic" transform="translate(28.000000, 39.000000)">
                <g id="stars" transform="translate(240.655921, 203.233999) rotate(362.000000) translate(-240.655921, -203.233999) translate(7.655921, 8.233999)">
                    <path d="M11.7930963,62.835738 C11.7354317,66.0764758 9.49053641,68.29499 6.27942424,68.2849089 C3.03143356,68.2748278 0.460666377,65.6826408 0.572642934,62.5299446 C0.679255345,59.5204001 3.23594165,57.0384331 6.24992143,57.0182709 C9.52875595,56.9960925 11.8541134,59.437063 11.7930963,62.835738" id="Fill-10"></path>
                    <circle id="Oval-7" opacity="0.81" transform="translate(38.378916, 376.941200) scale(-1, -1) rotate(-284.000000) translate(-38.378916, -376.941200) " cx="38.3789164" cy="376.9412" r="10"></circle>
                    <path d="M108.823666,356.117593 C108.695591,356.770925 107.764731,357.739997 107.236626,357.715415 C106.632221,357.68701 105.704086,356.788952 105.570016,356.135074 C105.305691,354.84316 105.492081,353.459473 105.492081,351.776434 C104.045651,351.776434 102.751276,352.003133 101.595876,351.698864 C100.776196,351.483636 100.143996,350.551164 99.4278661,349.938802 C100.114566,349.405648 100.735866,348.575873 101.502681,348.40817 C102.688056,348.147602 103.972076,348.339341 105.488266,348.339341 C105.488266,346.684707 105.274081,345.294465 105.571651,344.025494 C105.740056,343.30825 106.749941,342.788753 107.381051,342.180215 C107.888991,342.802955 108.700496,343.366154 108.837836,344.06264 C109.078726,345.280263 108.904871,346.579278 108.904871,348.335517 C110.289171,348.335517 111.555206,348.133945 112.712241,348.402707 C113.565711,348.601001 114.276936,349.413842 115.051926,349.953005 C114.236606,350.561543 113.500311,351.425732 112.585256,351.709243 C111.597716,352.015697 110.442316,351.778619 108.898331,351.778619 C108.898331,353.448548 109.077091,354.825679 108.823666,356.117593 Z" id="Fill-6" transform="translate(107.239896, 349.948044) rotate(-20.000000) translate(-107.239896, -349.948044) "></path>
                    <path d="M350.869297,59.3463252 C351.678612,58.0935805 352.654887,56.5827595 353.631162,55.0719386 C354.723436,56.5625973 355.81571,58.0532561 356.881834,59.5082949 C358.145761,60.4034967 359.561896,61.4062301 360.97736,62.4096357 C359.533064,63.4103529 358.087426,64.4117423 356.722922,65.3560054 C355.806323,66.7350999 354.815297,68.2264307 353.8236,69.7184336 C352.768875,68.2990147 351.713479,66.8795957 350.297345,64.9756118 C349.511497,64.4426576 348.045744,63.4486611 346.579991,62.4546646 C347.989421,61.4331131 349.399521,60.4115615 350.869297,59.3463252" id="Fill-12"></path>
                    <path d="M85.1670429,8.39423261 C83.0864246,8.22688633 81.5998855,6.99766413 81.3859901,4.4968791 C81.1808115,2.09152849 83.0019393,-0.104135229 85.2897477,0.0242307858 C87.6258335,0.155957167 89.2659213,1.37644242 89.4597011,3.93300954 C89.6420821,6.34239259 87.8846536,8.30148648 85.1670429,8.39423261" id="Fill-14"></path>
                    <path d="M435.661787,53.2028139 C436.457692,54.4206108 437.999884,55.7466116 437.844324,56.8273056 C437.681388,57.9604213 435.980283,59.4678819 434.778714,59.6459813 C433.967387,59.7662824 432.126144,57.9053113 432.074514,56.8642696 C432.016179,55.6827646 433.44036,54.4280036 434.220173,53.2055022 C434.700264,53.204158 435.181025,53.2034859 435.661787,53.2028139" id="Fill-18"></path>
                    <path d="M458.394287,173.715152 C458.394287,175.76968 458.614217,177.463977 458.302426,179.05343 C458.144854,179.85723 456.999609,181.049488 456.349877,181.019245 C455.606272,180.984297 454.464379,179.879409 454.299432,179.074937 C453.974231,177.485483 454.203548,175.783121 454.203548,173.712463 C452.423992,173.712463 450.831511,173.991374 449.410012,173.617029 C448.401553,173.352232 447.623752,172.205003 446.742691,171.451608 C447.587544,170.795665 448.351935,169.774785 449.295354,169.568459 C450.753731,169.24788 452.333472,169.483778 454.198854,169.483778 C454.198854,167.448067 453.93534,165.737641 454.301443,164.176414 C454.508634,163.293982 455.751104,162.65484 456.527564,161.90615 C457.152487,162.672314 458.150889,163.365222 458.31986,164.222115 C458.616229,165.720167 458.402333,167.318357 458.402333,169.479073 C460.10545,169.479073 461.663064,169.231078 463.086574,169.561738 C464.136606,169.805701 465.011632,170.805746 465.965109,171.469082 C464.962014,172.217772 464.056144,173.280992 462.930344,173.629798 C461.715364,174.006831 460.293866,173.715152 458.394287,173.715152" id="Fill-6"></path>
                    <path d="M62.2348474,62.9873578 C62.2348474,65.0418861 62.4547774,66.7361831 62.1429864,68.3256366 C61.9854146,69.1294364 60.8401694,70.3216945 60.1904371,70.2914512 C59.4468323,70.2565034 58.3049396,69.1516148 58.1399921,68.3471429 C57.8147908,66.7576894 58.044108,65.0553275 58.044108,62.9846695 C56.2645524,62.9846695 54.6720715,63.2635799 53.2505726,62.8892351 C52.2421131,62.6244381 51.4643119,61.4772089 50.5832508,60.7238146 C51.4281039,60.067871 52.1924948,59.0469916 53.135914,58.840665 C54.5942913,58.520086 56.1740325,58.7559838 58.0394144,58.7559838 C58.0394144,56.7202735 57.7759007,55.0098468 58.1420037,53.4486204 C58.3491938,52.566188 59.5916643,51.9270462 60.3681245,51.1783565 C60.9930475,51.9445201 61.9914493,52.6374278 62.1604199,53.4943213 C62.456789,54.9923729 62.2428937,56.5905634 62.2428937,58.7512793 C63.9460102,58.7512793 65.5036242,58.5032842 66.9271345,58.8339443 C67.9771662,59.0779069 68.8521926,60.0779521 69.8056696,60.7412885 C68.8025742,61.4899783 67.896704,62.5531984 66.7709038,62.9020045 C65.5559246,63.2790376 64.1344258,62.9873578 62.2348474,62.9873578" id="Fill-6"></path>
                </g>
            </g>
        </g>
    </g>
</svg>