<?xml version="1.0" encoding="UTF-8"?>
<svg width="17px" height="14px" viewBox="0 0 17 14" version="1.1" xmlns="http://www.w3.org/2000/svg" xmlns:xlink="http://www.w3.org/1999/xlink">
    <!-- Generator: Sketch 43.1 (39012) - http://www.bohemiancoding.com/sketch -->
    <title>Group 6</title>
    <desc>Created with Sketch.</desc>
    <defs></defs>
    <g id="Design" stroke="none" stroke-width="1" fill="none" fill-rule="evenodd">
        <g id="intro-2-copy" transform="translate(-481.000000, -40.000000)" stroke="#FFFFFF" fill="#FFFFFF">
            <g id="overslaan" transform="translate(398.000000, 40.000000)">
                <g id="Group-6" transform="translate(84.000000, 1.000000)">
                    <path d="M0.600852273,12.3892887 C0.544921595,12.3892887 0.490989251,12.3792661 0.439053622,12.3592208 C0.387117993,12.3391755 0.341175626,12.3091079 0.301225142,12.2690173 C0.221324174,12.1888359 0.18137429,12.0926198 0.18137429,11.980366 C0.18137429,11.8681121 0.221324174,11.771896 0.301225142,11.6917146 L5.77840909,6.1953125 L0.385120739,0.795127467 C0.305219771,0.714946145 0.265269886,0.616725499 0.265269886,0.500462582 C0.265269886,0.384199665 0.305219771,0.285979019 0.385120739,0.205797697 C0.465021706,0.125616375 0.562898924,0.0855263158 0.678755327,0.0855263158 C0.79461173,0.0855263158 0.892488947,0.125616375 0.972389915,0.205797697 L6.64133523,5.90666118 C6.72123619,5.98684251 6.76118608,6.08305865 6.76118608,6.1953125 C6.76118608,6.30756635 6.72123619,6.40378249 6.64133523,6.48396382 L0.888494318,12.2690173 C0.848543834,12.3091079 0.802601467,12.3391755 0.750665838,12.3592208 C0.698730209,12.3792661 0.648792853,12.3892887 0.600852273,12.3892887 Z" id="Arrow-right---simple-line-icons"></path>
                    <path d="M8.78267045,12.3892887 C8.72673978,12.3892887 8.67280743,12.3792661 8.6208718,12.3592208 C8.56893617,12.3391755 8.52299381,12.3091079 8.48304332,12.2690173 C8.40314236,12.1888359 8.36319247,12.0926198 8.36319247,11.980366 C8.36319247,11.8681121 8.40314236,11.771896 8.48304332,11.6917146 L13.9602273,6.1953125 L8.56693892,0.795127467 C8.48703795,0.714946145 8.44708807,0.616725499 8.44708807,0.500462582 C8.44708807,0.384199665 8.48703795,0.285979019 8.56693892,0.205797697 C8.64683989,0.125616375 8.74471711,0.0855263158 8.86057351,0.0855263158 C8.97642991,0.0855263158 9.07430713,0.125616375 9.1542081,0.205797697 L14.8231534,5.90666118 C14.9030544,5.98684251 14.9430043,6.08305865 14.9430043,6.1953125 C14.9430043,6.30756635 14.9030544,6.40378249 14.8231534,6.48396382 L9.0703125,12.2690173 C9.03036202,12.3091079 8.98441965,12.3391755 8.93248402,12.3592208 C8.88054839,12.3792661 8.83061104,12.3892887 8.78267045,12.3892887 Z" id="Arrow-right---simple-line-icons"></path>
                </g>
            </g>
        </g>
    </g>
</svg>