<?xml version="1.0" encoding="UTF-8"?>
<svg width="118px" height="200px" viewBox="0 0 118 200" version="1.1" xmlns="http://www.w3.org/2000/svg" xmlns:xlink="http://www.w3.org/1999/xlink">
    <!-- Generator: Sketch 43.1 (39012) - http://www.bohemiancoding.com/sketch -->
    <title>device</title>
    <desc>Created with Sketch.</desc>
    <defs></defs>
    <g id="Design" stroke="none" stroke-width="1" fill="none" fill-rule="evenodd">
        <g id="intro" transform="translate(-265.000000, -253.000000)">
            <g id="Group-5" transform="translate(123.000000, 128.000000)">
                <g id="Group-9">
                    <g id="Group-4" transform="translate(142.000000, 125.000000)">
                        <g id="device" transform="translate(0.250000, 0.750809)">
                            <rect id="Path" fill="#FFFFFF" x="9.59444444" y="4.50790025" width="103.794444" height="191.134971"></rect>
                            <ellipse id="Oval" fill="#CBE3FF" fill-rule="nonzero" cx="68.751634" cy="185.017106" rx="6.8751634" ry="7.11604254"></ellipse>
                            <rect id="Rectangle-path" fill="#2D2220" fill-rule="nonzero" x="41.2509804" y="14.2320851" width="41.2509804" height="7.11604254"></rect>
                            <g id="Group" transform="translate(6.875163, 0.000000)" fill-rule="nonzero">
                                <path d="M34.375817,14.2320851 L34.375817,21.3481276 L75.6267974,21.3481276 L75.6267974,14.2320851 L34.375817,14.2320851 Z M34.375817,14.2320851 L34.375817,21.3481276 L75.6267974,21.3481276 L75.6267974,14.2320851 L34.375817,14.2320851 Z M34.375817,14.2320851 L34.375817,21.3481276 L75.6267974,21.3481276 L75.6267974,14.2320851 L34.375817,14.2320851 Z M34.375817,14.2320851 L34.375817,21.3481276 L75.6267974,21.3481276 L75.6267974,14.2320851 L34.375817,14.2320851 Z M13.7503268,156.552936 L13.7503268,163.668978 L96.2522876,163.668978 L96.2522876,156.552936 L13.7503268,156.552936 Z M34.375817,14.2320851 L34.375817,21.3481276 L75.6267974,21.3481276 L75.6267974,14.2320851 L34.375817,14.2320851 Z M13.7503268,156.552936 L13.7503268,163.668978 L96.2522876,163.668978 L96.2522876,156.552936 L13.7503268,156.552936 Z M34.375817,14.2320851 L34.375817,21.3481276 L75.6267974,21.3481276 L75.6267974,14.2320851 L34.375817,14.2320851 Z M13.7503268,156.552936 L13.7503268,163.668978 L96.2522876,163.668978 L96.2522876,156.552936 L13.7503268,156.552936 Z M103.127451,0 L6.8751634,0 C3.09382353,0 0,3.20221914 0,7.11604254 L0,39.6933706 C0,41.351818 1.34192174,42.6962552 2.9955468,42.6962552 L3.8796166,42.6962552 C5.53401141,42.6962552 6.8751634,41.3577821 6.8751634,39.6990369 L6.8751634,35.5802127 L103.127451,35.5802127 L103.127451,185.017106 C103.127451,188.930929 100.033627,192.133148 96.2522876,192.133148 L13.7503268,192.133148 C9.96898693,192.133148 6.8751634,188.930929 6.8751634,185.017106 L6.8751634,81.2708371 C6.8751634,79.6170927 5.53324166,78.2764679 3.8796166,78.2764679 L2.9955468,78.2764679 C1.34115198,78.2764679 0,79.6144068 0,81.2779163 L0,192.133148 C0,196.046972 3.09382353,199.249191 6.8751634,199.249191 L103.127451,199.249191 C106.908791,199.249191 110.002614,196.046972 110.002614,192.133148 L110.002614,7.11604254 C110.002614,3.20221914 106.908791,0 103.127451,0 Z M103.127451,28.4641701 L6.8751634,28.4641701 L6.8751634,14.2320851 C6.8751634,10.3182617 9.96898693,7.11604254 13.7503268,7.11604254 L96.2522876,7.11604254 C100.033627,7.11604254 103.127451,10.3182617 103.127451,14.2320851 L103.127451,28.4641701 Z M96.2522876,156.552936 L13.7503268,156.552936 L13.7503268,163.668978 L96.2522876,163.668978 L96.2522876,156.552936 Z M34.375817,21.3481276 L75.6267974,21.3481276 L75.6267974,14.2320851 L34.375817,14.2320851 L34.375817,21.3481276 Z M13.7503268,156.552936 L13.7503268,163.668978 L96.2522876,163.668978 L96.2522876,156.552936 L13.7503268,156.552936 Z M34.375817,14.2320851 L34.375817,21.3481276 L75.6267974,21.3481276 L75.6267974,14.2320851 L34.375817,14.2320851 Z M34.375817,14.2320851 L34.375817,21.3481276 L75.6267974,21.3481276 L75.6267974,14.2320851 L34.375817,14.2320851 Z M34.375817,14.2320851 L34.375817,21.3481276 L75.6267974,21.3481276 L75.6267974,14.2320851 L34.375817,14.2320851 Z M34.375817,14.2320851 L34.375817,21.3481276 L75.6267974,21.3481276 L75.6267974,14.2320851 L34.375817,14.2320851 Z" id="Shape" fill="#19202C"></path>
                                <rect id="Rectangle-path" fill="#2D2220" x="34.375817" y="14.2320851" width="41.2509804" height="7.11604254"></rect>
                            </g>
                            <rect id="Rectangle-path" fill="#2D2220" fill-rule="nonzero" x="41.2509804" y="14.2320851" width="41.2509804" height="7.11604254"></rect>
                            <rect id="Rectangle-path" fill="#2D2220" fill-rule="nonzero" x="41.2509804" y="14.2320851" width="41.2509804" height="7.11604254"></rect>
                            <rect id="Rectangle-path" fill="#CBE3FF" fill-rule="nonzero" x="48.1261438" y="21.3481276" width="41.2509804" height="7.11604254"></rect>
                            <rect id="Rectangle-path" fill="#CBE3FF" fill-rule="nonzero" x="55.0013072" y="35.5802127" width="6.8751634" height="120.972723"></rect>
                            <rect id="Rectangle-path" fill="#CBE3FF" fill-rule="nonzero" x="41.2509804" y="35.5802127" width="6.8751634" height="120.972723"></rect>
                            <polygon id="Rectangle-path" fill="#CBE3FF" fill-rule="nonzero" points="68.751634 35.5802127 93.2506205 35.5802127 110.002614 35.5802127 110.002614 156.552936 68.751634 156.552936"></polygon>
                            <ellipse id="Oval" fill="#19202C" fill-rule="nonzero" cx="61.8764706" cy="177.901063" rx="6.8751634" ry="7.11604254"></ellipse>
                            <path d="M20.6254902,53.370319 C20.6254902,51.4062913 19.0854536,49.8122978 17.1879085,49.8122978 L3.4375817,49.8122978 C1.5400366,49.8122978 0,51.4062913 0,53.370319 L0,53.370319 C0,55.3343468 1.5400366,56.9283403 3.4375817,56.9283403 L17.1879085,56.9283403 C19.0854536,56.9283403 20.6254902,55.3343468 20.6254902,53.370319 L20.6254902,53.370319 Z" id="Shape" fill="#19202C" fill-rule="nonzero"></path>
                            <path d="M20.6254902,67.6024041 C20.6254902,65.6383764 19.0854536,64.0443828 17.1879085,64.0443828 L3.4375817,64.0443828 C1.5400366,64.0443828 0,65.6383764 0,67.6024041 L0,67.6024041 C0,69.5664318 1.5400366,71.1604254 3.4375817,71.1604254 L17.1879085,71.1604254 C19.0854536,71.1604254 20.6254902,69.5664318 20.6254902,67.6024041 L20.6254902,67.6024041 Z" id="Shape" fill="#19202C" fill-rule="nonzero"></path>
                        </g>
                    </g>
                </g>
            </g>
        </g>
    </g>
</svg>