<?xml version="1.0" encoding="UTF-8"?>
<svg width="200px" height="258px" viewBox="0 0 200 258" version="1.1" xmlns="http://www.w3.org/2000/svg" xmlns:xlink="http://www.w3.org/1999/xlink">
    <!-- Generator: Sketch 43.1 (39012) - http://www.bohemiancoding.com/sketch -->
    <title>character 1</title>
    <desc>Created with Sketch.</desc>
    <defs>
        <linearGradient x1="50%" y1="-2.48949813e-15%" x2="50%" y2="100%" id="linearGradient-1">
            <stop stop-color="#FEE9CC" offset="0%"></stop>
            <stop stop-color="#FBCE9D" offset="100%"></stop>
        </linearGradient>
        <path d="M2.76161871,-6.92124103e-13 C1.0072262,3.01459723 0,6.53403725 0,10.2932551 C0,21.4523224 8.87539734,30.4985337 19.8237548,30.4985337 C30.7721122,30.4985337 39.6475096,21.4523224 39.6475096,10.2932551 C39.6475096,6.53403725 38.6402834,3.01459723 36.8858909,-6.92124103e-13 L2.76161871,-4.68624813e-14 Z" id="path-2"></path>
        <linearGradient x1="81.7552916%" y1="20.0451997%" x2="36.8561237%" y2="74.0099843%" id="linearGradient-4">
            <stop stop-color="#FFFFFF" offset="0%"></stop>
            <stop stop-color="#FFFFFF" stop-opacity="0" offset="100%"></stop>
        </linearGradient>
        <linearGradient x1="50%" y1="0%" x2="50%" y2="100%" id="linearGradient-5">
            <stop stop-color="#FB9722" offset="0%"></stop>
            <stop stop-color="#FB9722" offset="98.957669%"></stop>
        </linearGradient>
        <path d="M139.2416,133.886439 C124.558477,132.017417 112.483307,121.795946 107.929412,108.135419 C96.4855226,119.527643 80.7068002,126.568915 63.2835249,126.568915 C28.3329992,126.568915 0,98.2354982 0,63.2844575 C0,28.3334167 28.3329992,0 63.2835249,0 C98.2340506,0 126.56705,28.3334167 126.56705,63.2844575 C126.56705,63.6029785 126.564697,63.9209499 126.560007,64.2383553 C133.941038,59.9832387 142.220843,58.257236 149.448122,60.6410868 C167.791625,66.6915203 182.226054,75.0155374 182.226054,96.0703812 C182.226054,97.3946139 182.158537,98.703077 182.026759,99.992516 C190.805599,105.066869 196.712644,114.556202 196.712644,125.42522 C196.712644,141.63745 183.570228,154.780059 167.358238,154.780059 C154.087716,154.780059 142.873944,145.973933 139.2416,133.886439 Z" id="path-6"></path>
        <linearGradient x1="83.0487515%" y1="18.4905766%" x2="36.8561237%" y2="74.0099843%" id="linearGradient-7">
            <stop stop-color="#FFFFFF" offset="2.80014349%"></stop>
            <stop stop-color="#FFFFFF" stop-opacity="0" offset="100%"></stop>
        </linearGradient>
    </defs>
    <g id="Design" stroke="none" stroke-width="1" fill="none" fill-rule="evenodd">
        <g id="intro-2" transform="translate(-71.000000, -61.000000)">
            <g id="character/1" transform="translate(168.500000, 191.000000) scale(-1, 1) translate(-168.500000, -191.000000) translate(69.000000, 61.000000)">
                <g id="character-1">
                    <path d="M15.3460712,141.535095 C6.84208111,134.089065 1.52490421,123.477799 1.52490421,111.70088 C1.52490421,89.1721969 20.9825061,70.9090909 44.9846743,70.9090909 C68.9868426,70.9090909 88.4444444,89.1721969 88.4444444,111.70088 C88.4444444,115.002383 88.0265745,118.212279 87.2377693,121.286514 C100.374287,129.529025 109.030651,143.614013 109.030651,159.604827 C109.030651,185.008704 87.1835194,205.602615 60.2337165,205.602615 C33.2839135,205.602615 11.4367816,185.008704 11.4367816,159.604827 C11.4367816,153.190198 12.8297377,147.082249 15.3460712,141.535095 Z" id="Combined-Shape" stroke="#373940" stroke-width="9" fill="#E38320" stroke-linejoin="round"></path>
                    <ellipse id="Oval-2" stroke="#373940" stroke-width="9" fill="#E38320" cx="140.291188" cy="159.604827" rx="48.7969349" ry="45.9977886"></ellipse>
                    <path d="M30.4980843,174.520343 C23.6360909,173.761777 18.2988506,167.94407 18.2988506,160.879765 C18.2988506,153.815461 23.6360909,147.997754 30.4980843,147.239188 L30.4980843,147.155425 L54.8965517,147.155425 L54.8965517,174.604106 L30.4980843,174.604106 L30.4980843,174.520343 Z" id="Combined-Shape" fill="#373940"></path>
                    <path d="M158.590038,174.520343 C151.728045,173.761777 146.390805,167.94407 146.390805,160.879765 C146.390805,153.815461 151.728045,147.997754 158.590038,147.239188 L158.590038,147.155425 L182.988506,147.155425 L182.988506,174.604106 L158.590038,174.604106 L158.590038,174.520343 Z" id="Combined-Shape" fill="#373940" transform="translate(164.689655, 160.879765) rotate(-180.000000) translate(-164.689655, -160.879765) "></path>
                    <path d="M162.848414,168.334976 C159.052418,167.920384 156.099902,164.740737 156.099902,160.879765 C156.099902,157.018794 159.052418,153.839146 162.848414,153.424555 L162.848414,153.378775 L178.032567,153.378775 L178.032567,168.380756 L162.848414,168.380756 L162.848414,168.334976 Z" id="Combined-Shape" fill="#FBCE9D" transform="translate(167.066235, 160.879765) rotate(-180.000000) translate(-167.066235, -160.879765) "></path>
                    <path d="M30.9441999,168.334976 C27.1482035,167.920384 24.1956876,164.740737 24.1956876,160.879765 C24.1956876,157.018794 27.1482035,153.839146 30.9441999,153.424555 L30.9441999,153.378775 L46.1283525,153.378775 L46.1283525,168.380756 L30.9441999,168.380756 L30.9441999,168.334976 Z" id="Combined-Shape" fill="#FBCE9D"></path>
                    <rect id="Rectangle" fill="url(#linearGradient-1)" x="35.0727969" y="60.2346041" width="131.904215" height="194.428152" rx="65.9521073"></rect>
                    <path d="M35.1819456,115.726972 C35.1819456,115.726972 35.5102506,170.814907 34.9503612,183.51137 C34.3904718,196.207832 36.596654,202.258405 36.596654,202.258405 C36.596654,202.258405 47.5849921,252.740285 103.095779,253.820575 C108.946691,253.820575 119.456199,252.954345 128.669173,248.392065" id="Path-8" stroke="#373940" stroke-width="8" stroke-linecap="round" stroke-linejoin="round"></path>
                    <path d="M119.554955,180.723921 C119.554955,180.723921 131.880674,191.183065 161.900827,189.989707 C167.751739,189.989707 183.724935,189.989707 200.886022,189.989707" id="Path-8" stroke="#373940" stroke-width="8" stroke-linecap="round" stroke-linejoin="round" transform="translate(160.220489, 185.404249) rotate(-90.000000) translate(-160.220489, -185.404249) "></path>
                    <path d="M138.80309,233.360996 C138.80309,233.360996 141.651737,239.819932 147.739132,244.150547" id="Path-8" stroke="#373940" stroke-width="8" stroke-linecap="round" stroke-linejoin="round" transform="translate(143.271111, 238.755772) rotate(-90.000000) translate(-143.271111, -238.755772) "></path>
                    <ellipse id="Oval-4" fill="#373940" cx="65.1896552" cy="157.44868" rx="8.00574713" ry="8.0058651"></ellipse>
                    <ellipse id="Oval-4" fill="#373940" cx="133.810345" cy="157.44868" rx="8.00574713" ry="8.0058651"></ellipse>
                    <g id="Group" transform="translate(80.819923, 199.002933)">
                        <mask id="mask-3" fill="white">
                            <use xlink:href="#path-2"></use>
                        </mask>
                        <g id="Combined-Shape" stroke-linecap="round" stroke-linejoin="round">
                            <use fill-opacity="0.8" fill="#373940" fill-rule="evenodd" xlink:href="#path-2"></use>
                            <path stroke="#373940" stroke-width="7" d="M-0.263406338,-1.76046115 C-2.37135984,1.86166488 -3.5,5.99809469 -3.5,10.2932551 C-3.5,23.3705425 6.9273094,33.9985337 19.8237548,33.9985337 C32.7202002,33.9985337 43.1475096,23.3705425 43.1475096,10.2932551 C43.1475096,5.99809469 42.0188694,1.86166488 39.9109159,-1.76046115 L38.8985638,-3.5 L36.8858909,-3.5 L2.76161871,-3.5 L0.748945796,-3.5 L-0.263406338,-1.76046115 Z"></path>
                        </g>
                        <ellipse id="Oval-6" fill="#FF7158" mask="url(#mask-3)" cx="20.2049808" cy="30.4985337" rx="14.105364" ry="10.6744868"></ellipse>
                        <rect id="Rectangle-4" fill="#FFFFFF" mask="url(#mask-3)" x="-1.52490421" y="0" width="41.9348659" height="9.14956012"></rect>
                    </g>
                    <path d="M93.4875466,142.574005 L58.8209101,181.538914 L36.7348605,164.14641 C36.7348605,164.14641 23.2274479,132.356082 52.2065029,124.344618 C81.1855578,116.333153 93.4875466,142.574005 93.4875466,142.574005 Z" id="Path-7" fill-opacity="0.5" fill="url(#linearGradient-4)"></path>
                    <g id="Combined-Shape">
                        <use fill="url(#linearGradient-5)" fill-rule="evenodd" xlink:href="#path-6"></use>
                        <path stroke="#373940" stroke-width="9" d="M139.809823,129.422458 C126.999394,127.791813 116.256256,118.884669 112.19845,106.712285 L109.901651,99.8224719 L104.754638,104.946248 C93.8067835,115.844677 79.0432668,122.068915 63.2835249,122.068915 C30.8182954,122.068915 4.5,95.7502317 4.5,63.2844575 C4.5,30.8186832 30.8182954,4.5 63.2835249,4.5 C95.7487544,4.5 122.06705,30.8186832 122.06705,63.2844575 C122.06705,63.5805402 122.064864,63.87635 122.060498,64.1718724 L121.943444,72.0939996 L128.807501,68.1369152 C135.541098,64.2550406 142.457501,63.0737654 148.038537,64.9146183 C168.980407,71.8220988 177.726054,79.9269892 177.726054,96.0703812 C177.726054,97.2341806 177.667097,98.3899701 177.550077,99.5350079 L177.254065,102.431461 L179.7748,103.888498 C187.412409,108.303196 192.212644,116.443562 192.212644,125.42522 C192.212644,139.152183 181.084932,150.280059 167.358238,150.280059 C156.311692,150.280059 146.681435,143.00792 143.55122,132.59138 L142.709877,129.791607 L139.809823,129.422458 Z"></path>
                    </g>
                    <ellipse id="Oval-7" stroke="#373940" stroke-width="2" fill="#373940" cx="94.9252874" cy="186.422287" rx="2.66858238" ry="2.6686217"></ellipse>
                    <ellipse id="Oval-7" stroke="#373940" stroke-width="2" fill="#373940" cx="106.362069" cy="186.422287" rx="2.66858238" ry="2.6686217"></ellipse>
                    <ellipse id="Oval-3" stroke="#FF5537" stroke-width="7" cx="63.664751" cy="152.111437" rx="28.9042146" ry="28.9046921"></ellipse>
                    <path d="M162.108236,142.836119 L127.322809,181.410833 L105.35555,164.694815 C105.35555,164.694815 91.8481375,132.482593 120.827193,124.364806 C149.806247,116.24702 162.108236,142.836119 162.108236,142.836119 Z" id="Path-7" fill-opacity="0.5" fill="url(#linearGradient-7)"></path>
                    <ellipse id="Oval-3" stroke="#FF5537" stroke-width="7" cx="133.810345" cy="152.111437" rx="28.9042146" ry="28.9046921"></ellipse>
                    <rect id="Rectangle-2" fill="#FF5537" x="92.256705" y="149.442815" width="11.4367816" height="6.09970674"></rect>
                    <path d="M59.0900383,21.3489736 C36.9827781,21.3489736 19.0613027,39.2707131 19.0613027,61.3782991" id="Oval-9" stroke="#FFFFFF" stroke-width="12" opacity="0.262216938" stroke-linecap="round" stroke-linejoin="round"></path>
                </g>
            </g>
        </g>
    </g>
</svg>