<?xml version="1.0" encoding="UTF-8"?>
<svg width="462px" height="453px" viewBox="0 0 462 453" version="1.1" xmlns="http://www.w3.org/2000/svg" xmlns:xlink="http://www.w3.org/1999/xlink">
    <!-- Generator: Sketch 43.1 (39012) - http://www.bohemiancoding.com/sketch -->
    <title>Group 5</title>
    <desc>Created with Sketch.</desc>
    <defs></defs>
    <g id="Design" stroke="none" stroke-width="1" fill="none" fill-rule="evenodd">
        <g id="intro-2-copy" transform="translate(-31.000000, -13.000000)" fill="#FFFFFF">
            <g id="Group-5" transform="translate(262.000000, -86.000000) rotate(-180.000000) translate(-262.000000, 86.000000) translate(31.000000, -638.000000)">
                <circle id="Oval-7" opacity="0.77" transform="translate(63.463450, 324.133999) scale(-1, -1) rotate(-201.000000) translate(-63.463450, -324.133999) " cx="63.4634498" cy="324.133999" r="10"></circle>
                <circle id="Oval-7" opacity="0.99" transform="translate(426.888656, 294.599148) rotate(-353.000000) translate(-426.888656, -294.599148) " cx="426.888656" cy="294.599148" r="6"></circle>
                <path d="M310.339446,338.62945 C311.148762,337.376705 312.125037,335.865884 313.101311,334.355063 C314.193586,335.845722 315.28586,337.33638 316.351984,338.791419 C317.615911,339.686621 319.032046,340.689354 320.44751,341.69276 C319.003213,342.693477 317.557576,343.694867 316.193071,344.63913 C315.276473,346.018224 314.285447,347.509555 313.29375,349.001558 C312.239025,347.582139 311.183629,346.16272 309.767494,344.258736 C308.981647,343.725782 307.515894,342.731785 306.050141,341.737789 C307.45957,340.716237 308.86967,339.694686 310.339446,338.62945" id="Fill-12"></path>
                <rect id="Rectangle-3" opacity="0.87" transform="translate(173.969297, 446.236585) scale(1, -1) rotate(-159.000000) translate(-173.969297, -446.236585) " x="168.969297" y="441.236585" width="10" height="10"></rect>
                <path d="M11.4061055,60.0420715 C11.348441,63.2828093 9.10354568,65.5013236 5.89243352,65.4912425 C2.64444284,65.4811614 0.0736756515,62.8889743 0.185652209,59.7362781 C0.292264619,56.7267336 2.84895092,54.2447666 5.86293071,54.2246044 C9.14176523,54.202426 11.4671227,56.6433965 11.4061055,60.0420715" id="Fill-10"></path>
                <path d="M350.339446,68.6294496 C351.148762,67.3767048 352.125037,65.8658839 353.101311,64.3550629 C354.193586,65.8457217 355.28586,67.3363804 356.351984,68.7914193 C357.615911,69.686621 359.032046,70.6893545 360.44751,71.69276 C359.003213,72.6934773 357.557576,73.6948666 356.193071,74.6391297 C355.276473,76.0182243 354.285447,77.5095551 353.29375,79.001558 C352.239025,77.582139 351.183629,76.1627201 349.767494,74.2587362 C348.981647,73.725782 347.515894,72.7317855 346.050141,71.737789 C347.45957,70.7162374 348.86967,69.6946859 350.339446,68.6294496" id="Fill-12"></path>
                <path d="M86.7200756,8.45520557 C84.6394573,8.2878593 83.1529182,7.05863709 82.9390228,4.55785206 C82.7338442,2.15250145 84.554972,-0.0431622673 86.8427804,0.0852037474 C89.1788662,0.216930129 90.818954,1.43741538 91.0127338,3.9939825 C91.1951147,6.40336555 89.4376863,8.36245944 86.7200756,8.45520557" id="Fill-14"></path>
                <path d="M454.07496,186.428823 C454.07496,188.483351 454.29489,190.177648 453.983099,191.767102 C453.825527,192.570902 452.680282,193.76316 452.03055,193.732917 C451.286945,193.697969 450.145052,192.59308 449.980105,191.788608 C449.654904,190.199155 449.884221,188.496793 449.884221,186.426135 C448.104665,186.426135 446.512184,186.705045 445.090685,186.3307 C444.082226,186.065904 443.304425,184.918674 442.423364,184.16528 C443.268217,183.509336 444.032608,182.488457 444.976027,182.28213 C446.434404,181.961551 448.014145,182.197449 449.879527,182.197449 C449.879527,180.161739 449.616013,178.451312 449.982116,176.890086 C450.189307,176.007653 451.431777,175.368512 452.208237,174.619822 C452.83316,175.385986 453.831562,176.078893 454.000533,176.935787 C454.296902,178.433838 454.083006,180.032029 454.083006,182.192745 C455.786123,182.192745 457.343737,181.94475 458.767247,182.27541 C459.817279,182.519372 460.692305,183.519418 461.645782,184.182754 C460.642687,184.931444 459.736817,185.994664 458.611017,186.34347 C457.396037,186.720503 455.974539,186.428823 454.07496,186.428823" id="Fill-6"></path>
                <path d="M62.0211943,61.9427167 C62.0211943,63.997245 62.2411243,65.691542 61.9293333,67.2809956 C61.7717615,68.0847953 60.6265162,69.2770535 59.976784,69.2468102 C59.2331792,69.2118624 58.0912865,68.1069737 57.926339,67.3025019 C57.6011376,65.7130484 57.8304549,64.0106865 57.8304549,61.9400284 C56.0508993,61.9400284 54.4584183,62.2189389 53.0369195,61.844594 C52.02846,61.5797971 51.2506587,60.4325679 50.3695977,59.6791736 C51.2144507,59.02323 51.9788416,58.0023505 52.9222609,57.796024 C54.3806382,57.475445 55.9603793,57.7113428 57.8257612,57.7113428 C57.8257612,55.6756325 57.5622476,53.9652058 57.9283506,52.4039793 C58.1355407,51.521547 59.3780111,50.8824052 60.1544713,50.1337155 C60.7793944,50.8998791 61.7777961,51.5927867 61.9467668,52.4496803 C62.2431359,53.9477319 62.0292405,55.5459223 62.0292405,57.7066382 C63.732357,57.7066382 65.289971,57.4586432 66.7134814,57.7893033 C67.7635131,58.0332659 68.6385395,59.0333111 69.5920165,59.6966475 C68.5889211,60.4453373 67.6830509,61.5085573 66.5572506,61.8573634 C65.3422715,62.2343966 63.9207727,61.9427167 62.0211943,61.9427167" id="Fill-6"></path>
            </g>
        </g>
    </g>
</svg>