<svg version="1.1" xmlns="http://www.w3.org/2000/svg" xmlns:xlink="http://www.w3.org/1999/xlink" x="0px" y="0px"
	 viewBox="-945.6 348.3 52.5 52.5" style="enable-background:new -945.6 348.3 52.5 52.5;" xml:space="preserve">
<style type="text/css">
	.st0{fill:#EDF0F2;}
	.st1{fill:#373940;}
</style>
<g id="Laag_2">
</g>
<g id="Capa_1">
	<g>
		<path class="st0" d="M-912.1,389.6c-1.1-0.6-1.8-1.7-1.8-2.9v-3.3c0.2-0.2,0.5-0.6,0.8-1c1.1-1.6,2-3.4,2.6-5.3
			c1.1-0.3,1.9-1.3,1.9-2.5v-3.5c0-0.8-0.4-1.5-0.9-2V364c0,0,1-8-9.8-8c-10.9,0-9.8,8-9.8,8v5.2c-0.6,0.5-0.9,1.2-0.9,2v3.5
			c0,0.9,0.5,1.7,1.2,2.2c0.9,3.8,3.2,6.6,3.2,6.6v3.2c0,1.1-0.7,2.2-1.7,2.8l-7.9,4.3c-0.4,0.3-0.8,0.5-1.1,0.8
			c4.6,3.9,10.5,6.3,17,6.3c6.5,0,12.4-2.4,17-6.2c-0.4-0.3-0.8-0.6-1.3-0.8L-912.1,389.6z"/>
		<path class="st1" d="M-893,374.6c0-14.5-11.8-26.3-26.3-26.3c-14.5,0-26.3,11.8-26.3,26.3c0,8,3.6,15.2,9.2,20
			c0.4-0.3,0.7-0.5,1.1-0.8l7.9-4.3c1-0.6,1.7-1.7,1.7-2.8v-3.2c0,0-2.3-2.8-3.2-6.6c-0.7-0.5-1.2-1.3-1.2-2.2v-3.5
			c0-0.8,0.3-1.5,0.9-2V364c0,0-1.1-8,9.8-8c10.8,0,9.8,8,9.8,8v5.1c0.5,0.5,0.9,1.2,0.9,2v3.5c0,1.2-0.8,2.2-1.9,2.5
			c-0.6,1.9-1.5,3.7-2.6,5.3c-0.3,0.4-0.6,0.8-0.8,1v3.3c0,1.2,0.7,2.3,1.8,2.9l8.5,4.2c0.5,0.3,0.9,0.6,1.3,0.8
			C-896.6,389.8-893,382.6-893,374.6z"/>
	</g>
</g>
</svg>
