<?xml version="1.0" encoding="utf-8"?>
<!-- Generator: Adobe Illustrator 19.0.0, SVG Export Plug-In . SVG Version: 6.00 Build 0)  -->
<svg version="1.1" id="Laag_1" xmlns="http://www.w3.org/2000/svg" xmlns:xlink="http://www.w3.org/1999/xlink" x="0px" y="0px"
	 viewBox="0 0 60 60" style="enable-background:new 0 0 60 60;" xml:space="preserve">
<style type="text/css">
	.st0{fill:url(#Combined-Shape_1_);}
</style>
<g id="Symbols">
	<g id="logo_x2F_default">
		<g id="logo">
			<g id="hand_x2F_straight-variation-5">
				<g id="shape">
					
						<linearGradient id="Combined-Shape_1_" gradientUnits="userSpaceOnUse" x1="-385.7361" y1="325.0881" x2="-385.4445" y2="325.0369" gradientTransform="matrix(95.8371 0 0 -100.5585 36986.7695 32716.6895)">
						<stop  offset="0" style="stop-color:#F8592C"/>
						<stop  offset="1" style="stop-color:#FF3D95"/>
					</linearGradient>
					<path id="Combined-Shape" class="st0" d="M25.7,40.7l8.4,6.6c3.2,2.5,6.3,0.6,7-4.1l3.6-25.6c0.7-4.8-2.4-7.1-6.8-5.3L14,22
						c-4.1,1.7-5.3,4.7-3,7.1c3.9,3.7,13.7,0.2,14.6-1.1c1.3-2,1.2-1.8,2.6-3.5c1.3-1.6,2-3.4,2.1-4l0-0.2c0.1-0.4,0.2-0.8,0.8-0.8
						c1.3,0,2,1.5,2,2.9c0,0.9-0.3,2-1,3.6c-0.3,0.6-0.2,1-0.1,1.2c0.1,0.1,0.1,0.1,0.3,0.1h5.3c0.6,0.1,1.8,0.6,1.8,1.9
						c0,0.9-0.3,1.4-0.6,1.7c0.3,0.3,0.6,0.8,0.6,1.5c0,0.9-0.6,1.5-1.1,1.8c0.2,0.3,0.5,0.7,0.5,1.4c0,1-0.9,1.6-1.5,1.8
						c0.2,0.4,0.3,0.9,0.2,1.5c-0.2,1.1-0.5,1.7-7.1,2C29.1,41,27.3,40.9,25.7,40.7z"/>
				</g>
			</g>
		</g>
	</g>
</g>
</svg>
