<?xml version="1.0" encoding="UTF-8"?>
<svg width="10px" height="19px" viewBox="0 0 10 19" version="1.1" xmlns="http://www.w3.org/2000/svg" xmlns:xlink="http://www.w3.org/1999/xlink">
    <!-- Generator: Sketch 43.2 (39069) - http://www.bohemiancoding.com/sketch -->
    <title>Arrow-left - simple-line-icons</title>
    <desc>Created with Sketch.</desc>
    <defs></defs>
    <g id="Symbols" stroke="none" stroke-width="1" fill="none" fill-rule="evenodd">
        <g id="speak-question-header" transform="translate(-24.000000, -20.000000)" fill="#FFFFFF">
            <path d="M32.796875,20.3007812 C32.9140631,20.1835932 33.0546867,20.125 33.21875,20.125 C33.3828133,20.125 33.5234369,20.1835932 33.640625,20.3007812 C33.6875002,20.3359377 33.7226561,20.3769529 33.7460938,20.4238281 C33.7695314,20.4707034 33.7871093,20.5205075 33.7988281,20.5732422 C33.8105469,20.6259768 33.8164062,20.6787107 33.8164062,20.7314453 C33.8164062,20.78418 33.8105469,20.8339841 33.7988281,20.8808594 C33.7871093,20.9277346 33.7695314,20.9746091 33.7460938,21.0214844 C33.7226561,21.0683596 33.6875002,21.1152341 33.640625,21.1621094 L25.625,29.1777344 L33.5351562,37.0878906 C33.6054691,37.1582035 33.6552733,37.2460932 33.6845703,37.3515625 C33.7138673,37.4570318 33.7138673,37.5624995 33.6845703,37.6679688 C33.6552733,37.773438 33.6054691,37.8613278 33.5351562,37.9316406 C33.4179682,38.0488287 33.2744149,38.1074219 33.1044922,38.1074219 C32.9345695,38.1074219 32.7910162,38.0488287 32.6738281,37.9316406 L24.3417969,29.5996094 C24.2246088,29.4824213 24.1660156,29.3417977 24.1660156,29.1777344 C24.1660156,29.0136711 24.2246088,28.8730475 24.3417969,28.7558594 L32.796875,20.3007812 Z" id="Arrow-left---simple-line-icons"></path>
        </g>
    </g>
</svg>