<?xml version="1.0" encoding="UTF-8"?>
<svg width="17px" height="18px" viewBox="0 0 17 18" version="1.1" xmlns="http://www.w3.org/2000/svg" xmlns:xlink="http://www.w3.org/1999/xlink">
    <!-- Generator: Sketch 43.1 (39012) - http://www.bohemiancoding.com/sketch -->
    <title>ion-checkmark-circled - Ionicons</title>
    <desc>Created with Sketch.</desc>
    <defs></defs>
    <g id="Vraag-toevoegen---tekst" stroke="none" stroke-width="1" fill="none" fill-rule="evenodd">
        <g id="iPhone-5/SE---Vraag-stellen-Copy" transform="translate(-273.000000, -510.000000)" fill="#FFFFFF">
            <g id="plaatsen-copy" transform="translate(170.000000, 498.000000)">
                <path d="M111.3125,12.5625 C113.613293,12.5625 115.573885,13.3727133 117.194336,14.9931641 C118.814787,16.6136149 119.625,18.5742072 119.625,20.875 C119.625,23.1757928 118.814787,25.1363851 117.194336,26.7568359 C115.573885,28.3772867 113.613293,29.1875 111.3125,29.1875 C109.011707,29.1875 107.051115,28.3772867 105.430664,26.7568359 C103.810213,25.1363851 103,23.1757928 103,20.875 C103,18.5742072 103.810213,16.6136149 105.430664,14.9931641 C107.051115,13.3727133 109.011707,12.5625 111.3125,12.5625 Z M115.580078,18.0917969 C115.604818,18.0670572 115.617188,18.0299482 115.617188,17.9804688 C115.617188,17.9062496 115.604818,17.856771 115.580078,17.8320312 L114.429688,16.9414062 C114.404948,16.9166665 114.355469,16.9042969 114.28125,16.9042969 C114.231771,16.9042969 114.194662,16.9166665 114.169922,16.9414062 L110.050781,22.2480469 C108.962234,21.2089792 108.405599,20.6770835 108.380859,20.6523438 C108.30664,20.5781246 108.232422,20.5410156 108.158203,20.5410156 C108.133463,20.5410156 108.083985,20.5781246 108.009766,20.6523438 L107.044922,21.6171875 C107.020182,21.6419272 107.007812,21.6914059 107.007812,21.765625 C107.007812,21.8151044 107.020182,21.8522134 107.044922,21.8769531 L107.119141,21.9140625 C109.048838,23.7695405 110.026042,24.7096353 110.050781,24.734375 C110.125,24.8085941 110.186849,24.8457031 110.236328,24.8457031 C110.285808,24.8457031 110.347656,24.8085941 110.421875,24.734375 L115.580078,18.0917969 Z" id="ion-checkmark-circled---Ionicons"></path>
            </g>
        </g>
    </g>
</svg>