<?xml version="1.0" encoding="UTF-8"?>
<svg width="16px" height="17px" viewBox="0 0 16 17" version="1.1" xmlns="http://www.w3.org/2000/svg" xmlns:xlink="http://www.w3.org/1999/xlink">
    <!-- Generator: Sketch 43.2 (39069) - http://www.bohemiancoding.com/sketch -->
    <title></title>
    <desc>Created with Sketch.</desc>
    <defs></defs>
    <g id="Logo" stroke="none" stroke-width="1" fill="none" fill-rule="evenodd">
        <g id="Ideas" transform="translate(-2044.000000, -1389.000000)" fill="#FFFFFF">
            <path d="M2058.57478,1389.85714 C2058.80915,1389.85714 2059.01004,1389.94085 2059.17746,1390.10826 C2059.34487,1390.27567 2059.42857,1390.47656 2059.42857,1390.71094 L2059.42857,1404.43192 C2059.42857,1404.6663 2059.34487,1404.86719 2059.17746,1405.0346 C2059.01004,1405.20201 2058.80915,1405.28571 2058.57478,1405.28571 L2054.64732,1405.28571 L2054.64732,1399.30915 L2056.64621,1399.30915 L2056.94754,1396.97879 L2054.64732,1396.97879 L2054.64732,1395.49219 C2054.64732,1395.11719 2054.726,1394.83594 2054.88337,1394.64844 C2055.04074,1394.46094 2055.3471,1394.36719 2055.80246,1394.36719 L2057.0279,1394.35714 L2057.0279,1392.2779 C2056.60602,1392.21763 2056.01005,1392.1875 2055.23996,1392.1875 C2054.32924,1392.1875 2053.60101,1392.45535 2053.05525,1392.99107 C2052.50948,1393.52679 2052.23661,1394.28348 2052.23661,1395.26116 L2052.23661,1396.97879 L2050.22768,1396.97879 L2050.22768,1399.30915 L2052.23661,1399.30915 L2052.23661,1405.28571 L2044.85379,1405.28571 C2044.61942,1405.28571 2044.41853,1405.20201 2044.25112,1405.0346 C2044.0837,1404.86719 2044,1404.6663 2044,1404.43192 L2044,1390.71094 C2044,1390.47656 2044.0837,1390.27567 2044.25112,1390.10826 C2044.41853,1389.94085 2044.61942,1389.85714 2044.85379,1389.85714 L2058.57478,1389.85714 Z" id=""></path>
        </g>
    </g>
</svg>