<?xml version="1.0" encoding="utf-8"?>
<!-- Generator: Adobe Illustrator 21.1.0, SVG Export Plug-In . SVG Version: 6.00 Build 0)  -->
<svg version="1.1" id="Laag_1" xmlns="http://www.w3.org/2000/svg" xmlns:xlink="http://www.w3.org/1999/xlink" x="0px" y="0px"
	 viewBox="0 0 50 50" style="enable-background:new 0 0 50 50;" xml:space="preserve">
<style type="text/css">
	.st0{fill:#202227;}
</style>
<title>report</title>
<desc>Created with Sketch.</desc>
<g id="Symbols">
	<g id="cards_x2F_card-1" transform="translate(-458.000000, -256.000000)">
		<g id="card-1">
			<g id="footer" transform="translate(24.000000, 255.000000)">
				<path id="report" class="st0" d="M482,42.4c0.7,0.5,1.3,0.9,2,1.2c-0.9,0.9-1.9,1.6-3.2,2.1c-3.6,1.1-7.4,1.2-11.2,0.2
					c-3.8-1-6.4-3.5-7.8-7.7c-1.8-5.5-4-9.1-6.7-10.8l-0.1-0.1l-0.2-0.1c-1-0.5-1.6-1.1-1.9-1.9L467,10.3c0.6-0.6,1.3-0.9,2.3-1
					c0.9,0,1.8,0.2,2.6,0.8c5.6,4.1,7.4,9.8,5.3,17C475.4,33.5,477,38.5,482,42.4z M468.5,5c0.4,0.4,0.4,0.8,0,1.2l-31.1,33.1
					c-0.4,0.4-0.8,0.4-1.2,0l-1.2-1.2c-0.4-0.4-0.4-0.8,0-1.2l31.1-33.1c0.4-0.4,0.8-0.4,1.2,0L468.5,5z"/>
			</g>
		</g>
	</g>
</g>
</svg>
