<?xml version="1.0" encoding="utf-8"?>
<!-- Generator: Adobe Illustrator 19.0.0, SVG Export Plug-In . SVG Version: 6.00 Build 0)  -->
<svg version="1.1"
	 id="Laag_1" xmlns:sodipodi="http://sodipodi.sourceforge.net/DTD/sodipodi-0.dtd" xmlns:rdf="http://www.w3.org/1999/02/22-rdf-syntax-ns#" xmlns:dc="http://purl.org/dc/elements/1.1/" xmlns:inkscape="http://www.inkscape.org/namespaces/inkscape" xmlns:cc="http://creativecommons.org/ns#" xmlns:svg="http://www.w3.org/2000/svg"
	 xmlns="http://www.w3.org/2000/svg" xmlns:xlink="http://www.w3.org/1999/xlink" x="0px" y="0px" viewBox="-365 240.3 90 90"
	 style="enable-background:new -365 240.3 90 90;" xml:space="preserve">
<style type="text/css">
	.st0{fill:#FFFFFF;}
</style>
<g transform="translate(0,-952.36218)">
	<path class="st0" d="M-328,1192.6c-1.5,0.1-2.7,1.3-2.9,2.4l-1.6,8.9c-0.8,0.3-1.6,0.6-2.3,1l-7.5-5.2c-1.1-0.8-2.8-0.6-3.8,0.4
		l-11.3,11.3c-1,1-1.1,2.7-0.3,3.8l5.2,7.4c-0.3,0.8-0.6,1.5-0.9,2.3l-8.9,1.6c-1.4,0.2-2.5,1.6-2.5,3v16c0,1.4,1.1,2.7,2.5,2.9
		l8.9,1.6c0.3,0.8,0.6,1.6,1,2.3l-5.2,7.4c-0.8,1.1-0.6,2.8,0.3,3.8l11.3,11.3c1,1,2.7,1.2,3.8,0.4l7.5-5.2c0.8,0.3,1.5,0.7,2.3,1
		l1.6,8.9c0.2,1.4,1.5,2.5,2.9,2.5h16c1.4,0,2.7-1.1,2.9-2.5l1.6-8.9c0.8-0.3,1.6-0.6,2.3-1l7.4,5.2c1.2,0.8,2.9,0.6,3.8-0.4
		l11.3-11.3c1-1,1.1-2.7,0.3-3.8l-5.2-7.4c0.3-0.7,0.6-1.5,0.9-2.3l8.9-1.7c1.4-0.2,2.5-1.5,2.5-2.9v-16c0-1.4-1.1-2.7-2.5-3
		l-8.9-1.6c-0.3-0.8-0.6-1.5-1-2.3l5.2-7.5c0.8-1.1,0.6-2.8-0.3-3.8l-11.3-11.3c-1-1-2.7-1.1-3.8-0.3l-7.4,5.1
		c-0.8-0.3-1.5-0.7-2.3-1l-1.6-8.9c-0.3-1.4-1.6-2.4-2.9-2.4C-312,1192.6-328,1192.6-328,1192.6z M-325.5,1198.6h11l1.5,8
		c0.2,1.1,1,2,2,2.3c1.7,0.5,3.3,1.2,4.9,2c1,0.5,2.2,0.4,3.1-0.2l6.7-4.7l7.8,7.8l-4.7,6.8c-0.6,0.9-0.7,2.1-0.2,3.1
		c0.8,1.5,1.4,3.1,2,4.8c0.3,1,1.3,1.9,2.3,2.1l8.1,1.5v11l-8.1,1.5c-1.1,0.2-2,1-2.3,2.1c-0.5,1.7-1.2,3.3-2,4.8
		c-0.5,1-0.4,2.2,0.2,3.1l4.7,6.7l-7.8,7.8l-6.7-4.6c-0.9-0.6-2.1-0.7-3.1-0.2c-1.5,0.8-3.2,1.5-4.9,2c-1,0.3-1.8,1.3-2,2.3
		l-1.5,8.1h-11l-1.5-8.1c-0.2-1.1-1-2-2-2.3c-1.7-0.5-3.4-1.2-4.9-2c-1-0.5-2.2-0.4-3.1,0.2l-6.7,4.6l-7.8-7.8l4.7-6.7
		c0.6-0.9,0.7-2.2,0.2-3.1c-0.8-1.6-1.5-3.2-2-4.8c-0.3-1-1.3-1.9-2.3-2.1l-8-1.5v-11l8-1.5c1.1-0.2,2-1,2.3-2.1
		c0.5-1.7,1.2-3.3,2-4.8c0.5-1,0.4-2.2-0.2-3.1l-4.7-6.7l7.8-7.8l6.8,4.7c0.9,0.6,2.1,0.7,3.1,0.2c1.5-0.8,3.2-1.5,4.9-2
		c1-0.3,1.8-1.3,2-2.3L-325.5,1198.6L-325.5,1198.6z M-320,1216.6c-11.6,0-21,9.4-21,21c0,11.6,9.4,21,21,21c11.6,0,21-9.4,21-21
		C-299,1226.1-308.4,1216.6-320,1216.6z M-320,1222.6c8.3,0,15,6.7,15,15c0,8.3-6.7,15-15,15s-15-6.7-15-15
		C-335,1229.3-328.3,1222.6-320,1222.6z"/>
</g>
</svg>
