<?xml version="1.0" encoding="UTF-8"?>
<svg width="28px" height="29px" viewBox="0 0 28 29" version="1.1" xmlns="http://www.w3.org/2000/svg" xmlns:xlink="http://www.w3.org/1999/xlink">
    <!-- Generator: Sketch 43.2 (39069) - http://www.bohemiancoding.com/sketch -->
    <title>super g</title>
    <desc>Created with Sketch.</desc>
    <defs></defs>
    <g id="Design" stroke="none" stroke-width="1" fill="none" fill-rule="evenodd">
        <g id="Login-screen" transform="translate(-134.000000, -527.000000)" fill="#000000">
            <g id="button" transform="translate(121.000000, 509.000000)">
                <g id="super-g" transform="translate(12.912469, 18.821245)">
                    <path d="M14,5.41333333 C16.6288889,5.41333333 18.4022222,6.54888889 19.4133333,7.49777778 L23.3644444,3.64 C20.9377778,1.38444444 17.78,0 14,0 C8.52444444,0 3.79555556,3.14222222 1.49333333,7.71555556 L6.02,11.2311111 C7.15555556,7.85555556 10.2977778,5.41333333 14,5.41333333 L14,5.41333333 Z" id="Shape" fill="#EA4335"></path>
                    <path d="M27.44,14.3111111 C27.44,13.16 27.3466667,12.32 27.1444444,11.4488889 L14,11.4488889 L14,16.6444444 L21.7155556,16.6444444 C21.56,17.9355556 20.72,19.88 18.8533333,21.1866667 L23.2711111,24.6088889 C25.9155556,22.1666667 27.44,18.5733333 27.44,14.3111111 L27.44,14.3111111 Z" id="Shape" fill="#4285F4"></path>
                    <path d="M6.03555556,16.7688889 C5.74,15.8977778 5.56888889,14.9644444 5.56888889,14 C5.56888889,13.0355556 5.74,12.1022222 6.02,11.2311111 L1.49333333,7.71555556 C0.544444444,9.61333333 0,11.7444444 0,14 C0,16.2555556 0.544444444,18.3866667 1.49333333,20.2844444 L6.03555556,16.7688889 L6.03555556,16.7688889 Z" id="Shape" fill="#FBBC05"></path>
                    <path d="M14,28 C17.78,28 20.9533333,26.7555556 23.2711111,24.6088889 L18.8533333,21.1866667 C17.6711111,22.0111111 16.0844444,22.5866667 14,22.5866667 C10.2977778,22.5866667 7.15555556,20.1444444 6.03555556,16.7688889 L1.50888889,20.2844444 C3.81111111,24.8577778 8.52444444,28 14,28 L14,28 Z" id="Shape" fill="#34A853"></path>
                    <polygon id="Shape" fill="none" points="0 0 28 0 28 28 0 28"></polygon>
                </g>
            </g>
        </g>
    </g>
</svg>