<?xml version="1.0" encoding="utf-8"?>
<!-- Generator: Adobe Illustrator 21.1.0, SVG Export Plug-In . SVG Version: 6.00 Build 0)  -->
<svg version="1.1" id="Capa_1" xmlns="http://www.w3.org/2000/svg" xmlns:xlink="http://www.w3.org/1999/xlink" x="0px" y="0px"
	 viewBox="0 0 50 50" style="enable-background:new 0 0 50 50;" xml:space="preserve">
<style type="text/css">
	.st0{fill:#202227;}
</style>
<g>
	<path class="st0" d="M46,7.1c-2.6-2.6-6.1-4-9.8-4S29,4.5,26.4,7.1L25,8.5l-1.4-1.4C21,4.5,17.5,3,13.8,3c-3.7,0-7.2,1.4-9.8,4
		C1.4,9.7,0,13.2,0,16.9c0,3.7,1.5,7.2,4.1,9.8L24,46.6c0.3,0.3,0.6,0.4,1,0.4s0.7-0.1,1-0.4l19.9-19.9c2.6-2.6,4.1-6.1,4.1-9.8
		C50,13.2,48.6,9.7,46,7.1z M43.9,24.7L25,43.5L6.1,24.6c-2.1-2.1-3.2-4.8-3.2-7.8S4,11.2,6.1,9.1c2.1-2.1,4.8-3.2,7.7-3.2
		c2.9,0,5.7,1.1,7.8,3.2l2.4,2.4c0.6,0.6,1.5,0.6,2,0l2.4-2.4c2.1-2.1,4.8-3.2,7.8-3.2c2.9,0,5.7,1.1,7.8,3.2
		c2.1,2.1,3.2,4.8,3.2,7.8C47.1,19.8,46,22.6,43.9,24.7z"/>
</g>
</svg>
