<?xml version="1.0" encoding="UTF-8"?>
<svg width="30px" height="28px" viewBox="0 0 30 28" version="1.1" xmlns="http://www.w3.org/2000/svg" xmlns:xlink="http://www.w3.org/1999/xlink">
    <!-- Generator: Sketch 43.1 (39012) - http://www.bohemiancoding.com/sketch -->
    <title>heart</title>
    <desc>Created with Sketch.</desc>
    <defs>
        <filter x="-2.5%" y="-2.7%" width="249.3%" height="107.6%" filterUnits="objectBoundingBox" id="filter-1">
            <feOffset dx="0" dy="2" in="SourceAlpha" result="shadowOffsetOuter1"></feOffset>
            <feGaussianBlur stdDeviation="2" in="shadowOffsetOuter1" result="shadowBlurOuter1"></feGaussianBlur>
            <feColorMatrix values="0 0 0 0 0   0 0 0 0 0   0 0 0 0 0  0 0 0 0.15 0" type="matrix" in="shadowBlurOuter1" result="shadowMatrixOuter1"></feColorMatrix>
            <feMerge>
                <feMergeNode in="shadowMatrixOuter1"></feMergeNode>
                <feMergeNode in="SourceGraphic"></feMergeNode>
            </feMerge>
        </filter>
    </defs>
    <g id="Feed-page" stroke="none" stroke-width="1" fill="none" fill-rule="evenodd">
        <g id="iPhone-5/SE---Keuze-vraag-stellen" transform="translate(-104.000000, -216.000000)" stroke="#FFFFFF" fill="#FF5537">
            <g id="card-2" filter="url(#filter-1)" transform="translate(20.000000, 69.000000)">
                <g id="footer" transform="translate(89.000000, 149.000000)">
                    <g id="heart" transform="translate(0.000000, 1.000000)">
                        <path d="M5.61403509,0 C6.38077057,0 7.14424571,0.246793427 7.90448343,0.740387684 C8.66472115,1.23398194 9.36321969,1.79251443 10,2.41600192 C10.6107893,1.79251443 11.3027902,1.23398194 12.0760234,0.740387684 C12.8492566,0.246793427 13.6062341,0 14.3469786,0 C15.113714,0 15.8219591,0.139633123 16.4717349,0.418903558 C17.1215107,0.698173993 17.7257932,1.12356793 18.2846004,1.69509812 C18.8564031,2.25363899 19.2852487,2.89335353 19.5711501,3.61426093 C19.8570515,4.33516833 20,5.06580677 20,5.80619816 C20,6.54658954 19.8570515,7.27722798 19.5711501,7.99813538 C19.2852487,8.71904278 18.8564031,9.36525189 18.2846004,9.93678208 C18.2716049,9.9497714 17.8979894,10.3491871 17.1637427,11.1350411 C16.429496,11.9208951 15.6302837,12.7846721 14.7660819,13.726398 C13.90188,14.6681239 13.1091654,15.5254063 12.3879142,16.298271 L11.3060429,17.4575622 C11.1241057,17.6394128 10.9194293,17.7757986 10.6920078,17.8667239 C10.4645863,17.9576491 10.2339193,18.0031111 10,18.0031111 C9.75308519,18.0031111 9.5191694,17.9576491 9.29824561,17.8667239 C9.07732183,17.7757986 8.87589435,17.6394128 8.69395712,17.4575622 L7.69005848,16.3567227 C7.02078938,15.6228259 6.27030955,14.794769 5.43859649,13.8725271 C4.60688343,12.9502852 3.81741764,12.0800137 3.07017544,11.2616864 C2.32293324,10.443359 1.87134581,9.94977218 1.71539961,9.78091099 C1.14359688,9.20938079 0.714751267,8.56641897 0.428849903,7.85200623 C0.142948538,7.13759349 0,6.40695505 0,5.66006901 C0,4.91318296 0.142948538,4.18254453 0.428849903,3.46813178 C0.714751267,2.75371904 1.14359688,2.11075722 1.71539961,1.53922703 C2.26121131,0.99367548 2.86224493,0.600754366 3.51851852,0.360451899 C4.17479211,0.120149431 4.87329064,0 5.61403509,0 Z" id="Combined-Shape"></path>
                    </g>
                </g>
            </g>
        </g>
    </g>
</svg>