<?xml version="1.0" encoding="utf-8"?>
<!-- Generator: Adobe Illustrator 21.1.0, SVG Export Plug-In . SVG Version: 6.00 Build 0)  -->
<svg version="1.1" id="Capa_1" xmlns="http://www.w3.org/2000/svg" xmlns:xlink="http://www.w3.org/1999/xlink" x="0px" y="0px"
	 viewBox="0 0 50 50" style="enable-background:new 0 0 50 50;" xml:space="preserve">
<style type="text/css">
	.st0{fill:#202227;}
</style>
<g>
	<path class="st0" d="M46,5.2c-2.6-2.9-6.1-4.5-9.8-4.5S29,2.3,26.4,5.2L25,6.8l-1.4-1.6c-2.6-2.9-6.1-4.6-9.8-4.6
		c-3.7,0-7.2,1.6-9.8,4.5C1.4,8.1,0,12,0,16.2c0,4.2,1.5,8,4.1,11L24,49.5c0.3,0.3,0.6,0.5,1,0.5s0.7-0.2,1-0.5l19.9-22.3
		c2.6-2.9,4.1-6.8,4.1-11C50,12.1,48.6,8.2,46,5.2z M43.9,24.9L25,46.1L6.1,24.9c-2.1-2.3-3.2-5.4-3.2-8.7S4,9.8,6.1,7.5
		c2.1-2.3,4.8-3.6,7.7-3.6c2.9,0,5.7,1.3,7.8,3.6l2.4,2.7c0.6,0.6,1.5,0.6,2,0l2.4-2.7c2.1-2.3,4.8-3.6,7.8-3.6
		c2.9,0,5.7,1.3,7.8,3.6c2.1,2.3,3.2,5.4,3.2,8.7C47.1,19.5,46,22.6,43.9,24.9z"/>
</g>
</svg>
