<?xml version="1.0" encoding="UTF-8"?>
<svg width="22px" height="22px" viewBox="0 0 22 22" version="1.1" xmlns="http://www.w3.org/2000/svg" xmlns:xlink="http://www.w3.org/1999/xlink">
    <!-- Generator: Sketch 43.1 (39012) - http://www.bohemiancoding.com/sketch -->
    <title></title>
    <desc>Created with Sketch.</desc>
    <defs></defs>
    <g id="Symbols" stroke="none" stroke-width="1" fill="none" fill-rule="evenodd">
        <g id="write-question-header" transform="translate(-276.000000, -19.000000)" fill="#FFFFFF">
            <path d="M288.066,26.65 L288.066,24.466 L285.934,24.466 L285.934,26.65 L288.066,26.65 Z M288.066,35.334 L288.066,28.834 L285.934,28.834 L285.934,35.334 L288.066,35.334 Z M287,19.084 C288.97601,19.084 290.804658,19.5779951 292.486,20.566 C294.115341,21.5020047 295.397995,22.7846585 296.334,24.414 C297.322005,26.0953417 297.816,27.9239901 297.816,29.9 C297.816,31.8760099 297.322005,33.7046583 296.334,35.386 C295.397995,37.0153415 294.115341,38.2979953 292.486,39.234 C290.804658,40.2220049 288.97601,40.716 287,40.716 C285.02399,40.716 283.195342,40.2220049 281.514,39.234 C279.884659,38.2806619 278.602005,36.9893415 277.666,35.36 C276.677995,33.6786583 276.184,31.8586765 276.184,29.9 C276.184,27.9413235 276.677995,26.1213417 277.666,24.44 C278.619338,22.8106585 279.910659,21.5193381 281.54,20.566 C283.221342,19.5779951 285.041324,19.084 287,19.084 Z" id=""></path>
        </g>
    </g>
</svg>