<?xml version="1.0" encoding="utf-8"?>
<!-- Generator: Adobe Illustrator 19.0.0, SVG Export Plug-In . SVG Version: 6.00 Build 0)  -->
<svg version="1.1"
	 id="Laag_1" xmlns:dc="http://purl.org/dc/elements/1.1/" xmlns:rdf="http://www.w3.org/1999/02/22-rdf-syntax-ns#" xmlns:cc="http://creativecommons.org/ns#" xmlns:sodipodi="http://sodipodi.sourceforge.net/DTD/sodipodi-0.dtd" xmlns:svg="http://www.w3.org/2000/svg" xmlns:inkscape="http://www.inkscape.org/namespaces/inkscape"
	 xmlns="http://www.w3.org/2000/svg" xmlns:xlink="http://www.w3.org/1999/xlink" x="0px" y="0px" viewBox="-740 501.5 54 82"
	 style="enable-background:new -740 501.5 54 82;" xml:space="preserve">
<style type="text/css">
	.st0{fill:#4990E2;}
</style>
<g transform="translate(0,-952.36218)">
	<path class="st0" d="M-713,1453.9c-9.9,0-18,8.1-18,18v24c0,9.9,8.1,18,18,18s18-8.1,18-18v-24C-695,1462-703.1,1453.9-713,1453.9z
		 M-713,1457.9c7.8,0,14,6.2,14,14v24c0,7.8-6.2,14-14,14s-14-6.2-14-14v-24C-727,1464.2-720.8,1457.9-713,1457.9z M-738.2,1482.9
		c-1,0.1-1.8,1-1.8,2v11c0,14.1,11,25.9,25,26.9v9.1h-12c-1.1,0-2,0.9-2,2s0.9,2,2,2h28c1.1,0,2-0.9,2-2s-0.9-2-2-2h-12v-9.1
		c14-1,25-12.8,25-26.9v-11c0-1.1-0.9-2-2-2s-2,1-2,2v11c0,12.6-10.2,23-23,23s-23-10.4-23-23v-11
		C-736,1483.8-737.1,1482.8-738.2,1482.9L-738.2,1482.9z"/>
</g>
</svg>
