<?xml version="1.0" encoding="utf-8"?>
<!-- Generator: Adobe Illustrator 19.0.0, SVG Export Plug-In . SVG Version: 6.00 Build 0)  -->
<svg version="1.1"
	 id="Laag_1" xmlns:inkscape="http://www.inkscape.org/namespaces/inkscape" xmlns:svg="http://www.w3.org/2000/svg" xmlns:sodipodi="http://sodipodi.sourceforge.net/DTD/sodipodi-0.dtd" xmlns:cc="http://creativecommons.org/ns#" xmlns:rdf="http://www.w3.org/1999/02/22-rdf-syntax-ns#" xmlns:dc="http://purl.org/dc/elements/1.1/"
	 xmlns="http://www.w3.org/2000/svg" xmlns:xlink="http://www.w3.org/1999/xlink" x="0px" y="0px" viewBox="-1133 758.8 54 82"
	 style="enable-background:new -1133 758.8 54 82;" xml:space="preserve">
<style type="text/css">
	.st0{fill:#FFFFFF;}
</style>
<g transform="translate(0,-952.36218)">
	<path class="st0" d="M-1106,1711.2c-9.9,0-18,8.1-18,18v24c0,9.9,8.1,18,18,18s18-8.1,18-18v-24
		C-1088,1719.3-1096.1,1711.2-1106,1711.2z M-1106,1715.2c7.8,0,14,6.2,14,14v24c0,7.8-6.2,14-14,14s-14-6.2-14-14v-24
		C-1120,1721.5-1113.8,1715.2-1106,1715.2z M-1131.2,1740.2c-1,0.1-1.8,1-1.8,2v11c0,14.1,11,25.9,25,26.9v9.1h-12c-1.1,0-2,0.9-2,2
		s0.9,2,2,2h28c1.1,0,2-0.9,2-2s-0.9-2-2-2h-12v-9.1c14-1,25-12.8,25-26.9v-11c0-1.1-0.9-2-2-2s-2,1-2,2v11c0,12.6-10.2,23-23,23
		s-23-10.4-23-23v-11C-1129,1741.1-1130.1,1740.1-1131.2,1740.2L-1131.2,1740.2z"/>
</g>
</svg>
