<?xml version="1.0" encoding="utf-8"?>
<!-- Generator: Adobe Illustrator 19.0.0, SVG Export Plug-In . SVG Version: 6.00 Build 0)  -->
<svg version="1.1"
	 id="Laag_1" xmlns:dc="http://purl.org/dc/elements/1.1/" xmlns:rdf="http://www.w3.org/1999/02/22-rdf-syntax-ns#" xmlns:cc="http://creativecommons.org/ns#" xmlns:sodipodi="http://sodipodi.sourceforge.net/DTD/sodipodi-0.dtd" xmlns:svg="http://www.w3.org/2000/svg" xmlns:inkscape="http://www.inkscape.org/namespaces/inkscape"
	 xmlns="http://www.w3.org/2000/svg" xmlns:xlink="http://www.w3.org/1999/xlink" x="0px" y="0px" viewBox="-740 497.5 86.1 86"
	 style="enable-background:new -740 497.5 86.1 86;" xml:space="preserve">
<style type="text/css">
	.st0{fill:#4990E2;}
</style>
<g transform="translate(0,-952.36218)">
	<path class="st0" d="M-667.5,1449.9c-0.4,0-0.9,0.2-1.2,0.6l-45.2,45.2c-0.3,0.3-0.5,0.8-0.6,1.2l-1.4,12.7
		c-0.1,1.1,0.7,2.1,1.8,2.2c0.2,0,0.3,0,0.5,0l12.7-1.4c0.4,0,0.9-0.2,1.2-0.6l45.2-45.2c0.8-0.8,0.8-2,0-2.8l0,0l-11.3-11.3
		C-666.3,1450.1-666.9,1449.9-667.5,1449.9z M-667.3,1454.8l8.5,8.5l-2.8,2.8l-8.5-8.5L-667.3,1454.8z M-738,1459.9
		c-1.2,0-2,1.1-2,2v72c0,1,1,2,2,2h72c1,0,2-1,2-2v-43c0-1.1-0.9-2-2-2s-2,1-2,2v41h-68v-68h41c1.1,0,2-0.9,2-2s-1-2-2-2H-738z
		 M-673,1460.4l8.5,8.5l-37.7,37.7l-9.6,1.1l1.1-9.5C-710.7,1498.1-673,1460.4-673,1460.4z"/>
</g>
</svg>
