<?xml version="1.0" encoding="utf-8"?>
<!-- Generator: Adobe Illustrator 19.0.0, SVG Export Plug-In . SVG Version: 6.00 Build 0)  -->
<svg version="1.1"
	 id="Laag_1" xmlns:dc="http://purl.org/dc/elements/1.1/" xmlns:rdf="http://www.w3.org/1999/02/22-rdf-syntax-ns#" xmlns:cc="http://creativecommons.org/ns#" xmlns:sodipodi="http://sodipodi.sourceforge.net/DTD/sodipodi-0.dtd" xmlns:svg="http://www.w3.org/2000/svg" xmlns:inkscape="http://www.inkscape.org/namespaces/inkscape"
	 xmlns="http://www.w3.org/2000/svg" xmlns:xlink="http://www.w3.org/1999/xlink" x="0px" y="0px" viewBox="-1091.9 777.8 36 36"
	 style="enable-background:new -1091.9 777.8 36 36;" xml:space="preserve">
<style type="text/css">
	.st0{fill:#FFFFFF;}
</style>
<g transform="translate(0,-952.36218)">
	<path class="st0" d="M-1061.6,1730.2c-0.2,0-0.4,0.1-0.5,0.3l-18.9,18.9c-0.1,0.1-0.2,0.3-0.3,0.5l-0.6,5.3c0,0.5,0.3,0.9,0.8,0.9
		c0.1,0,0.1,0,0.2,0l5.3-0.6c0.2,0,0.4-0.1,0.5-0.3l18.9-18.9c0.3-0.3,0.3-0.8,0-1.2l0,0l-4.7-4.7
		C-1061.1,1730.3-1061.4,1730.2-1061.6,1730.2z M-1061.6,1732.2l3.6,3.6l-1.2,1.2l-3.6-3.6L-1061.6,1732.2z M-1091.1,1734.4
		c-0.5,0-0.8,0.5-0.8,0.8v30.1c0,0.4,0.4,0.8,0.8,0.8h30.1c0.4,0,0.8-0.4,0.8-0.8v-18c0-0.5-0.4-0.8-0.8-0.8c-0.5,0-0.8,0.4-0.8,0.8
		v17.1h-28.4v-28.4h17.1c0.5,0,0.8-0.4,0.8-0.8c0-0.5-0.4-0.8-0.8-0.8H-1091.1z M-1063.9,1734.6l3.6,3.6l-15.8,15.8l-4,0.5l0.5-4
		C-1079.7,1750.4-1063.9,1734.6-1063.9,1734.6z"/>
</g>
</svg>
