<?xml version="1.0" encoding="UTF-8"?>
<svg width="10px" height="12px" viewBox="0 0 10 12" version="1.1" xmlns="http://www.w3.org/2000/svg" xmlns:xlink="http://www.w3.org/1999/xlink">
    <!-- Generator: Sketch 43.2 (39069) - http://www.bohemiancoding.com/sketch -->
    <title>ion-play - Ionicons</title>
    <desc>Created with Sketch.</desc>
    <defs></defs>
    <g id="Symbols" stroke="none" stroke-width="1" fill="none" fill-rule="evenodd">
        <g class="play" id="speak-question-content-recording-copy" transform="translate(-96.000000, -213.000000)" fill="#FFF">
            <path d="M105.65625,218.28125 C105.885418,218.468751 106,218.708332 106,219 C106,219.291668 105.885418,219.531249 105.65625,219.71875 L96.96875,224.90625 C96.8437494,224.96875 96.7291672,225 96.625,225 C96.4583325,225 96.3125006,224.937501 96.1875,224.8125 C96.0624994,224.687499 96,224.541667 96,224.375 L96,213.625 C96,213.458333 96.0624994,213.312501 96.1875,213.1875 C96.3125006,213.062499 96.4583325,213 96.625,213 C96.7500006,213 96.8645828,213.03125 96.96875,213.09375 L105.65625,218.28125 Z" id="ion-play---Ionicons"></path>
        </g>
    </g>
</svg>
