<?xml version="1.0" encoding="UTF-8"?>
<svg width="30px" height="30px" viewBox="0 0 30 30" version="1.1" xmlns="http://www.w3.org/2000/svg" xmlns:xlink="http://www.w3.org/1999/xlink">
    <!-- Generator: Sketch 44 (41411) - http://www.bohemiancoding.com/sketch -->
    <title></title>
    <desc>Created with Sketch.</desc>
    <defs></defs>
    <g id="Search-page" stroke="none" stroke-width="1" fill="none" fill-rule="evenodd">
        <g id="iPhone-5/SE" transform="translate(-141.000000, -33.000000)" fill="#FFFFFF">
            <g id="Group" transform="translate(65.000000, 33.000000)">
                <path d="M97.875,18.28125 L97.5625,18.828125 L106,27.34375 L103.34375,30 L94.90625,21.484375 L94.359375,21.875 C92.2760313,23.1770898 90.1145945,23.828125 87.875,23.828125 C84.5937336,23.828125 81.7942824,22.6562617 79.4765625,20.3125 C77.1588426,17.9687383 76,15.1562664 76,11.875 C76,8.59373359 77.1588426,5.79428242 79.4765625,3.4765625 C81.7942824,1.15884258 84.5937336,0 87.875,0 C91.1562664,0 93.9557176,1.15884258 96.2734375,3.4765625 C98.5911574,5.79428242 99.75,8.59373359 99.75,11.875 C99.75,14.1666781 99.1250062,16.3020734 97.875,18.28125 Z M94.515625,5.234375 C92.6926992,3.41144922 90.4791797,2.5 87.875,2.5 C85.2708203,2.5 83.0573008,3.41144922 81.234375,5.234375 C79.4114492,7.05730078 78.5,9.27082031 78.5,11.875 C78.5,14.4791797 79.4114492,16.6926992 81.234375,18.515625 C83.0573008,20.3385508 85.2708203,21.25 87.875,21.25 C90.4791797,21.25 92.6926992,20.3385508 94.515625,18.515625 C96.3906344,16.6406156 97.328125,14.4270961 97.328125,11.875 C97.328125,9.32290391 96.3906344,7.10938438 94.515625,5.234375 Z" id=""></path>
            </g>
        </g>
    </g>
</svg>