<?xml version="1.0" encoding="utf-8"?>
<!-- Generator: Adobe Illustrator 21.1.0, SVG Export Plug-In . SVG Version: 6.00 Build 0)  -->
<svg version="1.1" id="Capa_1" xmlns="http://www.w3.org/2000/svg" xmlns:xlink="http://www.w3.org/1999/xlink" x="0px" y="0px"
	 viewBox="0 0 50 50" style="enable-background:new 0 0 50 50;" xml:space="preserve">
<style type="text/css">
	.st0{fill:#FFFFFF;}
</style>
<g>
	<path class="st0" d="M39.2,50L23.5,37.2H5.2c-2.8,0-5.2-2.4-5.2-5.3V5.3C0,2.4,2.3,0,5.2,0h39.7C47.7,0,50,2.4,50,5.3v26.7
		c0,2.9-2.3,5.3-5.2,5.3h-5.6V50L39.2,50z M5.2,3.1c-1.1,0-2,1-2,2.1v26.7c0,1.2,0.9,2.1,2,2.1h19.5l11.4,9.3V34h8.8
		c1.1,0,2-1,2-2.1V5.3c0-1.2-0.9-2.1-2-2.1H5.2z"/>
</g>
</svg>
