<?xml version="1.0" encoding="utf-8"?>
<!-- Generator: Adobe Illustrator 21.1.0, SVG Export Plug-In . SVG Version: 6.00 Build 0)  -->
<svg version="1.1" id="Capa_1" xmlns="http://www.w3.org/2000/svg" xmlns:xlink="http://www.w3.org/1999/xlink" x="0px" y="0px"
	 viewBox="0 0 50 50" style="enable-background:new 0 0 50 50;" xml:space="preserve">
<style type="text/css">
	.st0{fill:#333333;}
</style>
<g>
	<path class="st0" d="M39.5,50L24.3,37.6H6.5c-2.7,0-5-2.3-5-5.1V6.7c0-2.8,2.2-5.1,5-5.1h38.5c2.7,0,4.9,2.3,4.9,5.1v25.8
		c0,2.8-2.2,5.1-5,5.1h-5.4V50L39.5,50z M6.5,4.6c-1.1,0-1.9,1-1.9,2v25.8c0,1.2,0.9,2,1.9,2h18.9l11.1,9v-9h8.5c1.1,0,1.9-1,1.9-2
		V6.7c0-1.2-0.9-2-1.9-2L6.5,4.6L6.5,4.6z"/>
</g>
</svg>
