<?xml version="1.0" encoding="UTF-8"?>
<svg width="49px" height="49px" viewBox="0 0 49 49" version="1.1" xmlns="http://www.w3.org/2000/svg" xmlns:xlink="http://www.w3.org/1999/xlink">
    <!-- Generator: Sketch 43.1 (39012) - http://www.bohemiancoding.com/sketch -->
    <title>speech-bubble-dark</title>
    <desc>Created with Sketch.</desc>
    <defs></defs>
    <g id="Page-1" stroke="none" stroke-width="1" fill="none" fill-rule="evenodd">
        <g id="speech-bubble-dark">
            <path d="M38.5,49 L23.3,36.6 L5.5,36.6 C2.8,36.6 0.5,34.3 0.5,31.5 L0.5,5.7 C0.5,2.9 2.7,0.6 5.5,0.6 L44,0.6 C46.7,0.6 48.9,2.9 48.9,5.7 L48.9,31.5 C48.9,34.3 46.7,36.6 43.9,36.6 L38.5,36.6 L38.5,49 L38.5,49 Z M5.5,3.6 C4.4,3.6 3.6,4.6 3.6,5.6 L3.6,31.4 C3.6,32.6 4.5,33.4 5.5,33.4 L24.4,33.4 L35.5,42.4 L35.5,33.4 L44,33.4 C45.1,33.4 45.9,32.4 45.9,31.4 L45.9,5.7 C45.9,4.5 45,3.7 44,3.7 L5.5,3.6 L5.5,3.6 Z" id="Shape" fill="#333333" fill-rule="nonzero"></path>
            <g id="lines" transform="translate(11.000000, 10.000000)" stroke="#333333" stroke-width="3" stroke-linecap="square">
                <path d="M0.817936576,1.5 L26.1820634,1.5" id="Line"></path>
                <path d="M0.817936576,8.5 L26.1820634,8.5" id="Line"></path>
                <path d="M0.817936576,15.5 L26.1820634,15.5" id="Line"></path>
            </g>
        </g>
    </g>
</svg>