<?xml version="1.0" encoding="utf-8"?>
<!-- Generator: Adobe Illustrator 21.1.0, SVG Export Plug-In . SVG Version: 6.00 Build 0)  -->
<svg version="1.1" id="Laag_1" xmlns="http://www.w3.org/2000/svg" xmlns:xlink="http://www.w3.org/1999/xlink" x="0px" y="0px"
	 viewBox="0 0 190 195" style="enable-background:new 0 0 190 195;" xml:space="preserve">
<style type="text/css">
	.st0{fill:none;stroke:#FFFFFF;stroke-width:5;stroke-miterlimit:10;}
</style>
<path id="Combined-Shape_3_" class="st0" d="M23.5,174.5c33,8,73.1,11.8,83.6,11.4c55.1-2.4,57.8-7.3,59.5-16.8
	c1-5.5,0.6-9.5-1.3-12.9c4.8-1.9,12.4-6.4,12.4-15c0-6.1-1.9-9.8-3.9-12c3.8-2.5,8.9-7.3,8.9-14.9c0-6.5-2.8-10.5-5.4-12.8
	c2.6-2.3,5.4-6.4,5.4-13.9c0-11.3-9.5-15.4-14.9-16h-44c-1,0-1.7-0.3-2.2-1.1c-1-1.5-1.3-5,0.9-10c5.7-12.9,8.5-22.7,8.5-30
	c0-11.8-6-24.4-17-24.4c-5.6,0-6.3,3.4-7,6.8l-0.4,1.9c-1.1,4.8-7.1,19.8-17.9,33.5C77.4,62.8,77.9,61.1,67,77.5
	c-6.6,9.9-24.6,28.1-52.2,28c-5.8,0-9.4,5.2-8.8,11C8.5,136.5,8.8,171.6,23.5,174.5z"/>
</svg>
