<?xml version="1.0" encoding="utf-8"?>
<!-- Generator: Adobe Illustrator 19.0.0, SVG Export Plug-In . SVG Version: 6.00 Build 0)  -->
<svg version="1.1" id="Laag_1" xmlns="http://www.w3.org/2000/svg" xmlns:xlink="http://www.w3.org/1999/xlink" x="0px" y="0px"
	 viewBox="40.9 -2.3 58 51.5" style="enable-background:new 40.9 -2.3 58 51.5;" xml:space="preserve">
<style type="text/css">
	.st0{fill:#FFFFFF;}
</style>
<path class="st0" d="M98.2,41.6l-24-41.4c-0.9-1.5-2.5-2.5-4.2-2.5s-3.4,0.9-4.2,2.5L41.6,41.9c-0.9,1.5-0.9,3.4,0,4.9
	s2.5,2.4,4.2,2.4H94l0,0c2.7,0,4.9-2.2,4.9-4.9C99,43.4,98.7,42.4,98.2,41.6z M67.5,12.8h5.1c0.4,0,0.7,0.3,0.7,0.7l-1.4,19.2
	c0,0.4-0.3,0.7-0.7,0.7h-2.3c-0.4,0-0.7-0.3-0.7-0.7l-1.4-19.2C66.8,13.1,67.1,12.8,67.5,12.8z M70,42.6c-1.9,0-3.4-1.5-3.4-3.4
	s1.5-3.4,3.4-3.4s3.4,1.5,3.4,3.4C73.4,41.1,71.9,42.6,70,42.6z"/>
</svg>
