<?xml version="1.0" encoding="utf-8"?>
<!-- Generator: Adobe Illustrator 19.0.0, SVG Export Plug-In . SVG Version: 6.00 Build 0)  -->
<svg version="1.1" id="Laag_1" xmlns="http://www.w3.org/2000/svg" xmlns:xlink="http://www.w3.org/1999/xlink" x="0px" y="0px"
	 viewBox="40.9 3.2 58 51.5" style="enable-background:new 40.9 3.2 58 51.5;" xml:space="preserve">
<path d="M98.2,47.1l-24-41.4c-0.9-1.5-2.5-2.5-4.2-2.5s-3.4,0.9-4.2,2.5L41.6,47.4c-0.9,1.5-0.9,3.4,0,4.9s2.5,2.4,4.2,2.4H94l0,0
	c2.7,0,4.9-2.2,4.9-4.9C99,48.9,98.7,47.9,98.2,47.1z M67.5,18.3h5.1c0.4,0,0.7,0.3,0.7,0.7l-1.4,19.2c0,0.4-0.3,0.7-0.7,0.7h-2.3
	c-0.4,0-0.7-0.3-0.7-0.7L66.8,19C66.8,18.6,67.1,18.3,67.5,18.3z M70,48.1c-1.9,0-3.4-1.5-3.4-3.4s1.5-3.4,3.4-3.4s3.4,1.5,3.4,3.4
	S71.9,48.1,70,48.1z"/>
</svg>
