<?xml version="1.0" encoding="UTF-8"?>
<svg width="16px" height="16px" viewBox="0 0 16 16" version="1.1" xmlns="http://www.w3.org/2000/svg" xmlns:xlink="http://www.w3.org/1999/xlink">
    <!-- Generator: Sketch 43.1 (39012) - http://www.bohemiancoding.com/sketch -->
    <title>add_circle_outline - material</title>
    <desc>Created with Sketch.</desc>
    <defs></defs>
    <g id="Symbols" stroke="none" stroke-width="1" fill="none" fill-rule="evenodd">
        <g id="main-menu-bottom" transform="translate(-152.000000, -12.000000)" fill="#FFFFFF">
            <g id="add_circle_outline---material">
                <path d="M160,25.712 C161.080005,25.712 162.087995,25.4360028 163.024,24.884 C163.936005,24.3559974 164.655997,23.6360046 165.184,22.724 C165.736003,21.7879953 166.012,20.7800054 166.012,19.7 C166.012,18.6199946 165.736003,17.6120047 165.184,16.676 C164.655997,15.7639954 163.936005,15.0440026 163.024,14.516 C162.087995,13.9639972 161.080005,13.688 160,13.688 C158.919995,13.688 157.912005,13.9639972 156.976,14.516 C156.063995,15.0440026 155.344003,15.7639954 154.816,16.676 C154.263997,17.6120047 153.988,18.6199946 153.988,19.7 C153.988,20.7800054 154.263997,21.7879953 154.816,22.724 C155.344003,23.6360046 156.063995,24.3559974 156.976,24.884 C157.912005,25.4360028 158.919995,25.712 160,25.712 Z M160,12.212 C161.368007,12.212 162.633994,12.5539966 163.798,13.238 C164.926006,13.8860032 165.813997,14.7739944 166.462,15.902 C167.146003,17.0660058 167.488,18.3319932 167.488,19.7 C167.488,21.0680068 167.146003,22.3339942 166.462,23.498 C165.813997,24.6260056 164.926006,25.5139968 163.798,26.162 C162.633994,26.8460034 161.368007,27.188 160,27.188 C158.631993,27.188 157.366006,26.8460034 156.202,26.162 C155.073994,25.5019967 154.186003,24.6080056 153.538,23.48 C152.853997,22.3159942 152.512,21.0560068 152.512,19.7 C152.512,18.3439932 152.853997,17.0840058 153.538,15.92 C154.198003,14.7919944 155.091994,13.8980033 156.22,13.238 C157.384006,12.5539966 158.643993,12.212 160,12.212 Z M160.738,15.938 L160.738,18.962 L163.762,18.962 L163.762,20.438 L160.738,20.438 L160.738,23.462 L159.262,23.462 L159.262,20.438 L156.238,20.438 L156.238,18.962 L159.262,18.962 L159.262,15.938 L160.738,15.938 Z"></path>
            </g>
        </g>
    </g>
</svg>