<?xml version="1.0" encoding="utf-8"?>
<!-- Generator: Adobe Illustrator 19.0.0, SVG Export Plug-In . SVG Version: 6.00 Build 0)  -->
<svg version="1.1" id="Laag_1" xmlns="http://www.w3.org/2000/svg" xmlns:xlink="http://www.w3.org/1999/xlink" x="0px" y="0px"
	 viewBox="-412 290.3 16 16" style="enable-background:new -412 290.3 16 16;" xml:space="preserve">
<style type="text/css">
	.st0{fill:#FFFFFF;}
</style>
<title>home - simple-line-icons</title>
<desc>Created with Sketch.</desc>
<g id="Symbols">
	<g id="main-menu-bottom" transform="translate(-24.000000, -11.000000)">
		<g id="home---simple-line-icons">
			<path class="st0" d="M-372.1,309.3c0.1,0.1,0.1,0.2,0.1,0.4s-0.1,0.3-0.1,0.4c-0.1,0.1-0.2,0.1-0.3,0.1c-0.1,0-0.3-0.1-0.4-0.2
				l-0.7-0.7v7.5c0,0.1,0,0.3-0.1,0.4s-0.2,0.1-0.4,0.1h-3.5c-0.1,0-0.3,0-0.4-0.1s-0.1-0.2-0.1-0.4v-5h-4l0,5c0,0,0,0.1,0,0.1
				s0,0.1,0,0.1s0,0.1-0.1,0.1s0,0.1-0.1,0.1s-0.1,0-0.1,0.1s-0.1,0-0.1,0s-0.1,0-0.1,0h-3.5c-0.1,0-0.3,0-0.4-0.1s-0.1-0.2-0.1-0.4
				v-7.5l-0.7,0.7c0,0-0.1,0.1-0.2,0.1s-0.1,0-0.2,0s-0.1,0-0.2,0s-0.1-0.1-0.2-0.1c-0.1-0.1-0.1-0.1-0.1-0.2s0-0.2,0-0.3
				s0.1-0.2,0.1-0.2l7.5-7.9c0.1-0.1,0.2-0.2,0.4-0.2c0.1,0,0.1,0,0.2,0s0.1,0.1,0.2,0.1L-372.1,309.3z M-374.5,308.4
				c0,0,0-0.1,0-0.1l-5.5-5.8l-5.5,5.8c0,0,0,0.1,0,0.1v7.9h2.5l0-5c0-0.1,0-0.3,0.1-0.4s0.2-0.1,0.4-0.1h5c0.1,0,0.3,0,0.4,0.1
				s0.1,0.2,0.1,0.4v5h2.5V308.4z"/>
		</g>
	</g>
</g>
</svg>
