<?xml version="1.0" encoding="utf-8"?>
<!-- Generator: Adobe Illustrator 19.0.0, SVG Export Plug-In . SVG Version: 6.00 Build 0)  -->
<svg version="1.1" id="Laag_1" xmlns="http://www.w3.org/2000/svg" xmlns:xlink="http://www.w3.org/1999/xlink" x="0px" y="0px"
	 viewBox="-42.2 46 15.7 16" style="enable-background:new -42.2 46 15.7 16;" xml:space="preserve">
<style type="text/css">
	.st0{display:none;}
	.st1{display:inline;}
	.st2{fill:#5E6068;}
	.st3{fill:#FFFFFF;}
</style>
<g id="Laag_1_1_" class="st0">
	<title>star - simple-line-icons</title>
	<desc>Created with Sketch.</desc>
	<g id="Symbols" class="st1">
		<g id="main-menu-bottom" transform="translate(-88.000000, -11.000000)">
			<g id="star---simple-line-icons">
				<path class="st2" d="M53.8,58.6L52,62.3L51.7,63L47,63.7l3.4,3.4l-0.1,0.7l-0.7,4.1l4.2-2.2l4.2,2.2l-0.7-4.1l-0.1-0.7l3.4-3.4
					L55.8,63L53.8,58.6z M53.8,57.7c0.1,0,0.1,0,0.2,0s0.1,0,0.2,0s0.1,0,0.1,0.1s0.1,0,0.1,0.1s0.1,0.1,0.1,0.1l0.1,0.1l0.1,0.1
					l0.1,0.1l1.8,3.6l4,0.6c0.2,0,0.4,0.1,0.5,0.2s0.3,0.3,0.3,0.5c0.1,0.4,0.1,0.8-0.3,1.1l-3,3l0.7,4.1c0,0.2,0,0.4-0.1,0.6
					s-0.2,0.3-0.4,0.5c-0.2,0.1-0.4,0.2-0.7,0.2c-0.1,0-0.2,0-0.3,0s-0.2-0.1-0.3-0.1l-3.5-1.9L50,72.6c-0.2,0.1-0.3,0.1-0.5,0.1
					h-0.1h-0.1h-0.1h-0.1c0,0-0.1,0-0.1-0.1c0-0.1-0.1,0-0.1-0.1c-0.2-0.1-0.3-0.3-0.4-0.5c-0.1-0.2-0.1-0.4-0.1-0.6l0.7-4.1l-3-3
					c-0.3-0.3-0.4-0.7-0.3-1.1c0.1-0.2,0.2-0.4,0.3-0.5s0.3-0.2,0.5-0.2l4-0.6l1.8-3.6c0.1-0.2,0.2-0.3,0.4-0.5S53.5,57.7,53.8,57.7
					z"/>
			</g>
		</g>
	</g>
</g>
<g id="Laag_2">
	<g id="Feed-page">
		<g id="iPhone-5_x2F_SE---Keuze-vraag-stellen" transform="translate(-268.000000, -11.000000)">
			<g id="Group-2" transform="translate(197.000000, 11.000000)">
				<path id="_xE01C_" class="st3" d="M36.9,62c-0.9,0-1.8-0.2-2.6-0.5s-1.5-0.7-2-1.3c-0.6-0.6-1-1.2-1.3-2s-0.5-1.6-0.5-2.5
					c0-0.5,0.1-1,0.2-1.4c0.1-0.5,0.3-0.9,0.4-1.3c0.1-0.4,0.3-0.7,0.4-0.9c0.1-0.2,0.2-0.4,0.2-0.4c0-0.1,0.1-0.2,0.2-0.2
					s0.2-0.1,0.3,0c0.1,0,0.2,0,0.3,0.1s0.1,0.1,0.1,0.2c0,0,0.1,0.2,0.2,0.7c0.1,0.4,0.3,0.8,0.5,1.1c0.1,0.2,0.3,0.4,0.4,0.6
					c0.1,0.2,0.3,0.3,0.4,0.4c-0.1-0.5-0.2-1-0.2-1.7c0-0.7,0-1.3,0.1-2.1c0.2-1,0.5-1.8,0.9-2.4c0.4-0.6,0.8-1.1,1.3-1.5
					c0.4-0.4,0.8-0.6,1.2-0.8c0.4,0,0.6-0.1,0.6-0.1c0.1,0,0.2,0,0.3,0s0.2,0.1,0.2,0.1c0.1,0.1,0.1,0.1,0.1,0.2c0,0.1,0,0.2,0,0.3
					l-0.1,0.5c0,0.3-0.1,0.7-0.1,1.2s0.1,1,0.1,1.6s0.3,1.2,0.5,1.8c0.1,0.1,0.1,0.2,0.2,0.3c0.1,0.1,0.1,0.2,0.2,0.4
					c0-0.2,0-0.3,0.1-0.5c0.1-0.2,0.1-0.4,0.1-0.5c0.2-0.7,0.5-1.2,0.9-1.4c0.4-0.3,0.6-0.4,0.6-0.4c0.1,0,0.2-0.1,0.3,0
					c0.1,0,0.2,0,0.2,0.1c0.1,0.1,0.1,0.1,0.2,0.2c0,0.1,0,0.2,0,0.3c0,0,0,0.2,0,0.7s0.2,1,0.6,1.6c0.4,0.6,0.6,1.1,0.7,1.6
					c0.1,0.5,0.2,1.1,0.2,1.9c0,0.9-0.2,1.7-0.5,2.5c-0.3,0.8-0.8,1.4-1.4,2c-0.6,0.6-1.3,1-2.1,1.3C38.8,61.8,37.9,62,36.9,62z
					 M32.1,53.3c-0.1,0.3-0.3,0.7-0.4,1.2c-0.1,0.4-0.2,0.9-0.2,1.3c0,0.8,0.1,1.5,0.4,2.1c0.3,0.6,0.6,1.2,1.1,1.7s1.1,0.8,1.7,1.1
					c0.7,0.3,1.4,0.4,2.2,0.4s1.6-0.1,2.2-0.4c0.7-0.3,1.3-0.6,1.8-1.1s0.9-1,1.2-1.7c0.3-0.6,0.4-1.3,0.4-2.1
					c0-0.6-0.1-1.2-0.2-1.6c-0.1-0.4-0.3-0.9-0.6-1.4c-0.2-0.4-0.4-0.7-0.5-1C41.1,51.5,41,51.3,41,51c-0.1,0.1-0.1,0.2-0.1,0.3
					c0,0.1-0.1,0.2-0.1,0.3c-0.1,0.5-0.2,1.1-0.2,1.6V54c0,0.1,0,0.2-0.1,0.3c-0.1,0.1-0.1,0.2-0.3,0.2c-0.1,0-0.2,0-0.3,0
					s-0.2-0.1-0.3-0.2c0,0-0.2-0.3-0.5-0.8s-0.6-1-0.8-1.4s-0.4-0.9-0.5-1.3s-0.2-0.9-0.2-1.3s-0.1-0.8-0.1-1.2c0-0.4,0-0.7,0-1
					c-0.4,0.2-0.9,0.6-1.4,1.2S35.2,49.9,35,51c-0.1,0.5-0.1,1.1-0.1,1.6s0.1,1,0.1,1.4c0.1,0.4,0.1,0.7,0.2,1l0.1,0.4
					c0,0.1,0,0.2,0,0.3s-0.1,0.2-0.1,0.3c-0.1,0.1-0.1,0.1-0.2,0.1c-0.1,0-0.2,0-0.3,0c0,0-0.3-0.1-0.9-0.4
					c-0.6-0.2-1.1-0.7-1.5-1.4c-0.1-0.1-0.1-0.3-0.2-0.4C32.2,53.6,32.1,53.5,32.1,53.3z"/>
			</g>
		</g>
	</g>
</g>
</svg>
