<?xml version="1.0" encoding="utf-8"?>
<!-- Generator: Adobe Illustrator 19.0.0, SVG Export Plug-In . SVG Version: 6.00 Build 0)  -->
<svg version="1.1" id="Laag_1" xmlns="http://www.w3.org/2000/svg" xmlns:xlink="http://www.w3.org/1999/xlink" x="0px" y="0px"
	 viewBox="-413 291.3 14 14" style="enable-background:new -413 291.3 14 14;" xml:space="preserve">
<style type="text/css">
	.st0{fill:#FFFFFF;}
</style>
<title>ion-ios-search-strong - Ionicons</title>
<desc>Created with Sketch.</desc>
<g id="Symbols">
	<g id="main-menu-bottom" transform="translate(-217.000000, -13.000000)">
		<g id="ion-ios-search-strong---Ionicons">
			<path class="st0" d="M-185.9,312.9l-0.1,0.3l3.9,3.9l-1.2,1.2l-3.9-3.9l-0.3,0.2c-1,0.6-2,0.9-3,0.9c-1.5,0-2.8-0.5-3.9-1.6
				s-1.6-2.4-1.6-3.9s0.5-2.8,1.6-3.9c1.1-1.1,2.4-1.6,3.9-1.6s2.8,0.5,3.9,1.6c1.1,1.1,1.6,2.4,1.6,3.9
				C-185,311-185.3,311.9-185.9,312.9z M-187.4,306.8c-0.8-0.8-1.9-1.3-3.1-1.3s-2.2,0.4-3.1,1.3s-1.3,1.9-1.3,3.1s0.4,2.2,1.3,3.1
				s1.9,1.3,3.1,1.3s2.2-0.4,3.1-1.3c0.9-0.9,1.3-1.9,1.3-3.1C-186.1,308.7-186.6,307.7-187.4,306.8z"/>
		</g>
	</g>
</g>
</svg>
