<?xml version="1.0" encoding="utf-8"?>
<!-- Generator: Adobe Illustrator 19.0.0, SVG Export Plug-In . SVG Version: 6.00 Build 0)  -->
<svg version="1.1" id="Laag_1" xmlns="http://www.w3.org/2000/svg" xmlns:xlink="http://www.w3.org/1999/xlink" x="0px" y="0px"
	 viewBox="-412 290.3 16 16" style="enable-background:new -412 290.3 16 16;" xml:space="preserve">
<style type="text/css">
	.st0{fill:#FFFFFF;}
</style>
<title>star - simple-line-icons</title>
<desc>Created with Sketch.</desc>
<g id="Symbols">
	<g id="main-menu-bottom" transform="translate(-88.000000, -11.000000)">
		<g id="star---simple-line-icons">
			<path class="st0" d="M-316.2,302.9l-1.8,3.7l-0.3,0.7l-4.7,0.7l3.4,3.4l-0.1,0.7l-0.7,4.1l4.2-2.2l4.2,2.2l-0.7-4.1l-0.1-0.7
				l3.4-3.4l-4.7-0.7L-316.2,302.9z M-316.2,302c0.1,0,0.1,0,0.2,0s0.1,0,0.2,0s0.1,0,0.1,0.1s0.1,0,0.1,0.1s0.1,0.1,0.1,0.1
				s0.1,0.1,0.1,0.1s0.1,0.1,0.1,0.1s0.1,0.1,0.1,0.1l1.8,3.6l4,0.6c0.2,0,0.4,0.1,0.5,0.2s0.3,0.3,0.3,0.5c0.1,0.4,0.1,0.8-0.3,1.1
				l-3,3l0.7,4.1c0,0.2,0,0.4-0.1,0.6s-0.2,0.3-0.4,0.5c-0.2,0.1-0.4,0.2-0.7,0.2c-0.1,0-0.2,0-0.3,0s-0.2-0.1-0.3-0.1l-3.5-1.9
				l-3.5,1.9c-0.2,0.1-0.3,0.1-0.5,0.1h-0.1c0,0-0.1,0-0.1,0l-0.1,0c0,0-0.1,0-0.1,0s-0.1,0-0.1-0.1s-0.1,0-0.1-0.1
				c-0.2-0.1-0.3-0.3-0.4-0.5s-0.1-0.4-0.1-0.6l0.7-4.1l-3-3c-0.3-0.3-0.4-0.7-0.3-1.1c0.1-0.2,0.2-0.4,0.3-0.5s0.3-0.2,0.5-0.2
				l4-0.6l1.8-3.6c0.1-0.2,0.2-0.3,0.4-0.5S-316.5,302-316.2,302z"/>
		</g>
	</g>
</g>
</svg>
