<?xml version="1.0" encoding="UTF-8"?>
<svg width="17px" height="17px" viewBox="0 0 17 17" version="1.1" xmlns="http://www.w3.org/2000/svg" xmlns:xlink="http://www.w3.org/1999/xlink">
    <!-- Generator: Sketch 43.1 (39012) - http://www.bohemiancoding.com/sketch -->
    <title>ion-android-cancel - Ionicons</title>
    <desc>Created with Sketch.</desc>
    <defs></defs>
    <g id="Vraag-toevoegen---tekst" stroke="none" stroke-width="1" fill="none" fill-rule="evenodd">
        <g id="iPhone-5/SE---Vraag-stellen-Copy" transform="translate(-124.000000, -510.000000)" fill="#FFFFFF">
            <g id="cancel-copy" transform="translate(20.000000, 498.000000)">
                <path d="M112.125,12.375 C114.364595,12.375 116.278638,13.1692629 117.867188,14.7578125 C119.455737,16.3463621 120.25,18.2604055 120.25,20.5 C120.25,22.7395945 119.455737,24.6536379 117.867188,26.2421875 C116.278638,27.8307371 114.364595,28.625 112.125,28.625 C109.885405,28.625 107.971362,27.8307371 106.382812,26.2421875 C104.794263,24.6536379 104,22.7395945 104,20.5 C104,18.2604055 104.794263,16.3463621 106.382812,14.7578125 C107.971362,13.1692629 109.885405,12.375 112.125,12.375 Z M116.1875,23.4296875 L113.257812,20.5 L116.1875,17.5703125 L115.054688,16.4375 L112.125,19.3671875 L109.195312,16.4375 L108.0625,17.5703125 L110.992188,20.5 L108.0625,23.4296875 L109.195312,24.5625 L112.125,21.6328125 L115.054688,24.5625 L116.1875,23.4296875 Z" id="ion-android-cancel---Ionicons"></path>
            </g>
        </g>
    </g>
</svg>