<?xml version="1.0" encoding="UTF-8"?>
<svg width="25px" height="33px" viewBox="0 0 25 33" version="1.1" xmlns="http://www.w3.org/2000/svg" xmlns:xlink="http://www.w3.org/1999/xlink">
    <!-- Generator: Sketch 43.1 (39012) - http://www.bohemiancoding.com/sketch -->
    <title>Shape</title>
    <desc>Created with Sketch.</desc>
    <defs>
        <filter x="-3.9%" y="-10.0%" width="107.8%" height="128.0%" filterUnits="objectBoundingBox" id="filter-1">
            <feOffset dx="0" dy="2" in="SourceAlpha" result="shadowOffsetOuter1"></feOffset>
            <feGaussianBlur stdDeviation="2" in="shadowOffsetOuter1" result="shadowBlurOuter1"></feGaussianBlur>
            <feColorMatrix values="0 0 0 0 0   0 0 0 0 0   0 0 0 0 0  0 0 0 0.15 0" type="matrix" in="shadowBlurOuter1" result="shadowMatrixOuter1"></feColorMatrix>
            <feMerge>
                <feMergeNode in="shadowMatrixOuter1"></feMergeNode>
                <feMergeNode in="SourceGraphic"></feMergeNode>
            </feMerge>
        </filter>
    </defs>
    <g id="Vraag-toevoegen---spraak" stroke="none" stroke-width="1" fill="none" fill-rule="evenodd">
        <g id="iPhone-5/SE---Keuze-vraag-stellen" transform="translate(-214.000000, -286.000000)" fill-rule="nonzero" fill="#4A90E2">
            <g id="Group-4" transform="translate(20.000000, 77.000000)">
                <g id="Group-2" filter="url(#filter-1)" transform="translate(50.000000, 199.000000)">
                    <g id="Group" transform="translate(148.000000, 12.000000)">
                        <path d="M8.23173892,0 C5.20207465,0 2.74399538,2.45810641 2.74399538,5.48780421 L2.74399538,12.8048795 C2.74399538,15.8345743 5.20207465,18.2926837 8.23173892,18.2926837 C11.2614032,18.2926837 13.7194821,15.8345743 13.7194821,12.8048795 L13.7194821,5.48780421 C13.7194821,2.45810641 11.2614032,0 8.23173892,0 Z M8.23173892,1.21951205 C10.6068911,1.21951205 12.4999701,3.11262462 12.4999701,5.48780421 L12.4999701,12.8048795 C12.4999701,15.1800622 10.6068911,17.0731717 8.23173892,17.0731717 C5.85658677,17.0731717 3.96347724,15.1800622 3.96347724,12.8048795 L3.96347724,5.48780421 C3.96347724,3.11262462 5.85658677,1.21951205 8.23173892,1.21951205 L8.23173892,1.21951205 Z M0.543172476,8.8319349 C0.243568854,8.86486477 -0.00637014007,9.14986779 0.000123761575,9.45121836 L0.000123761575,12.8048795 C0.000123761575,17.0978363 3.35298951,20.6921652 7.62198289,21.0079883 L7.62198289,23.780488 L3.96347724,23.780488 C3.62673948,23.780488 3.35375171,24.0534757 3.35375171,24.390244 C3.35375171,24.7270122 3.62673948,25 3.96347724,25 L12.4999701,25 C12.8367384,25 13.1097261,24.7270122 13.1097261,24.390244 C13.1097261,24.0534757 12.8367384,23.780488 12.4999701,23.780488 L8.84146445,23.780488 L8.84146445,21.0079883 C13.1104578,20.6921652 16.4633233,17.0978363 16.4633233,12.8048795 L16.4633233,9.45121836 C16.4682013,9.12890437 16.1759453,8.83224587 15.8535977,8.83224587 C15.5312197,8.83224587 15.2389942,9.12890437 15.2438417,9.45121836 L15.2438417,12.8048795 C15.2438417,16.6367083 12.1213116,19.8170738 8.23173892,19.8170738 C4.34213573,19.8170738 1.21963581,16.6367083 1.21963581,12.8048795 L1.21963581,9.45121836 C1.22695288,9.10530987 0.887074873,8.79403856 0.543172476,8.8319349 L0.543172476,8.8319349 Z" id="Shape"></path>
                    </g>
                </g>
            </g>
        </g>
    </g>
</svg>