<?xml version="1.0" encoding="UTF-8"?>
<svg width="16px" height="16px" viewBox="0 0 16 16" version="1.1" xmlns="http://www.w3.org/2000/svg" xmlns:xlink="http://www.w3.org/1999/xlink">
    <!-- Generator: Sketch 43.1 (39012) - http://www.bohemiancoding.com/sketch -->
    <title>home - simple-line-icons</title>
    <desc>Created with Sketch.</desc>
    <defs></defs>
    <g id="Symbols" stroke="none" stroke-width="1" fill="none" fill-rule="evenodd">
        <g id="main-menu-bottom" transform="translate(-24.000000, -11.000000)" fill="#5E6068">
            <g id="home---simple-line-icons">
                <path d="M39.90625,19.015625 C40.0000005,19.1197922 40.0442709,19.2395827 40.0390625,19.375 C40.0338541,19.5104173 39.9843755,19.6302078 39.890625,19.734375 C39.7968745,19.8281255 39.6822923,19.875 39.546875,19.875 C39.4010409,19.875 39.2812505,19.8229172 39.1875,19.71875 L38.515625,19.015625 L38.515625,26.5 C38.515625,26.6354173 38.4661463,26.7526037 38.3671875,26.8515625 C38.2682287,26.9505213 38.1510423,27 38.015625,27 L34.515625,27 C34.3802077,27 34.2630213,26.9505213 34.1640625,26.8515625 C34.0651037,26.7526037 34.015625,26.6354173 34.015625,26.5 L34.015625,21.5 L30.03125,21.5 L30.015625,26.5 C30.015625,26.5312502 30.0104167,26.5677081 30,26.609375 C29.9895833,26.6510419 29.9765626,26.6874998 29.9609375,26.71875 C29.9453124,26.7500002 29.9270834,26.7786457 29.90625,26.8046875 C29.8854166,26.8307293 29.8593752,26.8567707 29.828125,26.8828125 C29.7968748,26.9088543 29.7656252,26.9296874 29.734375,26.9453125 C29.7031248,26.9609376 29.669271,26.9739583 29.6328125,26.984375 C29.596354,26.9947917 29.5572919,27 29.515625,27 L26.03125,27 C25.8854159,27 25.7656255,26.9505213 25.671875,26.8515625 C25.5781245,26.7526037 25.53125,26.6354173 25.53125,26.5 L25.53125,19.015625 L24.84375,19.71875 C24.8020831,19.7604169 24.7500003,19.7942707 24.6875,19.8203125 C24.6249997,19.8463543 24.5625003,19.8619791 24.5,19.8671875 C24.4374997,19.8723959 24.3750003,19.8619793 24.3125,19.8359375 C24.2499997,19.8098957 24.1927086,19.7760419 24.140625,19.734375 C24.0781247,19.6718747 24.0338543,19.5963546 24.0078125,19.5078125 C23.9817707,19.4192704 23.9791666,19.3333338 24,19.25 C24.0208334,19.1666662 24.0624997,19.088542 24.125,19.015625 L31.671875,11.15625 C31.7760422,11.0520828 31.8958327,11 32.03125,11 C32.104167,11 32.1718747,11.0130207 32.234375,11.0390625 C32.2968753,11.0651043 32.3489581,11.1041664 32.390625,11.15625 L39.90625,19.015625 Z M37.515625,18.109375 C37.515625,18.0677081 37.5208333,18.0260419 37.53125,17.984375 L32.03125,12.234375 L26.515625,17.984375 C26.5260417,18.0260419 26.53125,18.0677081 26.53125,18.109375 L26.53125,26 L29.015625,26 L29.03125,21 C29.03125,20.8645827 29.0807287,20.7473963 29.1796875,20.6484375 C29.2786463,20.5494787 29.3958327,20.5 29.53125,20.5 L34.515625,20.5 C34.6510423,20.5 34.7682287,20.5494787 34.8671875,20.6484375 C34.9661463,20.7473963 35.015625,20.8645827 35.015625,21 L35.015625,26 L37.515625,26 L37.515625,18.109375 Z"></path>
            </g>
        </g>
    </g>
</svg>