<?xml version="1.0" encoding="UTF-8"?>
<svg width="16px" height="16px" viewBox="0 0 16 16" version="1.1" xmlns="http://www.w3.org/2000/svg" xmlns:xlink="http://www.w3.org/1999/xlink">
    <!-- Generator: Sketch 43.1 (39012) - http://www.bohemiancoding.com/sketch -->
    <title>star - simple-line-icons</title>
    <desc>Created with Sketch.</desc>
    <defs></defs>
    <g id="Symbols" stroke="none" stroke-width="1" fill="none" fill-rule="evenodd">
        <g id="main-menu-bottom" transform="translate(-88.000000, -11.000000)" fill="#5E6068">
            <g id="star---simple-line-icons">
                <path d="M95.7651367,12.6342773 L93.9941406,16.3125 L93.6762695,16.9633789 L88.9536133,17.659668 L92.3745117,21.0805664 L92.2685547,21.7617188 L91.5722656,25.8486328 L95.7651367,23.6083984 L99.9580078,25.8486328 L99.2617187,21.7617188 L99.1557617,21.0805664 L102.57666,17.659668 L97.8388672,16.9633789 L95.7651367,12.6342773 Z M95.7651367,11.7109375 C95.8155927,11.7109375 95.8685707,11.7134603 95.9240723,11.7185059 C95.9795738,11.7235515 96.0325518,11.7336425 96.0830078,11.7487793 C96.1334638,11.7639161 96.1813963,11.7815754 96.2268066,11.8017578 C96.272217,11.8219402 96.3176267,11.8446451 96.3630371,11.869873 C96.4084475,11.895101 96.4513344,11.9253742 96.4916992,11.9606934 C96.532064,11.9960125 96.5699054,12.033854 96.6052246,12.0742188 C96.6405438,12.1145835 96.6733397,12.1549477 96.7036133,12.1953125 C96.7338869,12.2356773 96.7591145,12.281087 96.7792969,12.331543 L98.5351562,15.9794922 L102.57666,16.5698242 C102.778484,16.6000978 102.960123,16.6808262 103.121582,16.8120117 C103.283041,16.9431973 103.399088,17.1096995 103.469727,17.3115234 C103.611003,17.7252625 103.520184,18.0935856 103.197266,18.4165039 L100.245605,21.3681641 L100.926758,25.4702148 C100.967123,25.6720388 100.944418,25.8688141 100.858643,26.0605469 C100.772867,26.2522796 100.644207,26.4086908 100.472656,26.5297852 C100.280924,26.6609707 100.063966,26.7265625 99.8217773,26.7265625 C99.7309566,26.7265625 99.6401372,26.7164715 99.5493164,26.6962891 C99.4584956,26.6761067 99.3676762,26.640788 99.2768555,26.590332 L95.7651367,24.6982422 L92.2382812,26.590332 C92.0768221,26.6811528 91.9002288,26.7265625 91.7084961,26.7265625 L91.5874023,26.7265625 C91.5470376,26.7265625 91.5091961,26.721517 91.473877,26.7114258 L91.3679199,26.6811523 C91.3326007,26.6710611 91.2972821,26.6584473 91.2619629,26.6433105 C91.2266437,26.6281738 91.191325,26.6105144 91.1560059,26.590332 C91.1206867,26.5701496 91.0878908,26.5499675 91.0576172,26.5297852 C90.8860669,26.4086908 90.757406,26.2522796 90.6716309,26.0605469 C90.5858557,25.8688141 90.5631508,25.6720388 90.6035156,25.4702148 L91.284668,21.3681641 L88.3330078,18.4165039 C88.0100895,18.0935856 87.9192701,17.7252625 88.0605469,17.3115234 C88.1311852,17.1096995 88.2472323,16.9431973 88.4086914,16.8120117 C88.5701505,16.6808262 88.7517894,16.6000978 88.9536133,16.5698242 L92.9951172,15.9794922 L94.7509766,12.331543 C94.8417973,12.1398102 94.9780264,11.9884446 95.159668,11.8774414 C95.3413095,11.7664382 95.5431304,11.7109375 95.7651367,11.7109375 Z"></path>
            </g>
        </g>
    </g>
</svg>