<?xml version="1.0" encoding="UTF-8"?>
<svg width="20px" height="20px" viewBox="0 0 20 20" version="1.1" xmlns="http://www.w3.org/2000/svg" xmlns:xlink="http://www.w3.org/1999/xlink">
    <!-- Generator: Sketch 43.1 (39012) - http://www.bohemiancoding.com/sketch -->
    <title>star - simple-line-icons</title>
    <desc>Created with Sketch.</desc>
    <defs></defs>
    <g id="Feed-page" stroke="none" stroke-width="1" fill="none" fill-rule="evenodd">
        <g id="iPhone-5/SE---Keuze-vraag-stellen" transform="translate(-104.000000, -13.000000)" fill="#FF5537">
            <g id="Group" transform="translate(34.000000, 11.000000)">
                <path d="M80,3.75390625 L77.7148438,8.5 L77.3046875,9.33984375 L71.2109375,10.2382812 L75.625,14.6523438 L75.4882812,15.53125 L74.5898438,20.8046875 L80,17.9140625 L85.4101562,20.8046875 L84.5117188,15.53125 L84.375,14.6523438 L88.7890625,10.2382812 L82.6757812,9.33984375 L80,3.75390625 Z M80,2.5625 C80.2864598,2.5625 80.5468738,2.63411387 80.78125,2.77734375 C81.0156262,2.92057363 81.1914057,3.11588418 81.3085938,3.36328125 L83.5742188,8.0703125 L88.7890625,8.83203125 C89.0494805,8.87109395 89.2838531,8.97525957 89.4921875,9.14453125 C89.7005219,9.31380293 89.85026,9.52864453 89.9414062,9.7890625 C90.0195316,10.0364596 90.0292972,10.2871081 89.9707031,10.5410156 C89.9121091,10.7949231 89.7851572,11.0195303 89.5898438,11.2148438 L85.78125,15.0234375 L86.6601562,20.3164062 C86.7122398,20.5768242 86.6829433,20.8307279 86.5722656,21.078125 C86.461588,21.3255221 86.295574,21.527343 86.0742188,21.6835938 C85.9440098,21.77474 85.8072924,21.8398436 85.6640625,21.8789062 C85.5208326,21.9179689 85.3776049,21.9375 85.234375,21.9375 C85.1171869,21.9375 85.0000006,21.9244793 84.8828125,21.8984375 C84.7656244,21.8723957 84.6484381,21.8268232 84.53125,21.7617188 L80,19.3203125 L75.4492188,21.7617188 C75.3450516,21.8268232 75.2343756,21.8723957 75.1171875,21.8984375 C74.9999994,21.9244793 74.8828131,21.9375 74.765625,21.9375 C74.6093742,21.9375 74.4628913,21.9179689 74.3261719,21.8789062 C74.1894524,21.8398436 74.0559902,21.77474 73.9257812,21.6835938 C73.704426,21.527343 73.538412,21.3255221 73.4277344,21.078125 C73.3170567,20.8307279 73.2877602,20.5768242 73.3398438,20.3164062 L74.21875,15.0234375 L70.4101562,11.2148438 C70.2148428,11.0195303 70.0878909,10.7949231 70.0292969,10.5410156 C69.9707028,10.2871081 69.9804684,10.0364596 70.0585938,9.7890625 C70.14974,9.54166543 70.2994781,9.330079 70.5078125,9.15429688 C70.7161469,8.97851475 70.9505195,8.87109395 71.2109375,8.83203125 L76.4257812,8.0703125 L78.6914062,3.36328125 C78.8085943,3.11588418 78.9843738,2.92057363 79.21875,2.77734375 C79.4531262,2.63411387 79.7135402,2.5625 80,2.5625 Z" id="star---simple-line-icons"></path>
            </g>
        </g>
    </g>
</svg>